<?xml version="1.0" encoding="UTF-8" standalone="no"?>
<svg
   xmlns:dc="http://purl.org/dc/elements/1.1/"
   xmlns:cc="http://creativecommons.org/ns#"
   xmlns:rdf="http://www.w3.org/1999/02/22-rdf-syntax-ns#"
   xmlns:svg="http://www.w3.org/2000/svg"
   xmlns="http://www.w3.org/2000/svg"
   id="svg26"
   preserveAspectRatio="xMidYMid"
   version="1.1"
   viewBox="0 0 255.61468 320"
   height="128"
   width="102.24587">
  <metadata
     id="metadata32">
    <rdf:RDF>
      <cc:Work
         rdf:about="">
        <dc:format>image/svg+xml</dc:format>
        <dc:type
           rdf:resource="http://purl.org/dc/dcmitype/StillImage" />
        <dc:title></dc:title>
      </cc:Work>
    </rdf:RDF>
  </metadata>
  <defs
     id="defs30" />
  <g
     transform="translate(-0.26388589,5.8620217)"
     id="g24">
    <g
       style="fill:#1a1918"
       id="g16"
       transform="translate(0,281.85998)">
      <path
         id="path2"
         d="m 67.516834,32.003525 c -0.541523,0 -1.126167,-0.136851 -1.532115,-0.685832 L 48.601192,8.4564861 V 31.775177 h -3.96431 V 3.0609307 c 0,-1.142528 0.945919,-2.0571024 2.0278,-2.0571024 0.629706,0 1.170841,0.1825994 1.574847,0.7315807 l 17.33963,22.815852 V 1.323673 h 3.963921 v 28.668103 c 0,1.189066 -0.945918,2.011749 -2.026246,2.011749" />
      <path
         id="path4"
         d="m 100.30628,32.277976 c -3.962758,0 -8.106928,-0.823472 -11.980336,-2.285845 l 0.946306,-3.292704 c 3.557973,1.143316 7.430993,1.966394 11.03403,1.966394 4.99957,0 7.61163,-1.783401 7.61163,-4.297593 0,-2.286633 -2.02741,-3.429556 -9.008173,-6.721866 -6.980759,-3.291916 -9.727223,-5.394766 -9.727223,-9.5105488 0,-5.1656301 3.962756,-7.27005844 11.438426,-7.27005844 3.10812,0 7.88161,0.64087254 10.63002,1.46395014 l -0.63087,3.3830184 c -3.01839,-0.7311863 -6.80051,-1.2340248 -9.90864,-1.2340248 -5.268396,0 -7.430605,1.0052826 -7.430605,3.5206582 0,2.4684443 1.575624,3.5202633 8.961945,6.9498193 7.79188,3.612155 9.77345,5.441304 9.77345,9.189915 0,5.441699 -5.13515,8.138885 -11.70996,8.138885" />
      <path
         id="path6"
         d="m 130.79813,1.323673 h 4.09833 v 30.45111 h -4.09833 z" />
      <path
         id="path8"
         d="m 169.75783,17.966917 h -10.17978 v 10.334021 h 10.17978 c 3.46746,0 5.58422,-2.195137 5.58422,-5.259099 0,-2.880574 -2.20649,-5.074922 -5.58422,-5.074922 M 167.7751,4.7984644 h -8.19705 v 9.7392916 h 8.19705 c 3.28837,0 5.67512,-2.10364 5.67512,-5.0295684 0,-2.8805743 -2.07209,-4.7097232 -5.67512,-4.7097232 m 2.02741,26.9765946 h -12.24993 c -1.17162,0 -2.07248,-0.914969 -2.07248,-2.057497 V 3.3814458 c 0,-1.0979626 0.90086,-2.0574967 2.07248,-2.0574967 h 10.13317 c 6.21509,0 9.90786,3.0631737 9.90786,7.8643938 0,2.6056891 -1.53134,5.0291741 -3.8738,6.4465861 3.4694,1.05182 5.80992,3.932 5.80992,7.40691 0,4.846574 -4.00743,8.73322 -9.72722,8.73322" />
      <path
         id="path10"
         d="m 199.21225,31.775098 c -1.12423,0 -2.02547,-0.960323 -2.02547,-2.057497 V 1.3239885 h 4.09755 V 28.071841 h 16.30398 v 3.703257 z" />
      <path
         id="path12"
         d="m 245.52618,32.277976 c -8.3773,0 -13.42155,-3.108922 -13.42155,-9.372909 0,-2.972072 1.66692,-5.806897 4.90984,-7.132813 -2.61244,-1.646156 -3.96314,-3.978143 -3.96314,-6.5384782 0,-5.6692573 4.36987,-8.36802104 12.56575,-8.36802104 2.74763,0 6.62026,0.32063344 9.86358,1.05260854 l -0.45101,3.3830184 c -3.42201,-0.5489813 -6.62104,-0.8680372 -9.72839,-0.8680372 -5.31462,0 -8.15238,1.4623726 -8.15238,4.9834251 0,2.7894714 2.61283,4.9838194 6.08146,4.9838194 h 7.02504 c 0.99098,0 1.75626,0.777329 1.75626,1.737258 0,1.005677 -0.76528,1.783006 -1.75626,1.783006 h -7.56501 c -3.9647,0 -6.48546,1.965605 -6.48546,4.984214 0,4.434838 4.09833,5.760754 9.23231,5.760754 2.79269,0 6.57442,-0.364804 9.63671,-1.09678 l 0.58698,3.33727 c -2.92827,0.823472 -6.75701,1.371665 -10.13473,1.371665" />
      <path
         id="path14"
         d="M 14.137998,7.0346956 21.31571,25.01896 10.475139,16.34963 Z M 26.88944,29.162349 15.849585,2.187727 C 15.534538,1.4103978 14.903667,0.99866187 14.137998,0.99866187 c -0.765669,0 -1.441214,0.41173593 -1.756261,1.18906513 L 0.26388589,31.775137 H 4.4084443 L 9.2060164,19.576868 23.520262,31.317653 c 0.575709,0.472077 0.990981,0.685832 1.532115,0.685832 1.080328,0 2.026246,-0.822683 2.026246,-2.011354 0,-0.192853 -0.06798,-0.499683 -0.189183,-0.829782 z" />
    </g>
    <g
       id="g22">
      <path
         style="fill:#1a1918"
         id="path18"
         d="m 255.87857,127.86803 c 0,70.45514 -57.11008,127.56471 -127.56622,127.56471 -70.450124,0 -127.56622267,-57.10957 -127.56622267,-127.56471 0,-70.450122 57.11609867,-127.56622146 127.56622267,-127.56622146 70.45614,0 127.56622,57.11609946 127.56622,127.56622146" />
      <path
         style="fill:#ffffff"
         id="path20"
         d="m 130.45986,78.228885 33.0116,81.476255 -49.86345,-39.2778 z M 189.10434,178.47412 138.32577,56.27205 c -1.44952,-3.524365 -4.34807,-5.389259 -7.86591,-5.389259 -3.52436,0 -6.63386,1.864894 -8.08338,5.389259 L 66.643604,190.31241 h 19.06532 l 22.062306,-55.26527 65.83887,53.18993 c 2.64792,2.14114 4.55852,3.1095 7.0422,3.1095 4.97389,0 9.32146,-3.72879 9.32146,-9.11102 0,-0.87594 -0.3094,-2.2662 -0.86942,-3.76143 z" />
    </g>
  </g>
</svg>
