<?xml version="1.0" encoding="UTF-8" standalone="no"?>
<svg
   xmlns:dc="http://purl.org/dc/elements/1.1/"
   xmlns:cc="http://creativecommons.org/ns#"
   xmlns:rdf="http://www.w3.org/1999/02/22-rdf-syntax-ns#"
   xmlns:svg="http://www.w3.org/2000/svg"
   xmlns="http://www.w3.org/2000/svg"
   width="197.84721mm"
   height="75.317299mm"
   viewBox="0 0 197.84721 75.317299"
   version="1.1"
   id="svg216">
  <defs
     id="defs210" />
  <metadata
     id="metadata213">
    <rdf:RDF>
      <cc:Work
         rdf:about="">
        <dc:format>image/svg+xml</dc:format>
        <dc:type
           rdf:resource="http://purl.org/dc/dcmitype/StillImage" />
        <dc:title></dc:title>
      </cc:Work>
    </rdf:RDF>
  </metadata>
  <path
     d="m 126.81075,0.132292 h 63.84987 l 7.00847,7.008473 v 35.041531 h -70.85834 z"
     id="path7"
     style="fill:#cfe2f3;fill-rule:evenodd;stroke:none;stroke-width:0.26458332;stroke-linecap:square;stroke-miterlimit:10" />
  <path
     d="m 126.81075,0.132292 h 63.84987 l 7.00847,7.008473 v 35.041531 h -70.85834 z"
     id="path9"
     style="fill:none;fill-rule:evenodd;stroke:#000000;stroke-width:0.26458332;stroke-linecap:butt;stroke-linejoin:round;stroke-miterlimit:10" />
  <path
     d="m 129.41525,9.622232 0.43821,-0.03721 q 0.0331,0.264583 0.1447,0.434083 0.11575,0.169497 0.35553,0.276984 0.24391,0.103354 0.5457,0.103354 0.26459,0 0.47129,-0.07855 0.20671,-0.07855 0.30593,-0.214974 0.0992,-0.14056 0.0992,-0.305924 0,-0.165365 -0.0992,-0.289388 -0.0951,-0.124024 -0.3142,-0.210839 -0.14469,-0.05374 -0.63251,-0.1695 -0.4837,-0.119888 -0.678,-0.223242 -0.25631,-0.132292 -0.38034,-0.326594 -0.12402,-0.198438 -0.12402,-0.442351 0,-0.264583 0.15296,-0.496094 0.15296,-0.235644 0.44235,-0.355534 0.29352,-0.119889 0.64906,-0.119889 0.39274,0 0.69039,0.128158 0.30179,0.124023 0.46303,0.37207 0.16122,0.243913 0.17363,0.553971 l -0.44649,0.03307 q -0.0372,-0.334863 -0.24804,-0.504362 -0.20671,-0.173632 -0.61185,-0.173632 -0.42582,0 -0.62012,0.157096 -0.1943,0.157096 -0.1943,0.376204 0,0.19017 0.14056,0.310059 0.13229,0.124023 0.7028,0.256315 0.5705,0.128159 0.78134,0.223242 0.31006,0.14056 0.45476,0.359669 0.14882,0.219107 0.14882,0.504362 0,0.281119 -0.16123,0.533299 -0.16123,0.248047 -0.46302,0.388607 -0.30179,0.136427 -0.68213,0.136427 -0.47955,0 -0.80615,-0.14056 -0.32246,-0.14056 -0.50849,-0.42168 -0.1819,-0.281119 -0.19017,-0.636652 z m 5.97126,-0.103354 0.46715,0.11989 q -0.14883,0.574641 -0.52916,0.880565 -0.38034,0.301792 -0.93431,0.301792 -0.57051,0 -0.93018,-0.23151 -0.35553,-0.235646 -0.5457,-0.673862 -0.18604,-0.442349 -0.18604,-0.950847 0,-0.549837 0.21084,-0.959114 0.21084,-0.413411 0.59945,-0.624251 0.39274,-0.214974 0.85989,-0.214974 0.52917,0 0.88884,0.268717 0.3638,0.268718 0.50436,0.760677 l -0.45889,0.107487 q -0.12402,-0.384472 -0.35967,-0.558105 -0.23151,-0.177767 -0.5829,-0.177767 -0.40928,0 -0.68213,0.194303 -0.27286,0.194304 -0.38448,0.525033 -0.11162,0.326596 -0.11162,0.677994 0,0.45062 0.13229,0.785482 0.1323,0.334865 0.40928,0.504362 0.27699,0.165365 0.59945,0.165365 0.39274,0 0.66559,-0.227375 0.27285,-0.227378 0.36794,-0.673862 z m 0.6543,1.240234 1.35599,-3.534668 h 0.50436 l 1.44694,3.534668 h -0.5333 l -0.40928,-1.070734 h -1.48001 l -0.38861,1.070734 z m 1.02113,-1.451073 h 1.19889 l -0.37207,-0.979786 q -0.16536,-0.446484 -0.24805,-0.731738 -0.0703,0.338997 -0.19017,0.67386 z m 2.65985,1.451073 V 7.224444 h 1.33532 q 0.3514,0 0.53743,0.03307 0.25632,0.04547 0.43408,0.169499 0.17777,0.119889 0.28526,0.338997 0.10748,0.219109 0.10748,0.483692 0,0.450618 -0.28938,0.764811 -0.28526,0.31006 -1.03766,0.31006 h -0.90538 v 1.434536 z m 0.46715,-1.852083 h 0.91364 q 0.45476,0 0.64493,-0.169498 0.19016,-0.1695 0.19016,-0.475424 0,-0.223242 -0.11162,-0.380338 -0.11162,-0.157097 -0.29765,-0.206706 -0.11576,-0.03307 -0.43408,-0.03307 h -0.90538 z m 4.03952,0.715203 0.43821,-0.03721 q 0.0331,0.264583 0.1447,0.434083 0.11575,0.169497 0.35553,0.276984 0.24391,0.103354 0.5457,0.103354 0.26459,0 0.47129,-0.07855 0.20671,-0.07855 0.30593,-0.214974 0.0992,-0.14056 0.0992,-0.305924 0,-0.165365 -0.0992,-0.289388 -0.0951,-0.124024 -0.3142,-0.210839 -0.14469,-0.05374 -0.63251,-0.1695 -0.4837,-0.119888 -0.678,-0.223242 -0.25631,-0.132292 -0.38034,-0.326594 -0.12402,-0.198438 -0.12402,-0.442351 0,-0.264583 0.15296,-0.496094 0.15296,-0.235644 0.44235,-0.355534 0.29352,-0.119889 0.64906,-0.119889 0.39274,0 0.6904,0.128158 0.30178,0.124023 0.46302,0.37207 0.16123,0.243913 0.17363,0.553971 l -0.44649,0.03307 q -0.0372,-0.334863 -0.24804,-0.504362 -0.20671,-0.173632 -0.61185,-0.173632 -0.42582,0 -0.62012,0.157096 -0.1943,0.157096 -0.1943,0.376204 0,0.19017 0.14056,0.310059 0.13229,0.124023 0.7028,0.256315 0.5705,0.128159 0.78135,0.223242 0.31005,0.14056 0.45475,0.359669 0.14883,0.219107 0.14883,0.504362 0,0.281119 -0.16124,0.533299 -0.16122,0.248047 -0.46302,0.388607 -0.30179,0.136427 -0.68212,0.136427 -0.47956,0 -0.80616,-0.14056 -0.32246,-0.14056 -0.50849,-0.42168 -0.1819,-0.281119 -0.19017,-0.636652 z m 3.23449,-0.144695 q 0,-0.711068 0.39274,-1.050066 0.33073,-0.285253 0.80615,-0.285253 0.52917,0 0.86403,0.347266 0.33487,0.343131 0.33487,0.95498 0,0.491961 -0.14883,0.777213 -0.14883,0.28112 -0.43408,0.438216 -0.28112,0.157097 -0.61599,0.157097 -0.53743,0 -0.86816,-0.343131 -0.33073,-0.347265 -0.33073,-0.996322 z m 0.44648,0 q 0,0.491961 0.21085,0.740007 0.21497,0.243912 0.54156,0.243912 0.32246,0 0.53744,-0.243912 0.21497,-0.248046 0.21497,-0.752408 0,-0.475425 -0.21497,-0.719336 -0.21498,-0.243914 -0.53744,-0.243914 -0.32659,0 -0.54156,0.243914 -0.21085,0.239778 -0.21085,0.731737 z m 4.13431,1.281575 v -0.376203 q -0.29765,0.434081 -0.81028,0.434081 -0.22738,0 -0.42582,-0.08682 -0.1943,-0.08682 -0.28939,-0.219109 -0.0951,-0.132292 -0.13229,-0.322461 -0.0289,-0.124023 -0.0289,-0.405143 V 8.200095 h 0.43409 v 1.418001 q 0,0.338998 0.0289,0.458888 0.0413,0.169498 0.17364,0.268716 0.13229,0.09922 0.32659,0.09922 0.19431,0 0.36381,-0.09922 0.17363,-0.103351 0.24391,-0.272851 0.0703,-0.173633 0.0703,-0.500226 V 8.200095 h 0.43408 v 2.559017 z m 1.06678,0 V 8.200095 h 0.38861 v 0.388608 q 0.14883,-0.272852 0.27285,-0.359669 0.12816,-0.08682 0.28112,-0.08682 0.21911,0 0.44648,0.14056 l -0.14883,0.401009 q -0.16122,-0.09508 -0.31832,-0.09508 -0.1447,0 -0.25632,0.08682 -0.11162,0.08682 -0.16123,0.235646 -0.0744,0.23151 -0.0744,0.508495 v 1.339453 z m 3.3181,-0.938443 0.42581,0.05788 q -0.0703,0.438216 -0.35967,0.690396 -0.28525,0.248047 -0.70693,0.248047 -0.52503,0 -0.84336,-0.343131 -0.31833,-0.343133 -0.31833,-0.983918 0,-0.417547 0.13643,-0.727605 0.13643,-0.310059 0.41755,-0.463021 0.28112,-0.157097 0.61184,-0.157097 0.41755,0 0.68213,0.21084 0.26459,0.210841 0.339,0.599448 l -0.42168,0.06201 q -0.062,-0.256315 -0.21497,-0.384472 -0.15297,-0.132291 -0.36794,-0.132291 -0.3266,0 -0.5333,0.235643 -0.20671,0.235646 -0.20671,0.744141 0,0.516765 0.19844,0.752408 0.19844,0.231511 0.51677,0.231511 0.25631,0 0.42581,-0.157097 0.17363,-0.157096 0.21911,-0.48369 z m 2.55075,0.115756 0.44648,0.05374 q -0.10749,0.392742 -0.39274,0.611849 -0.28526,0.214974 -0.73174,0.214974 -0.56224,0 -0.89297,-0.343131 -0.32659,-0.347265 -0.32659,-0.971518 0,-0.649055 0.33073,-1.004588 0.33486,-0.355535 0.86403,-0.355535 0.51263,0 0.83509,0.351399 0.32659,0.347266 0.32659,0.979787 0,0.04134 0,0.115755 h -1.90996 q 0.0248,0.421679 0.23978,0.649054 0.21497,0.223243 0.5333,0.223243 0.23978,0 0.40928,-0.124024 0.1695,-0.128156 0.26872,-0.401007 z m -1.42627,-0.7028 h 1.4304 q -0.0289,-0.322461 -0.16536,-0.483693 -0.20671,-0.252179 -0.53744,-0.252179 -0.29766,0 -0.50436,0.20257 -0.20257,0.198438 -0.22324,0.533302 z m 3.8438,1.525487 V 7.224444 h 1.21957 q 0.40927,0 0.62838,0.05374 0.30179,0.06615 0.51677,0.252181 0.28112,0.235645 0.41754,0.603581 0.14056,0.367936 0.14056,0.839225 0,0.401011 -0.0951,0.715203 -0.0951,0.310057 -0.24392,0.512631 -0.14469,0.20257 -0.31832,0.322461 -0.17364,0.115755 -0.42168,0.177765 -0.24805,0.05788 -0.56638,0.05788 z m 0.46716,-0.417544 h 0.75654 q 0.34727,0 0.5457,-0.06201 0.19844,-0.06615 0.31833,-0.186034 0.16536,-0.165365 0.25631,-0.446484 0.0951,-0.28112 0.0951,-0.682131 0,-0.553971 -0.1819,-0.851627 -0.1819,-0.297656 -0.44235,-0.396875 -0.18604,-0.07441 -0.60358,-0.07441 h -0.74414 z m 4.714,0.103351 q -0.24391,0.202573 -0.46715,0.289388 -0.21911,0.08268 -0.47543,0.08268 -0.42168,0 -0.64905,-0.206706 -0.22738,-0.206706 -0.22738,-0.525031 0,-0.19017 0.0868,-0.343133 0.0868,-0.157096 0.22324,-0.248047 0.14056,-0.09508 0.31419,-0.144693 0.12403,-0.03307 0.38447,-0.06615 0.52504,-0.06201 0.77309,-0.148828 0.004,-0.09095 0.004,-0.111622 0,-0.264583 -0.12402,-0.376203 -0.16537,-0.144696 -0.49609,-0.144696 -0.30593,0 -0.45062,0.107487 -0.1447,0.107487 -0.21498,0.376206 l -0.42581,-0.05788 q 0.0579,-0.268719 0.19017,-0.434083 0.13229,-0.169499 0.38447,-0.260449 0.25218,-0.09095 0.57878,-0.09095 0.33073,0 0.5333,0.07855 0.2067,0.07441 0.30179,0.194303 0.0992,0.115757 0.13642,0.293522 0.0207,0.111623 0.0207,0.401011 v 0.578776 q 0,0.60358 0.0289,0.764809 0.0289,0.157097 0.10748,0.305925 h -0.45061 q -0.0703,-0.136425 -0.0868,-0.314193 z m -0.0372,-0.971515 q -0.23565,0.09922 -0.70694,0.165364 -0.26872,0.03721 -0.38034,0.08682 -0.11162,0.04961 -0.17363,0.14056 -0.0579,0.09095 -0.0579,0.206706 0,0.173633 0.13229,0.289388 0.13229,0.115755 0.38448,0.115755 0.24804,0 0.44235,-0.107487 0.19843,-0.11162 0.28938,-0.301789 0.0703,-0.148828 0.0703,-0.434083 z m 2.05896,0.897101 0.062,0.384474 q -0.1819,0.03721 -0.32659,0.03721 -0.23564,0 -0.36794,-0.07441 -0.12816,-0.07441 -0.1819,-0.194302 -0.0537,-0.124024 -0.0537,-0.512631 V 8.534958 h -0.31833 V 8.200095 h 0.31833 V 7.567576 l 0.42995,-0.260449 v 0.892968 h 0.43821 v 0.334863 h -0.43821 v 1.500685 q 0,0.181901 0.0207,0.235643 0.0248,0.05374 0.0744,0.08682 0.0538,0.02894 0.15296,0.02894 0.0703,0 0.19017,-0.01654 z m 2.0949,0.07441 q -0.24391,0.202573 -0.46716,0.289388 -0.2191,0.08268 -0.47542,0.08268 -0.42168,0 -0.64905,-0.206706 -0.22738,-0.206706 -0.22738,-0.525031 0,-0.19017 0.0868,-0.343133 0.0868,-0.157096 0.22324,-0.248047 0.14056,-0.09508 0.31419,-0.144693 0.12402,-0.03307 0.38447,-0.06615 0.52504,-0.06201 0.77308,-0.148828 0.004,-0.09095 0.004,-0.111622 0,-0.264583 -0.12402,-0.376203 -0.16537,-0.144696 -0.4961,-0.144696 -0.30592,0 -0.45062,0.107487 -0.14469,0.107487 -0.21497,0.376206 l -0.42581,-0.05788 q 0.0579,-0.268719 0.19017,-0.434083 0.13229,-0.169499 0.38447,-0.260449 0.25218,-0.09095 0.57877,-0.09095 0.33073,0 0.53331,0.07855 0.2067,0.07441 0.30178,0.194303 0.0992,0.115757 0.13643,0.293522 0.0207,0.111623 0.0207,0.401011 v 0.578776 q 0,0.60358 0.0289,0.764809 0.0289,0.157097 0.10748,0.305925 h -0.45062 q -0.0703,-0.136425 -0.0868,-0.314193 z M 170.65752,9.4734 q -0.23564,0.09922 -0.70693,0.165364 -0.26872,0.03721 -0.38034,0.08681 -0.11162,0.04961 -0.17363,0.14056 -0.0579,0.09095 -0.0579,0.206706 0,0.173633 0.13229,0.289388 0.13229,0.115755 0.38447,0.115755 0.24805,0 0.44236,-0.107487 0.19843,-0.11162 0.28938,-0.301789 0.0703,-0.148828 0.0703,-0.434083 z m 1.0089,0.148828 0.43822,-0.03721 q 0.0331,0.264583 0.1447,0.434083 0.11575,0.169497 0.35553,0.276984 0.24391,0.103354 0.5457,0.103354 0.26459,0 0.47129,-0.07855 0.20671,-0.07855 0.30593,-0.214974 0.0992,-0.14056 0.0992,-0.305924 0,-0.165365 -0.0992,-0.289388 -0.0951,-0.124024 -0.3142,-0.210839 -0.14469,-0.05375 -0.63252,-0.1695 -0.48369,-0.119888 -0.67799,-0.223242 -0.25632,-0.132292 -0.38034,-0.326594 -0.12402,-0.198438 -0.12402,-0.442351 0,-0.264583 0.15296,-0.496094 0.15296,-0.235644 0.44235,-0.355534 0.29352,-0.119889 0.64906,-0.119889 0.39273,0 0.69039,0.128158 0.30179,0.124023 0.46302,0.37207 0.16123,0.243913 0.17363,0.553971 l -0.44648,0.03307 q -0.0372,-0.334863 -0.24805,-0.504362 -0.2067,-0.173632 -0.61185,-0.173632 -0.42581,0 -0.62011,0.157096 -0.1943,0.157096 -0.1943,0.376204 0,0.19017 0.14056,0.310059 0.13229,0.124023 0.70279,0.256315 0.57051,0.128159 0.78135,0.223242 0.31006,0.14056 0.45475,0.359669 0.14883,0.219107 0.14883,0.504362 0,0.281119 -0.16123,0.533299 -0.16123,0.248047 -0.46302,0.388607 -0.30179,0.136427 -0.68213,0.136427 -0.47956,0 -0.80615,-0.14056 -0.32246,-0.14056 -0.5085,-0.42168 -0.1819,-0.281119 -0.19017,-0.636652 z m 4.34244,0.748273 0.062,0.384474 q -0.1819,0.03721 -0.32659,0.03721 -0.23565,0 -0.36794,-0.07441 -0.12816,-0.07441 -0.1819,-0.194302 -0.0537,-0.124024 -0.0537,-0.512631 V 8.534958 H 174.8224 V 8.200095 h 0.31833 V 7.567576 l 0.42994,-0.260449 v 0.892968 h 0.43822 v 0.334863 h -0.43822 v 1.500685 q 0,0.181901 0.0207,0.235643 0.0248,0.05374 0.0744,0.08682 0.0538,0.02894 0.15297,0.02894 0.0703,0 0.19017,-0.01654 z m 0.42056,0.388607 V 8.200095 h 0.38861 v 0.388608 q 0.14883,-0.272852 0.27285,-0.359669 0.12816,-0.08682 0.28112,-0.08682 0.21911,0 0.44649,0.14056 l -0.14883,0.401009 q -0.16123,-0.09508 -0.31833,-0.09508 -0.14469,0 -0.25631,0.08682 -0.11162,0.08682 -0.16123,0.235646 -0.0744,0.23151 -0.0744,0.508495 v 1.339453 z m 3.40078,-0.822687 0.44649,0.05374 q -0.10749,0.392742 -0.39274,0.611849 -0.28526,0.214974 -0.73174,0.214974 -0.56224,0 -0.89297,-0.343131 -0.3266,-0.347265 -0.3266,-0.971518 0,-0.649055 0.33073,-1.004588 0.33487,-0.355535 0.86403,-0.355535 0.51263,0 0.8351,0.351399 0.32659,0.347266 0.32659,0.979787 0,0.04134 0,0.115755 h -1.90996 q 0.0248,0.421679 0.23978,0.649054 0.21497,0.223243 0.5333,0.223243 0.23978,0 0.40927,-0.124024 0.1695,-0.128156 0.26872,-0.401007 z m -1.42628,-0.702796 h 1.43041 q -0.0289,-0.322461 -0.16537,-0.483693 -0.2067,-0.252179 -0.53743,-0.252179 -0.29766,0 -0.50437,0.20257 -0.20257,0.198438 -0.22324,0.533302 z m 4.08882,1.211294 q -0.24391,0.202573 -0.46716,0.289388 -0.2191,0.08268 -0.47542,0.08268 -0.42168,0 -0.64905,-0.206706 -0.22738,-0.206706 -0.22738,-0.525031 0,-0.19017 0.0868,-0.343133 0.0868,-0.157096 0.22324,-0.248047 0.14056,-0.09508 0.31419,-0.144693 0.12402,-0.03307 0.38447,-0.06615 0.52504,-0.06201 0.77308,-0.148828 0.004,-0.09095 0.004,-0.111622 0,-0.264583 -0.12402,-0.376203 -0.16537,-0.144696 -0.4961,-0.144696 -0.30592,0 -0.45062,0.107487 -0.14469,0.107487 -0.21497,0.376206 l -0.42581,-0.05788 q 0.0579,-0.268719 0.19017,-0.434083 0.13229,-0.169499 0.38447,-0.260449 0.25218,-0.09095 0.57877,-0.09095 0.33073,0 0.5333,0.07855 0.20671,0.07441 0.30179,0.194303 0.0992,0.115757 0.13643,0.293522 0.0207,0.111623 0.0207,0.401011 v 0.578776 q 0,0.60358 0.0289,0.764809 0.0289,0.157097 0.10748,0.305925 h -0.45062 q -0.0703,-0.136425 -0.0868,-0.314193 z m -0.0372,-0.971515 q -0.23564,0.09922 -0.70693,0.165364 -0.26872,0.03721 -0.38034,0.08682 -0.11162,0.04961 -0.17363,0.14056 -0.0579,0.09095 -0.0579,0.206706 0,0.173633 0.13229,0.289388 0.13229,0.115755 0.38447,0.115755 0.24805,0 0.44236,-0.107487 0.19843,-0.11162 0.28938,-0.301789 0.0703,-0.148828 0.0703,-0.434083 z m 1.11227,1.285708 V 8.200095 h 0.38861 v 0.359668 q 0.11989,-0.190169 0.31833,-0.30179 0.20257,-0.115755 0.45475,-0.115755 0.28525,0 0.46715,0.119889 0.18191,0.115755 0.25632,0.326596 0.30592,-0.446485 0.78962,-0.446485 0.38447,0 0.58704,0.21084 0.20671,0.210841 0.20671,0.649057 v 1.756997 h -0.43409 V 9.146807 q 0,-0.260448 -0.0413,-0.37207 -0.0413,-0.115755 -0.15296,-0.186034 -0.11162,-0.07028 -0.26045,-0.07028 -0.26872,0 -0.44648,0.181901 -0.17777,0.177769 -0.17777,0.570508 v 1.488281 h -0.43408 V 9.097198 q 0,-0.289388 -0.10749,-0.434081 -0.10749,-0.144695 -0.34726,-0.144695 -0.18191,0 -0.339,0.09509 -0.1571,0.09508 -0.22738,0.28112 -0.0661,0.186034 -0.0661,0.537435 v 1.327049 z"
     id="path11"
     style="fill:#000000;fill-rule:nonzero;stroke:none;stroke-width:0.26458332;stroke-linecap:square;stroke-miterlimit:10" />
  <path
     d="m 130.58159,20.541062 v 0 c 0,-0.826146 0.66972,-1.495864 1.49587,-1.495864 h 22.54993 c 0.39673,0 0.77721,0.157599 1.05773,0.438129 0.28054,0.280527 0.43814,0.661006 0.43814,1.057735 v 5.983272 c 0,0.826143 -0.66973,1.495861 -1.49587,1.495861 h -22.54993 c -0.82615,0 -1.49587,-0.669718 -1.49587,-1.495861 z"
     id="path13"
     style="fill:#cfe2f3;fill-rule:evenodd;stroke:none;stroke-width:0.26458332;stroke-linecap:square;stroke-miterlimit:10" />
  <path
     d="m 130.58159,20.541062 v 0 c 0,-0.826146 0.66972,-1.495864 1.49587,-1.495864 h 22.54993 c 0.39673,0 0.77721,0.157599 1.05773,0.438129 0.28054,0.280527 0.43814,0.661006 0.43814,1.057735 v 5.983272 c 0,0.826143 -0.66973,1.495861 -1.49587,1.495861 h -22.54993 c -0.82615,0 -1.49587,-0.669718 -1.49587,-1.495861 z"
     id="path15"
     style="fill:none;fill-rule:evenodd;stroke:#000000;stroke-width:0.26458332;stroke-linecap:butt;stroke-linejoin:round;stroke-miterlimit:10" />
  <path
     d="m 137.2959,25.251235 0.97565,-1.314648 -0.85989,-1.211297 h 0.39687 l 0.45889,0.649057 q 0.14056,0.202571 0.20257,0.310058 0.0827,-0.136425 0.19844,-0.289388 l 0.50849,-0.669727 h 0.36381 l -0.88884,1.190625 0.95912,1.33532 h -0.41342 l -0.63665,-0.901237 q -0.0537,-0.07855 -0.11162,-0.1695 -0.0827,0.14056 -0.11989,0.19017 l -0.63252,0.880567 z m 4.40674,-0.8847 0.33486,0.08268 q -0.10335,0.413412 -0.3762,0.628386 -0.27285,0.214974 -0.66973,0.214974 -0.40514,0 -0.66145,-0.165365 -0.25632,-0.165365 -0.39275,-0.479557 -0.13229,-0.314193 -0.13229,-0.677995 0,-0.392742 0.14883,-0.686263 0.15296,-0.293524 0.42995,-0.446485 0.28112,-0.152963 0.61598,-0.152963 0.37621,0 0.63252,0.194305 0.26045,0.190169 0.3638,0.541567 l -0.33073,0.07855 q -0.0868,-0.276987 -0.25631,-0.401011 -0.16537,-0.128156 -0.41755,-0.128156 -0.28938,0 -0.48782,0.14056 -0.19431,0.14056 -0.27285,0.376203 -0.0786,0.231511 -0.0786,0.483693 0,0.322461 0.091,0.562239 0.0951,0.239779 0.29352,0.359667 0.19844,0.115755 0.42995,0.115755 0.28112,0 0.47542,-0.161229 0.19431,-0.161232 0.26045,-0.479557 z m 2.54665,0 0.33486,0.08268 q -0.10335,0.413412 -0.3762,0.628386 -0.27285,0.214974 -0.66973,0.214974 -0.40514,0 -0.66146,-0.165365 -0.25631,-0.165365 -0.39274,-0.479557 -0.13229,-0.314193 -0.13229,-0.677995 0,-0.392742 0.14883,-0.686263 0.15296,-0.293524 0.42995,-0.446485 0.28112,-0.152963 0.61598,-0.152963 0.37621,0 0.63252,0.194305 0.26045,0.190169 0.3638,0.541567 l -0.33073,0.07855 q -0.0868,-0.276987 -0.25631,-0.401011 -0.16537,-0.128156 -0.41755,-0.128156 -0.28939,0 -0.48782,0.14056 -0.19431,0.14056 -0.27286,0.376203 -0.0785,0.231511 -0.0785,0.483693 0,0.322461 0.091,0.562239 0.0951,0.239779 0.29352,0.359667 0.19844,0.115755 0.42995,0.115755 0.28112,0 0.47542,-0.161229 0.1943,-0.161232 0.26045,-0.479557 z m 0.74832,0.8847 V 22.72529 h 0.86817 q 0.29352,0 0.45061,0.03721 0.21498,0.04961 0.36794,0.181901 0.20257,0.169498 0.30179,0.434081 0.0992,0.260451 0.0992,0.595313 0,0.289388 -0.0703,0.51263 -0.0662,0.219109 -0.17363,0.367937 -0.10336,0.144693 -0.22738,0.227375 -0.12402,0.08268 -0.30179,0.128159 -0.17363,0.04134 -0.40514,0.04134 z m 0.33486,-0.297656 h 0.53744 q 0.24805,0 0.38861,-0.04548 0.14469,-0.04961 0.23151,-0.132292 0.11575,-0.119888 0.1819,-0.318326 0.0661,-0.202573 0.0661,-0.487825 0,-0.396875 -0.13229,-0.607716 -0.12815,-0.214974 -0.31419,-0.285253 -0.13229,-0.05374 -0.42995,-0.05374 h -0.52917 z m 2.22833,0.297656 V 22.72529 h 1.70325 v 0.297656 h -1.36839 v 0.785482 h 1.18236 v 0.297656 h -1.18236 v 1.145151 z"
     id="path17"
     style="fill:#000000;fill-rule:nonzero;stroke:none;stroke-width:0.26458332;stroke-linecap:square;stroke-miterlimit:10" />
  <path
     d="m 160.21492,31.515862 v 0 c 0,-0.82614 0.66972,-1.495864 1.49587,-1.495864 h 31.2416 c 0.39673,0 0.77721,0.157602 1.05773,0.438129 0.28053,0.28053 0.43814,0.661006 0.43814,1.057735 v 5.983275 c 0,0.82614 -0.66973,1.495864 -1.49587,1.495864 h -31.2416 c -0.82614,0 -1.49587,-0.669724 -1.49587,-1.495864 z"
     id="path19"
     style="fill:#cfe2f3;fill-rule:evenodd;stroke:none;stroke-width:0.26458332;stroke-linecap:square;stroke-miterlimit:10" />
  <path
     d="m 160.21492,31.515862 v 0 c 0,-0.82614 0.66972,-1.495864 1.49587,-1.495864 h 31.2416 c 0.39673,0 0.77721,0.157602 1.05773,0.438129 0.28053,0.28053 0.43814,0.661006 0.43814,1.057735 v 5.983275 c 0,0.82614 -0.66973,1.495864 -1.49587,1.495864 h -31.2416 c -0.82614,0 -1.49587,-0.669724 -1.49587,-1.495864 z"
     id="path21"
     style="fill:none;fill-rule:evenodd;stroke:#000000;stroke-width:0.26458332;stroke-linecap:butt;stroke-linejoin:round;stroke-miterlimit:10" />
  <path
     d="m 170.58333,35.341338 0.33486,0.08268 q -0.10335,0.413411 -0.37621,0.628385 -0.27285,0.214974 -0.66972,0.214974 -0.40514,0 -0.66146,-0.165364 -0.25632,-0.165365 -0.39274,-0.479557 -0.13229,-0.314193 -0.13229,-0.677995 0,-0.392742 0.14883,-0.686263 0.15296,-0.293524 0.42994,-0.446485 0.28112,-0.152963 0.61599,-0.152963 0.3762,0 0.63252,0.194304 0.26045,0.19017 0.3638,0.541568 l -0.33073,0.07855 q -0.0868,-0.276987 -0.25631,-0.401011 -0.16537,-0.128156 -0.41755,-0.128156 -0.28939,0 -0.48783,0.14056 -0.1943,0.14056 -0.27285,0.376203 -0.0786,0.23151 -0.0786,0.483693 0,0.322461 0.0909,0.562239 0.0951,0.239779 0.29353,0.359667 0.19843,0.115755 0.42994,0.115755 0.28112,0 0.47543,-0.161229 0.1943,-0.161232 0.26045,-0.479557 z m 0.74832,0.8847 v -2.525945 h 0.95085 q 0.25218,0 0.38447,0.02479 0.18603,0.03307 0.31006,0.119891 0.12815,0.08682 0.20257,0.243911 0.0786,0.157097 0.0786,0.343133 0,0.322461 -0.20671,0.545703 -0.20257,0.223243 -0.74001,0.223243 h -0.64492 v 1.02526 z m 0.33486,-1.322916 h 0.64906 q 0.32659,0 0.46302,-0.119891 0.13642,-0.124023 0.13642,-0.338997 0,-0.16123 -0.0827,-0.272852 -0.0785,-0.11162 -0.21084,-0.148828 -0.0827,-0.02479 -0.31006,-0.02479 h -0.64492 z m 2.02136,1.322916 v -2.525945 h 1.82728 v 0.297656 h -1.49242 v 0.773081 h 1.39733 v 0.297656 h -1.39733 v 0.859896 h 1.55029 v 0.297656 z m 3.22433,-1.227833 q 0,-0.628386 0.339,-0.983919 0.339,-0.355534 0.8723,-0.355534 0.34726,0 0.62838,0.165364 0.28112,0.165365 0.42582,0.467157 0.14883,0.297656 0.14883,0.677994 0,0.380339 -0.1571,0.686263 -0.15296,0.301789 -0.43822,0.458886 -0.28111,0.152963 -0.61184,0.152963 -0.35554,0 -0.63666,-0.1695 -0.28112,-0.173632 -0.42581,-0.471289 -0.1447,-0.297656 -0.1447,-0.628385 z m 0.34727,0.0041 q 0,0.454753 0.24391,0.719336 0.24392,0.260448 0.61599,0.260448 0.3762,0 0.62011,-0.264583 0.24391,-0.264583 0.24391,-0.752409 0,-0.305924 -0.10748,-0.537435 -0.10335,-0.23151 -0.30593,-0.355534 -0.19843,-0.128156 -0.44648,-0.128156 -0.35554,0 -0.61185,0.243912 -0.25218,0.243914 -0.25218,0.814421 z m 3.21838,1.223698 -0.97566,-2.525945 h 0.35967 l 0.65733,1.835547 q 0.0785,0.219109 0.13229,0.413411 0.0579,-0.206705 0.13643,-0.413411 l 0.68212,-1.835547 h 0.339 l -0.98805,2.525945 z m 1.35576,0 0.96738,-2.525945 h 0.35967 l 1.03353,2.525945 h -0.38034 l -0.29352,-0.764812 h -1.0542 l -0.27699,0.764812 z m 0.7276,-1.037664 h 0.85577 l -0.26459,-0.698664 q -0.11989,-0.318328 -0.17776,-0.520898 -0.0496,0.239778 -0.13643,0.479557 z m 1.88492,1.037664 v -2.525945 h 0.33486 v 2.228289 h 1.24437 v 0.297656 z"
     id="path23"
     style="fill:#000000;fill-rule:nonzero;stroke:none;stroke-width:0.26458332;stroke-linecap:square;stroke-miterlimit:10" />
  <path
     d="m 130.58159,31.515862 v 0 c 0,-0.82614 0.66972,-1.495864 1.49587,-1.495864 h 22.54993 c 0.39673,0 0.77721,0.157602 1.05773,0.438129 0.28054,0.28053 0.43814,0.661006 0.43814,1.057735 v 5.983275 c 0,0.82614 -0.66973,1.495864 -1.49587,1.495864 h -22.54993 c -0.82615,0 -1.49587,-0.669724 -1.49587,-1.495864 z"
     id="path25"
     style="fill:#cfe2f3;fill-rule:evenodd;stroke:none;stroke-width:0.26458332;stroke-linecap:square;stroke-miterlimit:10" />
  <path
     d="m 130.58159,31.515862 v 0 c 0,-0.82614 0.66972,-1.495864 1.49587,-1.495864 h 22.54993 c 0.39673,0 0.77721,0.157602 1.05773,0.438129 0.28054,0.28053 0.43814,0.661006 0.43814,1.057735 v 5.983275 c 0,0.82614 -0.66973,1.495864 -1.49587,1.495864 h -22.54993 c -0.82615,0 -1.49587,-0.669724 -1.49587,-1.495864 z"
     id="path27"
     style="fill:none;fill-rule:evenodd;stroke:#000000;stroke-width:0.26458332;stroke-linecap:butt;stroke-linejoin:round;stroke-miterlimit:10" />
  <path
     d="m 141.7982,35.341338 0.33486,0.08268 q -0.10335,0.413411 -0.3762,0.628385 -0.27286,0.214974 -0.66973,0.214974 -0.40514,0 -0.66146,-0.165364 -0.25631,-0.165365 -0.39274,-0.479557 -0.13229,-0.314193 -0.13229,-0.677995 0,-0.392742 0.14882,-0.686263 0.15297,-0.293524 0.42995,-0.446485 0.28112,-0.152963 0.61599,-0.152963 0.3762,0 0.63252,0.194304 0.26045,0.19017 0.3638,0.541568 l -0.33073,0.07855 q -0.0868,-0.276987 -0.25632,-0.401011 -0.16536,-0.128156 -0.41754,-0.128156 -0.28939,0 -0.48783,0.14056 -0.1943,0.14056 -0.27285,0.376203 -0.0786,0.23151 -0.0786,0.483693 0,0.322461 0.091,0.562239 0.0951,0.239779 0.29353,0.359667 0.19843,0.115755 0.42994,0.115755 0.28112,0 0.47543,-0.161229 0.1943,-0.161232 0.26045,-0.479557 z m 0.74832,0.8847 v -2.525945 h 0.95085 q 0.25218,0 0.38447,0.02479 0.18603,0.03307 0.31006,0.119891 0.12815,0.08682 0.20257,0.243911 0.0786,0.157097 0.0786,0.343133 0,0.322461 -0.20671,0.545703 -0.20257,0.223243 -0.74001,0.223243 h -0.64492 v 1.02526 z m 0.33486,-1.322916 h 0.64906 q 0.32659,0 0.46302,-0.119891 0.13642,-0.124023 0.13642,-0.338997 0,-0.16123 -0.0827,-0.272852 -0.0785,-0.11162 -0.21084,-0.148828 -0.0827,-0.02479 -0.31006,-0.02479 h -0.64492 z m 2.02136,1.322916 v -2.525945 h 1.82728 v 0.297656 h -1.49242 v 0.773081 h 1.39733 v 0.297656 h -1.39733 v 0.859896 h 1.55029 v 0.297656 z"
     id="path29"
     style="fill:#000000;fill-rule:nonzero;stroke:none;stroke-width:0.26458332;stroke-linecap:square;stroke-miterlimit:10" />
  <path
     d="m 160.21492,20.03461 v 0 c 0,-0.82614 0.66972,-1.495864 1.49587,-1.495864 h 31.2416 c 0.39673,0 0.77721,0.157601 1.05773,0.438131 0.28053,0.280527 0.43814,0.661006 0.43814,1.057733 v 5.983274 c 0,0.82614 -0.66973,1.495864 -1.49587,1.495864 h -31.2416 c -0.82614,0 -1.49587,-0.669724 -1.49587,-1.495864 z"
     id="path31"
     style="fill:#cfe2f3;fill-rule:evenodd;stroke:none;stroke-width:0.26458332;stroke-linecap:square;stroke-miterlimit:10" />
  <path
     d="m 160.21492,20.03461 v 0 c 0,-0.82614 0.66972,-1.495864 1.49587,-1.495864 h 31.2416 c 0.39673,0 0.77721,0.157601 1.05773,0.438131 0.28053,0.280527 0.43814,0.661006 0.43814,1.057733 v 5.983274 c 0,0.82614 -0.66973,1.495864 -1.49587,1.495864 h -31.2416 c -0.82614,0 -1.49587,-0.669724 -1.49587,-1.495864 z"
     id="path33"
     style="fill:none;fill-rule:evenodd;stroke:#000000;stroke-width:0.26458332;stroke-linecap:butt;stroke-linejoin:round;stroke-miterlimit:10" />
  <path
     d="m 172.79692,23.516955 q 0,-0.628385 0.33899,-0.983919 0.339,-0.355534 0.8723,-0.355534 0.34727,0 0.62839,0.165365 0.28112,0.165364 0.42581,0.467153 0.14883,0.297656 0.14883,0.677995 0,0.380339 -0.1571,0.686263 -0.15296,0.301792 -0.43821,0.458888 -0.28112,0.152961 -0.61185,0.152961 -0.35553,0 -0.63665,-0.169497 -0.28112,-0.173633 -0.42582,-0.471289 -0.14469,-0.297657 -0.14469,-0.628386 z m 0.34726,0.0041 q 0,0.454752 0.24391,0.719336 0.24392,0.26045 0.61599,0.26045 0.3762,0 0.62012,-0.264583 0.24391,-0.264584 0.24391,-0.752409 0,-0.305925 -0.10749,-0.537435 -0.10335,-0.23151 -0.30592,-0.355534 -0.19844,-0.128159 -0.44649,-0.128159 -0.35553,0 -0.61185,0.243914 -0.25218,0.243912 -0.25218,0.81442 z m 3.21838,1.223698 -0.97565,-2.525943 h 0.35967 l 0.65732,1.835547 q 0.0786,0.219106 0.13229,0.413411 0.0579,-0.206706 0.13643,-0.413411 l 0.68213,-1.835547 h 0.33899 l -0.98805,2.525943 z m 1.35576,0 0.96739,-2.525943 h 0.35966 l 1.03353,2.525943 h -0.38034 l -0.29352,-0.76481 h -1.0542 l -0.27698,0.76481 z m 0.72761,-1.037662 h 0.85576 l -0.26459,-0.698667 q -0.11988,-0.318325 -0.17776,-0.520898 -0.0496,0.239779 -0.13643,0.479557 z m 1.88491,1.037662 V 22.21881 h 0.33487 v 2.228286 h 1.24436 v 0.297657 z"
     id="path35"
     style="fill:#000000;fill-rule:nonzero;stroke:none;stroke-width:0.26458332;stroke-linecap:square;stroke-miterlimit:10" />
  <path
     d="M 0.13229,16.468339 H 47.71562 V 30.043337 H 0.13229 Z"
     id="path37"
     style="fill:#fff2cc;fill-rule:evenodd;stroke:none;stroke-width:0.26458332;stroke-linecap:square;stroke-miterlimit:10" />
  <path
     d="M 0.13229,16.468339 H 47.71562 V 30.043337 H 0.13229 Z"
     id="path39"
     style="fill:none;fill-rule:evenodd;stroke:#000000;stroke-width:0.26458332;stroke-linecap:butt;stroke-linejoin:round;stroke-miterlimit:10" />
  <path
     d="M 8.6426859,25.584165 V 24.513428 L 7.6670365,23.05822 h 0.4092797 l 0.4960997,0.760677 c 0.09095,0.143316 0.176383,0.286632 0.25631,0.429948 0.07717,-0.132292 0.1694997,-0.28112 0.2769797,-0.446484 L 9.5935353,23.05822 h 0.38861 l -1.0045897,1.455208 v 1.070737 z m 1.3640291,0 0.96738,-2.525945 h 0.35967 l 1.03353,2.525945 h -0.38034 l -0.29352,-0.764812 h -1.0542 l -0.27699,0.764812 z m 0.7276,-1.037664 h 0.85577 l -0.26459,-0.698664 c -0.07993,-0.212219 -0.139183,-0.385851 -0.17777,-0.520898 -0.03307,0.159852 -0.07854,0.319704 -0.13642,0.479557 z m 1.88906,1.037664 V 23.05822 h 0.50437 l 0.59531,1.790073 c 0.05513,0.165365 0.09647,0.289388 0.12402,0.37207 0.02753,-0.09095 0.07163,-0.225999 0.13229,-0.405143 l 0.60358,-1.757 h 0.45062 v 2.525945 h -0.32246 v -2.112534 l -0.73174,2.112534 h -0.30179 l -0.73173,-2.149739 v 2.149739 z m 2.93339,0 V 23.05822 h 0.33486 v 2.228289 h 1.24437 v 0.297656 z m 2.91202,0 v -1.827278 h 0.28112 v 0.276984 c 0.07166,-0.129535 0.13643,-0.214973 0.19431,-0.256315 0.06067,-0.04134 0.12819,-0.06201 0.20257,-0.06201 0.104727,0 0.210837,0.03307 0.31833,0.09922 l -0.10749,0.285253 c -0.07717,-0.0441 -0.152967,-0.06615 -0.22738,-0.06615 -0.0689,0 -0.13091,0.02067 -0.18603,0.06201 -0.0524,0.04134 -0.08961,0.09784 -0.11163,0.169497 -0.0358,0.110243 -0.0537,0.230133 -0.0537,0.35967 v 0.959114 z m 2.37735,0 v -0.268719 c -0.143313,0.206707 -0.33624,0.31006 -0.57878,0.31006 -0.107487,0 -0.208083,-0.02067 -0.30179,-0.06201 -0.09371,-0.04134 -0.163987,-0.09233 -0.21084,-0.152961 -0.04407,-0.06339 -0.07577,-0.140563 -0.0951,-0.23151 -0.011,-0.06063 -0.0165,-0.157096 -0.0165,-0.289388 V 23.75689 h 0.31006 v 1.012856 c 0,0.162609 0.0055,0.271475 0.0165,0.326597 0.01927,0.08268 0.06061,0.147449 0.12403,0.194302 0.0634,0.0441 0.141947,0.06615 0.23564,0.06615 0.09095,0 0.17777,-0.02343 0.26045,-0.07028 0.08268,-0.04685 0.140557,-0.111622 0.17363,-0.194305 0.03307,-0.08268 0.0496,-0.201193 0.0496,-0.355534 v -0.979783 h 0.31006 v 1.827278 z m 0.75819,0 V 23.05822 h 0.31006 v 2.525945 z m 2.04023,-0.587044 0.31832,0.03721 c -0.0496,0.187413 -0.143307,0.333485 -0.28112,0.438216 -0.135047,0.101975 -0.308677,0.152963 -0.52089,0.152963 -0.26734,0 -0.47956,-0.08268 -0.63666,-0.248047 -0.157093,-0.165364 -0.23564,-0.395497 -0.23564,-0.690398 0,-0.308681 0.07855,-0.547081 0.23564,-0.7152 0.159853,-0.170877 0.36656,-0.256316 0.62012,-0.256316 0.245287,0 0.4451,0.08268 0.59944,0.248047 0.15434,0.165365 0.23151,0.399631 0.23151,0.7028 v 0.08268 h -1.36425 c 0.011,0.201193 0.0675,0.355533 0.1695,0.463021 0.101973,0.104731 0.228753,0.157096 0.38034,0.157096 0.115753,0 0.213593,-0.02894 0.29352,-0.08682 0.07993,-0.06063 0.143317,-0.155717 0.19017,-0.285252 z m -1.017,-0.504362 h 1.02113 c -0.0138,-0.151585 -0.05238,-0.265963 -0.11575,-0.343133 -0.09922,-0.121267 -0.22738,-0.181901 -0.38448,-0.181901 -0.143313,0 -0.2632,0.04823 -0.35966,0.144695 -0.09647,0.09371 -0.150213,0.220486 -0.16124,0.380339 z"
     id="path41"
     style="fill:#000000;fill-rule:nonzero;stroke:none;stroke-width:0.26458332;stroke-linecap:square;stroke-miterlimit:10" />
  <path
     d="m 25.799749,25.58417 v -1.827278 h 0.27699 v 0.256315 q 0.0868,-0.136427 0.22737,-0.214974 0.1447,-0.08268 0.3266,-0.08268 0.2067,0 0.33486,0.08268 0.12816,0.08268 0.1819,0.235643 0.21911,-0.318325 0.56637,-0.318325 0.27286,0 0.41755,0.152961 0.14883,0.148828 0.14883,0.458888 v 1.25677 h -0.31006 v -1.153419 q 0,-0.186034 -0.0331,-0.264583 -0.0289,-0.08268 -0.10749,-0.132292 -0.0786,-0.04961 -0.18603,-0.04961 -0.19017,0 -0.31833,0.128159 -0.12816,0.128156 -0.12816,0.409276 v 1.062468 h -0.31006 v -1.186492 q 0,-0.206705 -0.0786,-0.310057 -0.0744,-0.103354 -0.24391,-0.103354 -0.13229,0 -0.24391,0.07028 -0.11162,0.06615 -0.16123,0.198438 -0.0496,0.132291 -0.0496,0.384471 v 0.946713 z m 4.19016,-0.587044 0.31832,0.03721 q -0.0744,0.28112 -0.28112,0.438216 -0.20257,0.152964 -0.5209,0.152964 -0.40101,0 -0.63665,-0.248047 -0.23564,-0.248047 -0.23564,-0.690399 0,-0.463021 0.23564,-0.7152 0.23978,-0.256315 0.62012,-0.256315 0.36793,0 0.59944,0.248047 0.23151,0.248046 0.23151,0.702799 0,0.02894 0,0.08268 h -1.36425 q 0.0165,0.301789 0.1695,0.463021 0.15296,0.157097 0.38033,0.157097 0.17364,0 0.29353,-0.08682 0.11989,-0.09095 0.19017,-0.285253 z m -1.017,-0.504362 h 1.02113 q -0.0207,-0.227377 -0.11576,-0.343133 -0.14882,-0.181901 -0.38447,-0.181901 -0.21497,0 -0.35967,0.144696 -0.14469,0.14056 -0.16123,0.380338 z m 2.40357,0.814419 0.0455,0.272852 q -0.13229,0.02894 -0.23564,0.02894 -0.1695,0 -0.26459,-0.05374 -0.091,-0.05374 -0.12815,-0.14056 -0.0372,-0.08681 -0.0372,-0.367934 v -1.050066 h -0.22738 v -0.239778 h 0.22738 v -0.454753 l 0.31005,-0.186036 v 0.640789 h 0.31006 v 0.239778 h -0.31006 v 1.070735 q 0,0.132292 0.0124,0.1695 0.0165,0.03721 0.0537,0.06201 0.0372,0.02066 0.10749,0.02066 0.0537,0 0.13643,-0.01241 z m 1.49651,0.04961 q -0.17363,0.148828 -0.33486,0.210841 -0.15709,0.05788 -0.339,0.05788 -0.30179,0 -0.46302,-0.144696 -0.16123,-0.148828 -0.16123,-0.380338 0,-0.132292 0.0579,-0.243912 0.062,-0.111622 0.16123,-0.177768 0.0992,-0.06615 0.22325,-0.103351 0.091,-0.02066 0.27698,-0.04548 0.37621,-0.04547 0.55397,-0.107487 0,-0.06201 0,-0.07855 0,-0.190169 -0.0868,-0.268719 -0.11989,-0.103351 -0.35553,-0.103351 -0.21498,0 -0.32246,0.07855 -0.10336,0.07441 -0.15297,0.268718 l -0.30179,-0.04134 q 0.0413,-0.194304 0.13643,-0.314192 0.0951,-0.119891 0.27285,-0.181901 0.17777,-0.06615 0.41341,-0.06615 0.23565,0 0.38034,0.05374 0.14883,0.05374 0.21497,0.14056 0.0703,0.08268 0.0992,0.210841 0.0124,0.07855 0.0124,0.285253 v 0.413411 q 0,0.429948 0.0207,0.545703 0.0207,0.115755 0.0786,0.219109 h -0.32246 q -0.0496,-0.09508 -0.062,-0.227377 z m -0.0248,-0.690396 q -0.16949,0.07028 -0.50849,0.115755 -0.19017,0.02894 -0.26872,0.06615 -0.0786,0.03307 -0.12402,0.09922 -0.0413,0.06615 -0.0413,0.144693 0,0.124023 0.091,0.206705 0.0951,0.08268 0.27698,0.08268 0.17777,0 0.31833,-0.07855 0.14056,-0.07855 0.2067,-0.214974 0.0496,-0.103354 0.0496,-0.31006 z m 1.97776,0.917773 v -0.23151 q -0.17363,0.272852 -0.51263,0.272852 -0.21498,0 -0.40101,-0.119891 -0.1819,-0.119888 -0.28525,-0.334862 -0.0992,-0.219109 -0.0992,-0.500229 0,-0.272852 0.0909,-0.496094 0.091,-0.223242 0.27285,-0.338997 0.18603,-0.119888 0.40927,-0.119888 0.16537,0 0.29353,0.07028 0.13229,0.06615 0.21084,0.177769 v -0.905373 h 0.31006 v 2.525945 z m -0.97979,-0.91364 q 0,0.351401 0.14883,0.525034 0.14883,0.173633 0.3514,0.173633 0.20257,0 0.34313,-0.165365 0.14056,-0.165365 0.14056,-0.504362 0,-0.376206 -0.14469,-0.549839 -0.1447,-0.177765 -0.35554,-0.177765 -0.2067,0 -0.34726,0.169497 -0.13643,0.165365 -0.13643,0.529167 z m 2.94927,0.686263 q -0.17363,0.148828 -0.33486,0.210841 -0.15709,0.05788 -0.339,0.05788 -0.30179,0 -0.46302,-0.144696 -0.16123,-0.148828 -0.16123,-0.380338 0,-0.132292 0.0579,-0.243912 0.062,-0.111622 0.16123,-0.177768 0.0992,-0.06615 0.22325,-0.103351 0.091,-0.02066 0.27698,-0.04548 0.37621,-0.04547 0.55397,-0.107487 0,-0.06201 0,-0.07855 0,-0.190169 -0.0868,-0.268719 -0.11989,-0.103351 -0.35553,-0.103351 -0.21498,0 -0.32246,0.07855 -0.10336,0.07441 -0.15297,0.268718 l -0.30179,-0.04134 q 0.0413,-0.194304 0.13643,-0.314192 0.0951,-0.119891 0.27285,-0.181901 0.17777,-0.06615 0.41341,-0.06615 0.23565,0 0.38034,0.05374 0.14883,0.05374 0.21497,0.14056 0.0703,0.08268 0.0992,0.210841 0.0124,0.07855 0.0124,0.285253 v 0.413411 q 0,0.429948 0.0207,0.545703 0.0207,0.115755 0.0786,0.219109 h -0.32246 q -0.0496,-0.09508 -0.062,-0.227377 z m -0.0248,-0.690396 q -0.16949,0.07028 -0.50849,0.115755 -0.19017,0.02894 -0.26872,0.06615 -0.0786,0.03307 -0.12402,0.09922 -0.0413,0.06615 -0.0413,0.144693 0,0.124023 0.0909,0.206705 0.0951,0.08268 0.27698,0.08268 0.17777,0 0.31833,-0.07855 0.14056,-0.07855 0.20671,-0.214974 0.0496,-0.103354 0.0496,-0.31006 z m 1.46926,0.640786 0.0455,0.272852 q -0.13229,0.02894 -0.23564,0.02894 -0.1695,0 -0.26459,-0.05374 -0.0909,-0.05374 -0.12815,-0.14056 -0.0372,-0.08681 -0.0372,-0.367934 v -1.050066 h -0.22738 v -0.239778 h 0.22738 v -0.454753 l 0.31006,-0.186036 v 0.640789 h 0.31005 v 0.239778 h -0.31005 v 1.070735 q 0,0.132292 0.0124,0.1695 0.0165,0.03721 0.0537,0.06201 0.0372,0.02066 0.10748,0.02066 0.0537,0 0.13643,-0.01241 z m 1.49651,0.04961 q -0.17363,0.148828 -0.33486,0.210841 -0.15709,0.05788 -0.339,0.05788 -0.30178,0 -0.46302,-0.144696 -0.16123,-0.148828 -0.16123,-0.380338 0,-0.132292 0.0579,-0.243912 0.062,-0.111622 0.16123,-0.177768 0.0992,-0.06615 0.22325,-0.103351 0.0909,-0.02066 0.27698,-0.04548 0.3762,-0.04547 0.55397,-0.107487 0,-0.06201 0,-0.07855 0,-0.190169 -0.0868,-0.268719 -0.11989,-0.103351 -0.35553,-0.103351 -0.21497,0 -0.32246,0.07855 -0.10335,0.07441 -0.15296,0.268718 l -0.30179,-0.04134 q 0.0413,-0.194304 0.13642,-0.314192 0.0951,-0.119891 0.27286,-0.181901 0.17776,-0.06615 0.4134,-0.06615 0.23565,0 0.38034,0.05374 0.14883,0.05374 0.21498,0.14056 0.0703,0.08268 0.0992,0.210841 0.0124,0.07855 0.0124,0.285253 v 0.413411 q 0,0.429948 0.0207,0.545703 0.0207,0.115755 0.0786,0.219109 h -0.32246 q -0.0496,-0.09508 -0.062,-0.227377 z m -0.0248,-0.690396 q -0.1695,0.07028 -0.50849,0.115755 -0.19017,0.02894 -0.26872,0.06615 -0.0786,0.03307 -0.12402,0.09922 -0.0413,0.06615 -0.0413,0.144693 0,0.124023 0.091,0.206705 0.0951,0.08268 0.27698,0.08268 0.17777,0 0.31833,-0.07855 0.14056,-0.07855 0.2067,-0.214974 0.0496,-0.103354 0.0496,-0.31006 z"
     id="path43"
     style="fill:#000000;fill-rule:nonzero;stroke:none;stroke-width:0.26458332;stroke-linecap:square;stroke-miterlimit:10" />
  <path
     d="M 0.13229,32.020423 H 47.71562 V 44.487087 H 0.13229 Z"
     id="path45"
     style="fill:#fff2cc;fill-rule:evenodd;stroke:none;stroke-width:0.26458332;stroke-linecap:square;stroke-miterlimit:10" />
  <path
     d="M 0.13229,32.020423 H 47.71562 V 44.487087 H 0.13229 Z"
     id="path47"
     style="fill:none;fill-rule:evenodd;stroke:#000000;stroke-width:0.26458332;stroke-linecap:butt;stroke-linejoin:round;stroke-miterlimit:10" />
  <path
     d="m 7.23628,38.295921 q 0,-0.628385 0.339,-0.983919 0.339,-0.355534 0.8723,-0.355534 0.34726,0 0.62838,0.165365 0.28112,0.165364 0.42582,0.467153 0.14883,0.297657 0.14883,0.677995 0,0.380339 -0.1571,0.686263 -0.15296,0.301792 -0.43822,0.458888 -0.28112,0.152961 -0.61185,0.152961 -0.35553,0 -0.63665,-0.169497 Q 7.52567,39.221963 7.38098,38.924307 7.23628,38.62665 7.23628,38.295921 Z m 0.34727,0.0041 q 0,0.454752 0.24391,0.719336 0.24391,0.26045 0.61598,0.26045 0.37621,0 0.62012,-0.264583 0.24391,-0.264583 0.24391,-0.752409 0,-0.305924 -0.10748,-0.537435 -0.10336,-0.23151 -0.30593,-0.355534 -0.19844,-0.128159 -0.44648,-0.128159 -0.35554,0 -0.61185,0.243915 -0.25218,0.243911 -0.25218,0.814419 z m 3.21837,1.223698 -0.97565,-2.525943 h 0.35967 l 0.65732,1.835547 q 0.0786,0.219107 0.13229,0.413411 0.0579,-0.206705 0.13643,-0.413411 l 0.68213,-1.835547 h 0.33899 l -0.98805,2.525943 z m 1.35576,0 0.96738,-2.525943 h 0.35967 l 1.03353,2.525943 h -0.38034 l -0.29352,-0.76481 h -1.0542 l -0.27699,0.76481 z m 0.7276,-1.037662 h 0.85577 l -0.26459,-0.698666 q -0.11989,-0.318326 -0.17777,-0.520899 -0.0496,0.239779 -0.13642,0.479557 z m 1.88493,1.037662 v -2.525943 h 0.33486 v 2.228286 h 1.24437 v 0.297657 z m 4.11092,-0.669727 0.30593,0.04134 q -0.0496,0.314193 -0.25632,0.491961 -0.20671,0.177766 -0.5085,0.177766 -0.37207,0 -0.60358,-0.243912 -0.22737,-0.248046 -0.22737,-0.702799 0,-0.297656 0.0992,-0.520898 0.0992,-0.223243 0.29765,-0.33073 0.20258,-0.111622 0.43822,-0.111622 0.29766,0 0.48783,0.152963 0.19017,0.148829 0.24391,0.425813 l -0.30179,0.04548 q -0.0455,-0.186037 -0.1571,-0.276987 -0.10749,-0.09508 -0.26045,-0.09508 -0.23564,0 -0.38447,0.169498 -0.14469,0.1695 -0.14469,0.529166 0,0.372071 0.14056,0.537435 0.14469,0.165365 0.37207,0.165365 0.1819,0 0.30179,-0.11162 0.12402,-0.111622 0.15709,-0.343133 z m 0.56844,0.669727 v -2.525943 h 0.31006 v 0.90537 q 0.21911,-0.248047 0.54984,-0.248047 0.20257,0 0.3514,0.07855 0.14883,0.07855 0.21497,0.223243 0.0661,0.14056 0.0661,0.409276 v 1.157552 h -0.31006 v -1.157552 q 0,-0.235644 -0.10335,-0.338998 -0.0992,-0.107487 -0.28525,-0.107487 -0.13643,0 -0.26045,0.07441 -0.11989,0.07028 -0.17364,0.194305 -0.0496,0.119888 -0.0496,0.334862 v 1.000456 z m 3.21386,-0.587045 0.31832,0.03721 q -0.0744,0.28112 -0.28112,0.438216 -0.20257,0.152961 -0.5209,0.152961 -0.401,0 -0.63665,-0.248047 -0.23564,-0.248047 -0.23564,-0.690396 0,-0.463021 0.23564,-0.715203 0.23978,-0.256315 0.62012,-0.256315 0.36793,0 0.59944,0.248047 0.23151,0.248047 0.23151,0.702799 0,0.02894 0,0.08268 H 21.6299 q 0.0165,0.301791 0.1695,0.46302 0.15296,0.157097 0.38033,0.157097 0.17364,0 0.29353,-0.08682 0.11989,-0.09095 0.19017,-0.285256 z m -1.017,-0.504334 h 1.02113 q -0.0207,-0.227375 -0.11576,-0.34313 -0.14882,-0.181901 -0.38447,-0.181901 -0.21497,0 -0.35967,0.144693 -0.14469,0.14056 -0.16123,0.380338 z m 2.92034,0.42168 0.30592,0.04134 q -0.0496,0.314193 -0.25631,0.491961 -0.20671,0.177766 -0.5085,0.177766 -0.37207,0 -0.60358,-0.243912 -0.22738,-0.248046 -0.22738,-0.702799 0,-0.297656 0.0992,-0.520898 0.0992,-0.223243 0.29766,-0.33073 0.20257,-0.111622 0.43821,-0.111622 0.29766,0 0.48783,0.152963 0.19017,0.148829 0.24391,0.425813 l -0.30179,0.04548 q -0.0455,-0.186037 -0.15709,-0.276987 -0.10749,-0.09508 -0.26045,-0.09508 -0.23565,0 -0.38448,0.169498 -0.14469,0.1695 -0.14469,0.529166 0,0.372071 0.14056,0.537435 0.14469,0.165365 0.37207,0.165365 0.1819,0 0.30179,-0.11162 0.12402,-0.111622 0.1571,-0.343133 z m 0.57257,0.669727 v -2.525943 h 0.31006 v 1.442805 l 0.73174,-0.744141 h 0.40101 l -0.69867,0.677995 0.76895,1.149284 h -0.38034 l -0.60358,-0.93431 -0.21911,0.210841 v 0.723469 z m 2.61479,-0.545703 0.30593,-0.04961 q 0.0289,0.186037 0.14469,0.285255 0.11989,0.09508 0.33073,0.09508 0.21497,0 0.31833,-0.08682 0.10335,-0.08682 0.10335,-0.202573 0,-0.103352 -0.0951,-0.165365 -0.062,-0.04134 -0.31419,-0.103351 -0.34313,-0.08682 -0.47543,-0.148829 -0.12815,-0.06615 -0.19843,-0.173632 -0.0661,-0.111623 -0.0661,-0.248047 0,-0.119891 0.0537,-0.223242 0.0579,-0.107487 0.15296,-0.177769 0.0744,-0.04961 0.19843,-0.08682 0.12403,-0.03721 0.26872,-0.03721 0.21498,0 0.37621,0.06201 0.16123,0.06201 0.23978,0.169497 0.0786,0.103355 0.10748,0.28112 l -0.30179,0.04134 q -0.0207,-0.14056 -0.11989,-0.219106 -0.0992,-0.08268 -0.28112,-0.08268 -0.21497,0 -0.30592,0.07028 -0.091,0.07028 -0.091,0.165364 0,0.06201 0.0372,0.111623 0.0413,0.04961 0.11989,0.08268 0.0455,0.01654 0.27285,0.07855 0.33073,0.08682 0.45889,0.144695 0.13229,0.05374 0.2067,0.161229 0.0744,0.107487 0.0744,0.264584 0,0.157096 -0.091,0.293523 -0.091,0.136425 -0.26458,0.210839 -0.1695,0.07441 -0.38448,0.07441 -0.35553,0 -0.54156,-0.148828 -0.18604,-0.148828 -0.23978,-0.438216 z m 1.88723,0.545703 v -1.827279 h 0.28112 v 0.260451 q 0.19843,-0.301792 0.57877,-0.301792 0.16537,0 0.30593,0.05788 0.14056,0.05788 0.2067,0.157096 0.0703,0.09509 0.0992,0.227378 0.0165,0.08682 0.0165,0.301789 v 1.124479 h -0.31006 v -1.112076 q 0,-0.190169 -0.0372,-0.28112 -0.0372,-0.09509 -0.12816,-0.148828 -0.0909,-0.05788 -0.21497,-0.05788 -0.19844,0 -0.34313,0.124023 -0.1447,0.124024 -0.1447,0.475422 v 1.000456 z m 1.96535,-2.166276 v -0.359667 h 0.31006 v 0.359667 z m 0,2.166276 v -1.827279 h 0.31006 v 1.827279 z m 0.77932,0.702799 v -2.530078 h 0.28525 v 0.235646 q 0.0992,-0.14056 0.22324,-0.206706 0.12816,-0.07028 0.30593,-0.07028 0.23151,0 0.40928,0.119891 0.1819,0.119888 0.27284,0.338997 0.091,0.219107 0.091,0.48369 0,0.276987 -0.0992,0.504362 -0.0992,0.223242 -0.29352,0.343133 -0.19017,0.119888 -0.40514,0.119888 -0.15296,0 -0.27698,-0.06615 -0.12403,-0.06615 -0.20258,-0.165365 v 0.892969 z m 0.28112,-1.608169 q 0,0.355534 0.14056,0.525031 0.14469,0.165365 0.34726,0.165365 0.20671,0 0.35554,-0.173633 0.14883,-0.173633 0.14883,-0.541568 0,-0.347265 -0.1447,-0.520898 -0.14469,-0.177768 -0.34313,-0.177768 -0.19844,0 -0.3514,0.186036 -0.15296,0.186034 -0.15296,0.537435 z m 1.68009,1.608169 v -2.530078 h 0.28525 v 0.235646 q 0.0992,-0.14056 0.22325,-0.206706 0.12816,-0.07028 0.30592,-0.07028 0.23151,0 0.40928,0.119891 0.1819,0.119888 0.27285,0.338997 0.0909,0.219107 0.0909,0.48369 0,0.276987 -0.0992,0.504362 -0.0992,0.223242 -0.29352,0.343133 -0.19017,0.119888 -0.40515,0.119888 -0.15296,0 -0.27698,-0.06615 -0.12402,-0.06615 -0.20257,-0.165365 v 0.892969 z m 0.28112,-1.608169 q 0,0.355534 0.14056,0.525031 0.14469,0.165365 0.34727,0.165365 0.2067,0 0.35553,-0.173633 0.14883,-0.173633 0.14883,-0.541568 0,-0.347265 -0.1447,-0.520898 -0.14469,-0.177768 -0.34313,-0.177768 -0.19843,0 -0.3514,0.186036 -0.15296,0.186034 -0.15296,0.537435 z m 2.93274,0.318325 0.31832,0.03721 q -0.0744,0.28112 -0.28112,0.438216 -0.20257,0.152961 -0.52089,0.152961 -0.40101,0 -0.63666,-0.248047 -0.23564,-0.248047 -0.23564,-0.690396 0,-0.463021 0.23564,-0.715203 0.23978,-0.256315 0.62012,-0.256315 0.36794,0 0.59945,0.248047 0.23151,0.248047 0.23151,0.702799 0,0.02894 0,0.08268 h -1.36426 q 0.0165,0.301791 0.1695,0.46302 0.15296,0.157097 0.38034,0.157097 0.17363,0 0.29352,-0.08682 0.11989,-0.09095 0.19017,-0.285256 z M 36.54411,38.43234 h 1.02112 q -0.0207,-0.227375 -0.11575,-0.34313 -0.14883,-0.181901 -0.38448,-0.181901 -0.21497,0 -0.35966,0.144693 -0.1447,0.14056 -0.16123,0.380338 z m 2.40356,0.814422 0.0455,0.272852 q -0.13229,0.02894 -0.23564,0.02894 -0.1695,0 -0.26458,-0.05374 -0.0909,-0.05374 -0.12816,-0.14056 -0.0372,-0.08682 -0.0372,-0.367937 v -1.050065 h -0.22738 v -0.239779 h 0.22738 V 37.24172 l 0.31006,-0.186033 v 0.640786 h 0.31006 v 0.239779 h -0.31006 v 1.070737 q 0,0.132291 0.0124,0.169497 0.0165,0.03721 0.0537,0.06201 0.0372,0.02066 0.10748,0.02066 0.0537,0 0.13643,-0.01241 z m 0.17774,-0.268718 0.30592,-0.04961 q 0.0289,0.186037 0.14469,0.285255 0.1199,0.09508 0.33073,0.09508 0.21498,0 0.31833,-0.08682 0.10335,-0.08682 0.10335,-0.202573 0,-0.103352 -0.0951,-0.165365 -0.062,-0.04134 -0.31419,-0.103351 -0.34313,-0.08682 -0.47542,-0.148829 -0.12816,-0.06615 -0.19844,-0.173632 -0.0661,-0.111623 -0.0661,-0.248047 0,-0.119891 0.0537,-0.223242 0.0579,-0.107487 0.15296,-0.177769 0.0744,-0.04961 0.19844,-0.08682 0.12402,-0.03721 0.26872,-0.03721 0.21497,0 0.3762,0.06201 0.16123,0.06201 0.23978,0.169497 0.0785,0.103355 0.10748,0.28112 l -0.30178,0.04134 q -0.0207,-0.14056 -0.1199,-0.219106 -0.0992,-0.08268 -0.28112,-0.08268 -0.21497,0 -0.30592,0.07028 -0.091,0.07028 -0.091,0.165364 0,0.06201 0.0372,0.111623 0.0413,0.04961 0.11989,0.08268 0.0455,0.01654 0.27285,0.07855 0.33073,0.08682 0.45889,0.144695 0.13229,0.05374 0.2067,0.161229 0.0744,0.107487 0.0744,0.264584 0,0.157096 -0.091,0.293523 -0.0909,0.136425 -0.26458,0.210839 -0.1695,0.07441 -0.38447,0.07441 -0.35554,0 -0.54157,-0.148828 -0.18604,-0.148828 -0.23978,-0.438216 z"
     id="path49"
     style="fill:#000000;fill-rule:nonzero;stroke:none;stroke-width:0.26458332;stroke-linecap:square;stroke-miterlimit:10" />
  <path
     d="M 0.13229,46.652217 H 47.71562 V 59.118886 H 0.13229 Z"
     id="path51"
     style="fill:#fff2cc;fill-rule:evenodd;stroke:none;stroke-width:0.26458332;stroke-linecap:square;stroke-miterlimit:10" />
  <path
     d="M 0.13229,46.652217 H 47.71562 V 59.118886 H 0.13229 Z"
     id="path53"
     style="fill:none;fill-rule:evenodd;stroke:#000000;stroke-width:0.26458332;stroke-linecap:butt;stroke-linejoin:round;stroke-miterlimit:10" />
  <path
     d="m 10.85122,54.155549 v -2.525945 h 0.95085 q 0.28938,0 0.46302,0.07855 0.17363,0.07441 0.27285,0.235643 0.0992,0.161232 0.0992,0.334865 0,0.161229 -0.091,0.305924 -0.0868,0.14056 -0.26045,0.227375 0.22738,0.06615 0.3514,0.231511 0.12402,0.161232 0.12402,0.380338 0,0.177769 -0.0786,0.33073 -0.0744,0.152963 -0.18603,0.235645 -0.10749,0.08268 -0.27285,0.124024 -0.16537,0.04134 -0.40928,0.04134 z m 0.33486,-1.463477 h 0.54571 q 0.22324,0 0.31832,-0.02894 0.12816,-0.03721 0.19017,-0.124023 0.0661,-0.09095 0.0661,-0.223242 0,-0.124024 -0.062,-0.219107 -0.0579,-0.09509 -0.1695,-0.132292 -0.11162,-0.03721 -0.38447,-0.03721 h -0.50437 z m 0,1.165821 h 0.62839 q 0.16123,0 0.22738,-0.01241 0.11575,-0.02066 0.1943,-0.06615 0.0786,-0.04961 0.12816,-0.14056 0.0496,-0.09508 0.0496,-0.214974 0,-0.14056 -0.0744,-0.243911 -0.0703,-0.107487 -0.19844,-0.148828 -0.12816,-0.04134 -0.37207,-0.04134 h -0.58291 z m 3.18718,0.07028 q -0.17364,0.148827 -0.33487,0.21084 -0.15709,0.05788 -0.33899,0.05788 -0.30179,0 -0.46303,-0.144695 -0.16123,-0.148828 -0.16123,-0.380339 0,-0.132291 0.0579,-0.243911 0.062,-0.111623 0.16123,-0.177768 0.0992,-0.06615 0.22325,-0.103352 0.091,-0.02066 0.27698,-0.04548 0.37621,-0.04547 0.55397,-0.107487 0,-0.06201 0,-0.07855 0,-0.19017 -0.0868,-0.268719 -0.11989,-0.103352 -0.35553,-0.103352 -0.21497,0 -0.32246,0.07855 -0.10335,0.07441 -0.15296,0.268719 l -0.30179,-0.04134 q 0.0413,-0.194305 0.13642,-0.314193 0.0951,-0.119891 0.27285,-0.181901 0.17777,-0.06615 0.41341,-0.06615 0.23565,0 0.38034,0.05374 0.14883,0.05374 0.21498,0.14056 0.0703,0.08268 0.0992,0.210841 0.0124,0.07855 0.0124,0.285253 v 0.413411 q 0,0.429948 0.0207,0.545704 0.0207,0.115755 0.0786,0.219109 h -0.32246 q -0.0496,-0.09509 -0.062,-0.227378 z m -0.0248,-0.690395 q -0.1695,0.07028 -0.5085,0.115755 -0.19017,0.02894 -0.26872,0.06615 -0.0786,0.03307 -0.12402,0.09922 -0.0413,0.06615 -0.0413,0.144693 0,0.124023 0.091,0.206706 0.0951,0.08268 0.27698,0.08268 0.17777,0 0.31833,-0.07855 0.14056,-0.07855 0.20671,-0.214974 0.0496,-0.103354 0.0496,-0.31006 z m 0.66724,0.37207 0.30592,-0.04961 q 0.0289,0.186033 0.1447,0.285252 0.11988,0.09509 0.33072,0.09509 0.21498,0 0.31833,-0.08682 0.10335,-0.08682 0.10335,-0.20257 0,-0.103354 -0.0951,-0.165365 -0.062,-0.04134 -0.31419,-0.103354 -0.34313,-0.08682 -0.47542,-0.148828 -0.12816,-0.06615 -0.19844,-0.173633 -0.0661,-0.111619 -0.0661,-0.248047 0,-0.119888 0.0537,-0.223242 0.0579,-0.107487 0.15296,-0.177765 0.0744,-0.04961 0.19844,-0.08682 0.12402,-0.03721 0.26872,-0.03721 0.21497,0 0.3762,0.06201 0.16123,0.06201 0.23978,0.1695 0.0786,0.103351 0.10749,0.281119 l -0.30179,0.04134 q -0.0207,-0.14056 -0.11989,-0.21911 -0.0992,-0.08268 -0.28112,-0.08268 -0.21498,0 -0.30593,0.07028 -0.091,0.07028 -0.091,0.165365 0,0.06201 0.0372,0.11162 0.0413,0.04961 0.11989,0.08268 0.0455,0.01654 0.27285,0.07855 0.33073,0.08682 0.45889,0.144693 0.13229,0.05374 0.20671,0.161232 0.0744,0.107487 0.0744,0.264583 0,0.157096 -0.091,0.293521 -0.0909,0.136427 -0.26459,0.210841 -0.1695,0.07441 -0.38447,0.07441 -0.35553,0 -0.54157,-0.148828 -0.18603,-0.148828 -0.23978,-0.438216 z m 1.88722,0.545703 v -2.525945 h 0.31006 v 0.905372 q 0.21911,-0.248047 0.54984,-0.248047 0.20257,0 0.3514,0.07855 0.14882,0.07855 0.21497,0.223242 0.0661,0.14056 0.0661,0.409279 v 1.157552 h -0.31006 v -1.157552 q 0,-0.235646 -0.10335,-0.338997 -0.0992,-0.107487 -0.28526,-0.107487 -0.13642,0 -0.26045,0.07441 -0.11988,0.07028 -0.17363,0.194302 -0.0496,0.11989 -0.0496,0.334864 v 1.000456 z m 3.01538,0 v -1.5875 H 19.64544 V 52.32827 h 0.27286 v -0.194304 q 0,-0.186034 0.0331,-0.276985 0.0455,-0.11989 0.15709,-0.194304 0.11162,-0.07441 0.31833,-0.07441 0.12816,0 0.28939,0.02894 l -0.0496,0.272851 q -0.0951,-0.01654 -0.1819,-0.01654 -0.14056,0 -0.19844,0.06201 -0.0579,0.05788 -0.0579,0.223242 v 0.1695 h 0.35553 v 0.239779 h -0.35553 v 1.5875 z m 0.90947,-2.166276 v -0.359669 h 0.31006 v 0.359669 z m 0,2.166276 V 52.32827 h 0.31006 v 1.827279 z m 0.57261,0 0.66973,-0.950846 -0.62012,-0.876433 h 0.38861 l 0.28112,0.425813 q 0.0786,0.124023 0.12816,0.206706 0.0744,-0.115756 0.13642,-0.202571 l 0.31006,-0.429948 h 0.37207 l -0.63252,0.859896 0.678,0.967383 h -0.38034 l -0.37621,-0.566375 -0.0992,-0.157096 -0.47955,0.723471 z m 2.82563,-0.545703 0.30593,-0.04961 q 0.0289,0.186033 0.14469,0.285252 0.11989,0.09509 0.33073,0.09509 0.21498,0 0.31833,-0.08682 0.10335,-0.08682 0.10335,-0.20257 0,-0.103354 -0.0951,-0.165365 -0.062,-0.04134 -0.31419,-0.103354 -0.34313,-0.08682 -0.47542,-0.148828 -0.12816,-0.06615 -0.19844,-0.173633 -0.0661,-0.111619 -0.0661,-0.248047 0,-0.119888 0.0537,-0.223242 0.0579,-0.107487 0.15297,-0.177765 0.0744,-0.04961 0.19843,-0.08682 0.12403,-0.03721 0.26872,-0.03721 0.21497,0 0.3762,0.06201 0.16123,0.06201 0.23978,0.1695 0.0786,0.103351 0.10749,0.281119 l -0.30179,0.04134 q -0.0207,-0.14056 -0.11989,-0.21911 -0.0992,-0.08268 -0.28112,-0.08268 -0.21497,0 -0.30592,0.07028 -0.091,0.07028 -0.091,0.165365 0,0.06201 0.0372,0.11162 0.0413,0.04961 0.11989,0.08268 0.0455,0.01654 0.27285,0.07855 0.33073,0.08682 0.45888,0.144693 0.1323,0.05374 0.20671,0.161232 0.0744,0.107487 0.0744,0.264583 0,0.157096 -0.091,0.293521 -0.091,0.136427 -0.26458,0.210841 -0.1695,0.07441 -0.38448,0.07441 -0.35553,0 -0.54157,-0.148828 -0.18603,-0.148828 -0.23977,-0.438216 z m 1.88723,0.545703 V 52.32827 h 0.28112 v 0.260448 q 0.19844,-0.301789 0.57878,-0.301789 0.16536,0 0.30592,0.05788 0.14056,0.05788 0.20671,0.157096 0.0703,0.09508 0.0992,0.227375 0.0165,0.08682 0.0165,0.301792 v 1.124479 h -0.31006 v -1.112078 q 0,-0.190169 -0.0372,-0.28112 -0.0372,-0.09508 -0.12816,-0.148828 -0.091,-0.05788 -0.21498,-0.05788 -0.19843,0 -0.34313,0.124024 -0.14469,0.124023 -0.14469,0.475424 v 1.000456 z m 1.96535,-2.166276 v -0.359669 h 0.31006 v 0.359669 z m 0,2.166276 V 52.32827 h 0.31006 v 1.827279 z m 0.77932,0.702799 v -2.53008 h 0.28526 v 0.235644 q 0.0992,-0.14056 0.22324,-0.206706 0.12816,-0.07028 0.30592,-0.07028 0.23151,0 0.40928,0.119888 0.1819,0.119891 0.27285,0.338998 0.0909,0.219109 0.0909,0.483692 0,0.276985 -0.0992,0.504362 -0.0992,0.223243 -0.29352,0.343131 -0.19017,0.11989 -0.40514,0.11989 -0.15297,0 -0.27699,-0.06615 -0.12402,-0.06615 -0.20257,-0.165364 v 0.892968 z m 0.28112,-1.608171 q 0,0.355533 0.14056,0.525033 0.1447,0.165365 0.34727,0.165365 0.2067,0 0.35553,-0.173633 0.14883,-0.173633 0.14883,-0.54157 0,-0.347266 -0.14469,-0.520899 -0.1447,-0.177765 -0.34314,-0.177765 -0.19843,0 -0.35139,0.186034 -0.15297,0.186036 -0.15297,0.537435 z m 1.6801,1.608171 v -2.53008 h 0.28525 v 0.235644 q 0.0992,-0.14056 0.22324,-0.206706 0.12816,-0.07028 0.30593,-0.07028 0.23151,0 0.40928,0.119888 0.1819,0.119891 0.27285,0.338998 0.091,0.219109 0.091,0.483692 0,0.276985 -0.0992,0.504362 -0.0992,0.223243 -0.29353,0.343131 -0.19017,0.11989 -0.40514,0.11989 -0.15296,0 -0.27698,-0.06615 -0.12403,-0.06615 -0.20258,-0.165364 v 0.892968 z m 0.28112,-1.608171 q 0,0.355533 0.14056,0.525033 0.14469,0.165365 0.34726,0.165365 0.20671,0 0.35554,-0.173633 0.14883,-0.173633 0.14883,-0.54157 0,-0.347266 -0.1447,-0.520899 -0.14469,-0.177765 -0.34313,-0.177765 -0.19844,0 -0.3514,0.186034 -0.15296,0.186036 -0.15296,0.537435 z m 2.93273,0.318328 0.31833,0.03721 q -0.0744,0.28112 -0.28112,0.438217 -0.20257,0.152963 -0.5209,0.152963 -0.40101,0 -0.63665,-0.248047 -0.23565,-0.248047 -0.23565,-0.690398 0,-0.463021 0.23565,-0.715201 0.23977,-0.256315 0.62011,-0.256315 0.36794,0 0.59945,0.248047 0.23151,0.248047 0.23151,0.7028 0,0.02894 0,0.08268 h -1.36426 q 0.0165,0.301789 0.1695,0.463021 0.15296,0.157096 0.38034,0.157096 0.17363,0 0.29352,-0.08682 0.11989,-0.09095 0.19017,-0.285253 z m -1.01699,-0.504362 h 1.02113 q -0.0207,-0.227378 -0.11576,-0.343133 -0.14883,-0.181901 -0.38447,-0.181901 -0.21498,0 -0.35967,0.144695 -0.14469,0.14056 -0.16123,0.380339 z m 2.40357,0.814419 0.0455,0.272852 q -0.13229,0.02894 -0.23565,0.02894 -0.1695,0 -0.26458,-0.05374 -0.0909,-0.05374 -0.12816,-0.14056 -0.0372,-0.08682 -0.0372,-0.367935 V 52.568049 H 34.5721 V 52.32827 h 0.22738 v -0.454752 l 0.31005,-0.186037 v 0.640789 h 0.31006 v 0.239779 h -0.31006 v 1.070734 q 0,0.132292 0.0124,0.1695 0.0165,0.03721 0.0537,0.06201 0.0372,0.02066 0.10749,0.02066 0.0537,0 0.13642,-0.01241 z m 0.17773,-0.268716 0.30592,-0.04961 q 0.0289,0.186033 0.1447,0.285252 0.11989,0.09509 0.33073,0.09509 0.21497,0 0.31832,-0.08682 0.10335,-0.08682 0.10335,-0.20257 0,-0.103354 -0.0951,-0.165365 -0.062,-0.04134 -0.31419,-0.103354 -0.34313,-0.08682 -0.47542,-0.148828 -0.12816,-0.06615 -0.19844,-0.173633 -0.0661,-0.111619 -0.0661,-0.248047 0,-0.119888 0.0537,-0.223242 0.0579,-0.107487 0.15296,-0.177765 0.0744,-0.04961 0.19844,-0.08682 0.12402,-0.03721 0.26872,-0.03721 0.21497,0 0.3762,0.06201 0.16123,0.06201 0.23978,0.1695 0.0786,0.103351 0.10749,0.281119 l -0.30179,0.04134 q -0.0207,-0.14056 -0.11989,-0.21911 -0.0992,-0.08268 -0.28112,-0.08268 -0.21498,0 -0.30593,0.07028 -0.091,0.07028 -0.091,0.165365 0,0.06201 0.0372,0.11162 0.0413,0.04961 0.11989,0.08268 0.0455,0.01654 0.27285,0.07855 0.33073,0.08682 0.45889,0.144693 0.13229,0.05374 0.2067,0.161232 0.0744,0.107487 0.0744,0.264583 0,0.157096 -0.091,0.293521 -0.0909,0.136427 -0.26458,0.210841 -0.1695,0.07441 -0.38447,0.07441 -0.35554,0 -0.54157,-0.148828 -0.18604,-0.148828 -0.23978,-0.438216 z"
     id="path55"
     style="fill:#000000;fill-rule:nonzero;stroke:none;stroke-width:0.26458332;stroke-linecap:square;stroke-miterlimit:10" />
  <path
     d="M 0.13229,61.007927 H 47.71562 V 73.474591 H 0.13229 Z"
     id="path57"
     style="fill:#fff2cc;fill-rule:evenodd;stroke:none;stroke-width:0.26458332;stroke-linecap:square;stroke-miterlimit:10" />
  <path
     d="M 0.13229,61.007927 H 47.71562 V 73.474591 H 0.13229 Z"
     id="path59"
     style="fill:none;fill-rule:evenodd;stroke:#000000;stroke-width:0.26458332;stroke-linecap:butt;stroke-linejoin:round;stroke-miterlimit:10" />
  <path
     d="m 8.82671,68.511253 0.96738,-2.525945 h 0.35967 l 1.03353,2.525945 h -0.38034 l -0.29352,-0.764812 h -1.0542 l -0.27699,0.764812 z m 0.7276,-1.037664 h 0.85576 L 10.14549,66.774925 Q 10.0256,66.456597 9.96772,66.254027 9.91812,66.493805 9.8313,66.733584 Z m 1.86012,1.037664 v -1.827278 h 0.28112 v 0.260448 q 0.19844,-0.301789 0.57878,-0.301789 0.16536,0 0.30592,0.05788 0.14056,0.05788 0.20671,0.157096 0.0703,0.09508 0.0992,0.227375 0.0165,0.08682 0.0165,0.301792 v 1.124479 H 12.5926 v -1.112078 q 0,-0.190169 -0.0372,-0.28112 -0.0372,-0.09508 -0.12816,-0.148828 -0.0909,-0.05788 -0.21497,-0.05788 -0.19844,0 -0.34313,0.124023 -0.1447,0.124024 -0.1447,0.475425 v 1.000455 z m 1.8372,-0.545703 0.30592,-0.04961 q 0.0289,0.186034 0.1447,0.285252 0.11989,0.09509 0.33073,0.09509 0.21497,0 0.31832,-0.08682 0.10336,-0.08682 0.10336,-0.202571 0,-0.103354 -0.0951,-0.165364 -0.062,-0.04134 -0.3142,-0.103354 -0.34313,-0.08682 -0.47542,-0.148829 -0.12816,-0.06614 -0.19844,-0.173632 -0.0661,-0.11162 -0.0661,-0.248047 0,-0.119888 0.0537,-0.223242 0.0579,-0.107487 0.15297,-0.177766 0.0744,-0.04961 0.19843,-0.08682 0.12403,-0.03721 0.26872,-0.03721 0.21497,0 0.3762,0.06201 0.16123,0.06201 0.23978,0.1695 0.0786,0.103351 0.10749,0.28112 l -0.30179,0.04134 q -0.0207,-0.14056 -0.11989,-0.21911 -0.0992,-0.08268 -0.28112,-0.08268 -0.21497,0 -0.30592,0.07028 -0.0909,0.07028 -0.0909,0.165365 0,0.06201 0.0372,0.11162 0.0413,0.04961 0.11989,0.08268 0.0455,0.01654 0.27285,0.07855 0.33073,0.08682 0.45888,0.144692 0.1323,0.05375 0.20671,0.161232 0.0744,0.107487 0.0744,0.264583 0,0.157097 -0.0909,0.293521 -0.091,0.136427 -0.26458,0.210841 -0.1695,0.07441 -0.38448,0.07441 -0.35553,0 -0.54157,-0.148828 -0.18603,-0.148828 -0.23978,-0.438216 z m 1.89136,-1.620573 v -0.359669 h 0.31005 v 0.359669 z m 0,2.166276 v -1.827278 h 0.31005 v 1.827278 z m 1.06457,0 h -0.28525 v -2.525945 h 0.31005 v 0.901237 q 0.19431,-0.243911 0.50023,-0.243911 0.1695,0 0.31833,0.07028 0.15296,0.06615 0.24805,0.190169 0.0992,0.119891 0.15296,0.293524 0.0537,0.173633 0.0537,0.37207 0,0.471289 -0.23151,0.727604 -0.23151,0.256315 -0.55811,0.256315 -0.32246,0 -0.50849,-0.268718 z m 0,-0.926041 q 0,0.326593 0.0868,0.471289 0.14883,0.239778 0.39687,0.239778 0.20258,0 0.3514,-0.173632 0.14883,-0.177769 0.14883,-0.529167 0,-0.355534 -0.14469,-0.525034 -0.14056,-0.173633 -0.34313,-0.173633 -0.20257,0 -0.3514,0.177768 -0.1447,0.177766 -0.1447,0.512631 z m 1.67183,0.926041 v -2.525945 h 0.31006 v 2.525945 z m 2.04023,-0.587044 0.31832,0.03721 q -0.0744,0.28112 -0.28112,0.438216 -0.20257,0.152963 -0.5209,0.152963 -0.40101,0 -0.63665,-0.248046 -0.23564,-0.248047 -0.23564,-0.690399 0,-0.463021 0.23564,-0.7152 0.23978,-0.256315 0.62012,-0.256315 0.36793,0 0.59944,0.248046 0.23151,0.248047 0.23151,0.7028 0,0.02894 0,0.08268 h -1.36425 q 0.0165,0.301789 0.1695,0.463021 0.15296,0.157096 0.38033,0.157096 0.17364,0 0.29353,-0.08682 0.11989,-0.09095 0.19017,-0.285253 z m -1.017,-0.504362 h 1.02113 q -0.0207,-0.227378 -0.11576,-0.343133 -0.14882,-0.181901 -0.38447,-0.181901 -0.21497,0 -0.35967,0.144696 -0.14469,0.140559 -0.16123,0.380338 z m 2.77974,1.091406 v -1.5875 h -0.27285 v -0.239778 h 0.27285 V 66.48967 q 0,-0.186034 0.0331,-0.276984 0.0455,-0.119891 0.1571,-0.194305 0.11162,-0.07441 0.31832,-0.07441 0.12816,0 0.28939,0.02894 l -0.0496,0.272852 q -0.0951,-0.01654 -0.1819,-0.01654 -0.14056,0 -0.19844,0.06201 -0.0579,0.05788 -0.0579,0.223243 v 0.1695 h 0.35554 v 0.239778 h -0.35554 v 1.5875 z m 0.90947,-2.166276 v -0.359669 h 0.31006 v 0.359669 z m 0,2.166276 v -1.827278 h 0.31006 v 1.827278 z m 0.57261,0 0.66973,-0.950846 -0.62012,-0.876432 h 0.38861 l 0.28112,0.425812 q 0.0786,0.124024 0.12816,0.206706 0.0744,-0.115755 0.13642,-0.20257 l 0.31006,-0.429948 h 0.37207 l -0.63252,0.859895 0.678,0.967383 h -0.38034 l -0.37621,-0.566375 -0.0992,-0.157096 -0.47955,0.723471 z M 25.99007,67.96555 26.296,67.91594 q 0.0289,0.186034 0.14469,0.285252 0.11989,0.09509 0.33073,0.09509 0.21498,0 0.31833,-0.08682 0.10335,-0.08682 0.10335,-0.202571 0,-0.103354 -0.0951,-0.165364 -0.062,-0.04134 -0.31419,-0.103354 -0.34313,-0.08682 -0.47542,-0.148829 -0.12816,-0.06614 -0.19844,-0.173632 -0.0661,-0.11162 -0.0661,-0.248047 0,-0.119888 0.0537,-0.223242 0.0579,-0.107487 0.15296,-0.177766 0.0744,-0.04961 0.19844,-0.08682 0.12403,-0.03721 0.26872,-0.03721 0.21497,0 0.37621,0.06201 0.16122,0.06201 0.23977,0.1695 0.0786,0.103351 0.10749,0.28112 l -0.30179,0.04134 q -0.0207,-0.14056 -0.11989,-0.21911 -0.0992,-0.08268 -0.28112,-0.08268 -0.21497,0 -0.30592,0.07028 -0.0909,0.07028 -0.0909,0.165365 0,0.06201 0.0372,0.11162 0.0413,0.04961 0.11989,0.08268 0.0455,0.01654 0.27285,0.07855 0.33073,0.08682 0.45888,0.144692 0.1323,0.05375 0.20671,0.161232 0.0744,0.107487 0.0744,0.264583 0,0.157097 -0.0909,0.293521 -0.091,0.136427 -0.26458,0.210841 -0.1695,0.07441 -0.38447,0.07441 -0.35554,0 -0.54158,-0.148828 -0.18603,-0.148828 -0.23977,-0.438216 z m 1.88723,0.545703 v -1.827278 h 0.28112 v 0.260448 q 0.19844,-0.301789 0.57877,-0.301789 0.16537,0 0.30593,0.05788 0.14056,0.05788 0.2067,0.157096 0.0703,0.09508 0.0992,0.227375 0.0165,0.08682 0.0165,0.301792 v 1.124479 h -0.31005 v -1.112078 q 0,-0.190169 -0.0372,-0.28112 -0.0372,-0.09508 -0.12816,-0.148828 -0.0909,-0.05788 -0.21497,-0.05788 -0.19844,0 -0.34314,0.124023 -0.14469,0.124024 -0.14469,0.475425 v 1.000455 z m 1.96535,-2.166276 v -0.359669 h 0.31006 v 0.359669 z m 0,2.166276 v -1.827278 h 0.31006 v 1.827278 z m 0.77932,0.7028 v -2.530078 h 0.28525 v 0.235643 q 0.0992,-0.14056 0.22325,-0.206706 0.12815,-0.07028 0.30592,-0.07028 0.23151,0 0.40928,0.119888 0.1819,0.11989 0.27285,0.338997 0.091,0.219109 0.091,0.483693 0,0.276984 -0.0992,0.504362 -0.0992,0.223242 -0.29352,0.34313 -0.19017,0.11989 -0.40515,0.11989 -0.15296,0 -0.27698,-0.06615 -0.12403,-0.06615 -0.20257,-0.165365 v 0.892969 z m 0.28112,-1.608172 q 0,0.355534 0.14056,0.525034 0.14469,0.165364 0.34726,0.165364 0.20671,0 0.35554,-0.173632 0.14883,-0.173633 0.14883,-0.541571 0,-0.347265 -0.1447,-0.520898 -0.14469,-0.177766 -0.34313,-0.177766 -0.19844,0 -0.3514,0.186034 -0.15296,0.186036 -0.15296,0.537435 z m 1.6801,1.608172 v -2.530078 h 0.28525 v 0.235643 q 0.0992,-0.14056 0.22324,-0.206706 0.12816,-0.07028 0.30593,-0.07028 0.23151,0 0.40928,0.119888 0.18189,0.11989 0.27284,0.338997 0.091,0.219109 0.091,0.483693 0,0.276984 -0.0992,0.504362 -0.0992,0.223242 -0.29352,0.34313 -0.19017,0.11989 -0.40514,0.11989 -0.15296,0 -0.27698,-0.06615 -0.12403,-0.06615 -0.20258,-0.165365 v 0.892969 z m 0.28112,-1.608172 q 0,0.355534 0.14056,0.525034 0.14469,0.165364 0.34726,0.165364 0.20671,0 0.35554,-0.173632 0.14882,-0.173633 0.14882,-0.541571 0,-0.347265 -0.14469,-0.520898 -0.14469,-0.177766 -0.34313,-0.177766 -0.19844,0 -0.3514,0.186034 -0.15296,0.186036 -0.15296,0.537435 z m 2.93273,0.318328 0.31833,0.03721 q -0.0744,0.28112 -0.28112,0.438216 -0.20258,0.152963 -0.5209,0.152963 -0.40101,0 -0.63665,-0.248046 -0.23565,-0.248047 -0.23565,-0.690399 0,-0.463021 0.23565,-0.7152 0.23977,-0.256315 0.62011,-0.256315 0.36794,0 0.59945,0.248046 0.23151,0.248047 0.23151,0.7028 0,0.02894 0,0.08268 h -1.36426 q 0.0165,0.301789 0.1695,0.463021 0.15296,0.157096 0.38034,0.157096 0.17363,0 0.29352,-0.08682 0.11989,-0.09095 0.19017,-0.285253 z m -1.01699,-0.504362 h 1.02112 q -0.0207,-0.227378 -0.11575,-0.343133 -0.14883,-0.181901 -0.38447,-0.181901 -0.21498,0 -0.35967,0.144696 -0.1447,0.140559 -0.16123,0.380338 z m 2.40356,0.814419 0.0455,0.272852 q -0.13229,0.02894 -0.23564,0.02894 -0.1695,0 -0.26458,-0.05374 -0.0909,-0.05374 -0.12816,-0.14056 -0.0372,-0.08682 -0.0372,-0.367935 V 66.923758 H 36.33615 V 66.68398 h 0.22738 v -0.454753 l 0.31006,-0.186036 v 0.640789 h 0.31006 v 0.239778 h -0.31006 v 1.070735 q 0,0.132291 0.0124,0.1695 0.0165,0.03721 0.0537,0.06201 0.0372,0.02066 0.10749,0.02066 0.0537,0 0.13642,-0.01241 z m 0.17774,-0.268716 0.30592,-0.04961 q 0.0289,0.186034 0.1447,0.285252 0.11988,0.09509 0.33072,0.09509 0.21498,0 0.31833,-0.08682 0.10335,-0.08682 0.10335,-0.202571 0,-0.103354 -0.0951,-0.165364 -0.062,-0.04134 -0.31419,-0.103354 -0.34313,-0.08682 -0.47542,-0.148829 -0.12816,-0.06614 -0.19844,-0.173632 -0.0661,-0.11162 -0.0661,-0.248047 0,-0.119888 0.0537,-0.223242 0.0579,-0.107487 0.15297,-0.177766 0.0744,-0.04961 0.19843,-0.08682 0.12403,-0.03721 0.26872,-0.03721 0.21497,0 0.37621,0.06201 0.16122,0.06201 0.23977,0.1695 0.0786,0.103351 0.10749,0.28112 l -0.30179,0.04134 q -0.0207,-0.14056 -0.11989,-0.21911 -0.0992,-0.08268 -0.28112,-0.08268 -0.21497,0 -0.30592,0.07028 -0.091,0.07028 -0.091,0.165365 0,0.06201 0.0372,0.11162 0.0413,0.04961 0.11989,0.08268 0.0455,0.01654 0.27285,0.07855 0.33073,0.08682 0.45888,0.144692 0.1323,0.05375 0.20671,0.161232 0.0744,0.107487 0.0744,0.264583 0,0.157097 -0.0909,0.293521 -0.091,0.136427 -0.26458,0.210841 -0.1695,0.07441 -0.38447,0.07441 -0.35554,0 -0.54157,-0.148828 -0.18604,-0.148828 -0.23978,-0.438216 z"
     id="path61"
     style="fill:#000000;fill-rule:nonzero;stroke:none;stroke-width:0.26458332;stroke-linecap:square;stroke-miterlimit:10" />
  <path
     d="m 76.4699,16.468339 h 29.9096 c 8e-5,0 1.6e-4,3.1e-5 2.1e-4,8.4e-5 6e-5,5.6e-5 9e-5,1.33e-4 9e-5,2.15e-4 l -2.7e-4,52.734305 c 0,3.303804 -2.67826,5.982062 -5.98206,5.982062 H 70.48784 v 0 c -1.6e-4,0 -2.6e-4,-1.35e-4 -2.6e-4,-2.64e-4 l 2.6e-4,-52.734305 v 0 c 0,-3.303802 2.67826,-5.982063 5.98206,-5.982063 z"
     id="path63"
     style="fill:#cfe2f3;fill-rule:evenodd;stroke:none;stroke-width:0.26458332;stroke-linecap:square;stroke-miterlimit:10" />
  <path
     d="m 76.4699,16.468339 h 29.9096 c 8e-5,0 1.6e-4,3.1e-5 2.1e-4,8.4e-5 6e-5,5.6e-5 9e-5,1.33e-4 9e-5,2.15e-4 l -2.7e-4,52.734305 c 0,3.303804 -2.67826,5.982062 -5.98206,5.982062 H 70.48784 v 0 c -1.6e-4,0 -2.6e-4,-1.35e-4 -2.6e-4,-2.64e-4 l 2.6e-4,-52.734305 v 0 c 0,-3.303802 2.67826,-5.982063 5.98206,-5.982063 z"
     id="path65"
     style="fill:none;fill-rule:evenodd;stroke:#000000;stroke-width:0.26458332;stroke-linecap:butt;stroke-linejoin:round;stroke-miterlimit:10" />
  <path
     d="m 77.54459,43.610289 0.43821,-0.03721 q 0.0331,0.264583 0.1447,0.434083 0.11575,0.169498 0.35553,0.276985 0.24391,0.103354 0.5457,0.103354 0.26459,0 0.47129,-0.07855 0.20671,-0.07855 0.30593,-0.214974 0.0992,-0.14056 0.0992,-0.305924 0,-0.165365 -0.0992,-0.289388 -0.0951,-0.124024 -0.3142,-0.210839 -0.14469,-0.05374 -0.63251,-0.1695 -0.4837,-0.119888 -0.678,-0.223242 -0.25631,-0.132292 -0.38034,-0.326594 -0.12402,-0.198437 -0.12402,-0.442351 0,-0.264584 0.15296,-0.496094 0.15296,-0.235643 0.44235,-0.355534 0.29352,-0.119888 0.64906,-0.119888 0.39274,0 0.69039,0.128156 0.30179,0.124024 0.46303,0.372071 0.16122,0.243914 0.17363,0.553971 l -0.44649,0.03307 q -0.0372,-0.334862 -0.24804,-0.504362 -0.20671,-0.173633 -0.61185,-0.173633 -0.42582,0 -0.62012,0.157097 -0.1943,0.157096 -0.1943,0.376205 0,0.19017 0.14056,0.310058 0.13229,0.124023 0.7028,0.256315 0.5705,0.128159 0.78134,0.223242 0.31006,0.14056 0.45476,0.359669 0.14883,0.219107 0.14883,0.504362 0,0.28112 -0.16124,0.5333 -0.16123,0.248046 -0.46302,0.388606 -0.30179,0.136427 -0.68212,0.136427 -0.47956,0 -0.80616,-0.140559 -0.32246,-0.14056 -0.50849,-0.42168 -0.1819,-0.28112 -0.19017,-0.636654 z m 3.29236,0 0.43821,-0.03721 q 0.0331,0.264583 0.1447,0.434083 0.11576,0.169498 0.35553,0.276985 0.24392,0.103354 0.54571,0.103354 0.26458,0 0.47129,-0.07855 0.2067,-0.07855 0.30592,-0.214974 0.0992,-0.14056 0.0992,-0.305924 0,-0.165365 -0.0992,-0.289388 -0.0951,-0.124024 -0.31419,-0.210839 -0.1447,-0.05374 -0.63252,-0.1695 -0.48369,-0.119888 -0.678,-0.223242 -0.25631,-0.132292 -0.38034,-0.326594 -0.12402,-0.198437 -0.12402,-0.442351 0,-0.264584 0.15296,-0.496094 0.15296,-0.235643 0.44235,-0.355534 0.29353,-0.119888 0.64906,-0.119888 0.39274,0 0.6904,0.128156 0.30179,0.124024 0.46302,0.372071 0.16123,0.243914 0.17363,0.553971 l -0.44648,0.03307 q -0.0372,-0.334862 -0.24805,-0.504362 -0.20671,-0.173633 -0.61185,-0.173633 -0.42581,0 -0.62012,0.157097 -0.1943,0.157096 -0.1943,0.376205 0,0.19017 0.14056,0.310058 0.13229,0.124023 0.7028,0.256315 0.57051,0.128159 0.78135,0.223242 0.31006,0.14056 0.45475,0.359669 0.14883,0.219107 0.14883,0.504362 0,0.28112 -0.16123,0.5333 -0.16123,0.248046 -0.46302,0.388606 -0.3018,0.136427 -0.68213,0.136427 -0.47956,0 -0.80615,-0.140559 -0.32247,-0.14056 -0.5085,-0.42168 -0.1819,-0.28112 -0.19017,-0.636654 z m 5.1031,-0.248047 v -0.417547 h 1.49655 v 1.310516 q -0.34313,0.276984 -0.71106,0.417544 -0.36381,0.136427 -0.75241,0.136427 -0.5209,0 -0.94671,-0.223242 -0.42582,-0.223242 -0.64079,-0.644922 -0.21498,-0.421679 -0.21498,-0.942578 0,-0.516765 0.21498,-0.96325 0.21497,-0.446484 0.62011,-0.661458 0.40515,-0.219107 0.93018,-0.219107 0.38447,0 0.69453,0.124024 0.31006,0.124023 0.48369,0.347265 0.17777,0.219107 0.26872,0.574641 l -0.42168,0.115755 q -0.0785,-0.268716 -0.19844,-0.42168 -0.11575,-0.157096 -0.33486,-0.248047 -0.21911,-0.09095 -0.48783,-0.09095 -0.31832,0 -0.55397,0.09922 -0.23564,0.09509 -0.38034,0.256315 -0.14056,0.157096 -0.2191,0.347265 -0.13643,0.326597 -0.13643,0.711068 0,0.471289 0.16123,0.789617 0.16537,0.318326 0.47542,0.475422 0.31006,0.152964 0.66146,0.152964 0.30179,0 0.59118,-0.115755 0.28939,-0.119891 0.43822,-0.252183 v -0.657323 z m 3.90039,1.384927 h -0.40101 v -3.534666 h 0.43408 v 1.260903 q 0.27699,-0.34313 0.7028,-0.34313 0.23564,0 0.44648,0.09508 0.21084,0.09508 0.34727,0.268718 0.13643,0.169498 0.21084,0.413412 0.0786,0.243911 0.0786,0.520898 0,0.657323 -0.32659,1.016992 -0.32246,0.359667 -0.78135,0.359667 -0.45062,0 -0.71107,-0.380339 z m -0.004,-1.298112 q 0,0.458888 0.12816,0.665594 0.20257,0.334862 0.55397,0.334862 0.28525,0 0.49196,-0.248047 0.2067,-0.248047 0.2067,-0.735872 0,-0.500227 -0.19844,-0.740005 -0.19843,-0.239779 -0.48369,-0.239779 -0.28112,0 -0.49196,0.248047 -0.2067,0.248047 -0.2067,0.7152 z m 4.02682,1.298112 v -0.376203 q -0.29766,0.434081 -0.81029,0.434081 -0.22737,0 -0.42581,-0.08682 -0.19431,-0.08682 -0.28939,-0.219109 -0.0951,-0.132292 -0.13229,-0.322461 -0.0289,-0.124024 -0.0289,-0.405144 v -1.583364 h 0.43408 v 1.418 q 0,0.338997 0.0289,0.458888 0.0413,0.169497 0.17364,0.268716 0.13229,0.09922 0.32659,0.09922 0.19431,0 0.36381,-0.09922 0.17363,-0.103352 0.24391,-0.272852 0.0703,-0.173632 0.0703,-0.500226 v -1.372526 h 0.43408 v 2.559015 z m 1.07092,-3.03444 v -0.500226 h 0.43408 v 0.500226 z m 0,3.03444 v -2.559015 h 0.43408 v 2.559015 z m 1.08425,0 v -3.534666 h 0.43408 v 3.534666 z m 2.76683,0 v -0.322461 q -0.23978,0.380339 -0.7152,0.380339 -0.30593,0 -0.56224,-0.169497 -0.25632,-0.1695 -0.39688,-0.471289 -0.14056,-0.301792 -0.14056,-0.694532 0,-0.384474 0.12816,-0.694531 0.12816,-0.314193 0.38034,-0.479557 0.25632,-0.165365 0.57464,-0.165365 0.23151,0 0.40928,0.09922 0.1819,0.09508 0.29352,0.25218 v -1.269172 h 0.43408 v 3.534666 z m -1.36839,-1.27744 q 0,0.491959 0.2067,0.735873 0.20671,0.243911 0.48783,0.243911 0.28525,0 0.48369,-0.23151 0.19844,-0.235643 0.19844,-0.711068 0,-0.525031 -0.20257,-0.768945 -0.20257,-0.248047 -0.50023,-0.248047 -0.28525,0 -0.47956,0.235646 -0.1943,0.235643 -0.1943,0.74414 z"
     id="path67"
     style="fill:#000000;fill-rule:nonzero;stroke:none;stroke-width:0.26458332;stroke-linecap:square;stroke-miterlimit:10" />
  <path
     d="m 80.77029,49.803193 0.42994,-0.06615 q 0.0331,0.256315 0.19844,0.396875 0.16537,0.136424 0.46302,0.136424 0.29766,0 0.44235,-0.119888 0.1447,-0.124023 0.1447,-0.289388 0,-0.144695 -0.12816,-0.231505 -0.0868,-0.05788 -0.44235,-0.144695 -0.47956,-0.124023 -0.66559,-0.210839 -0.18191,-0.08682 -0.27699,-0.239778 -0.0951,-0.157097 -0.0951,-0.347266 0,-0.1695 0.0786,-0.314192 0.0786,-0.148829 0.21498,-0.243915 0.0992,-0.07441 0.27285,-0.124023 0.17776,-0.05374 0.3762,-0.05374 0.30179,0 0.52917,0.08682 0.22737,0.08682 0.33486,0.235646 0.11162,0.148828 0.15296,0.396875 l -0.42581,0.05788 q -0.0289,-0.198437 -0.1695,-0.31006 -0.13643,-0.111619 -0.38861,-0.111619 -0.30179,0 -0.42995,0.09922 -0.12402,0.09922 -0.12402,0.231511 0,0.08268 0.0496,0.152961 0.0538,0.07028 0.1695,0.115755 0.062,0.02479 0.38034,0.111622 0.46302,0.119888 0.64492,0.198438 0.1819,0.07855 0.28525,0.227375 0.10336,0.148828 0.10336,0.372065 0,0.219109 -0.12816,0.409279 -0.12402,0.190169 -0.3638,0.297656 -0.23978,0.103351 -0.54157,0.103351 -0.49609,0 -0.76068,-0.206705 -0.26045,-0.206706 -0.33073,-0.615982 z m 2.62103,1.748729 -0.0496,-0.405143 q 0.14469,0.03721 0.24804,0.03721 0.14469,0 0.23151,-0.04961 0.0868,-0.04548 0.1447,-0.132292 0.0413,-0.06615 0.13229,-0.322461 0.0124,-0.03721 0.0372,-0.107487 L 83.16394,48.00899 h 0.46715 l 0.5333,1.480013 q 0.10336,0.28525 0.18604,0.59531 0.0744,-0.297657 0.17777,-0.582907 l 0.54983,-1.492416 h 0.43409 l -0.97566,2.600354 q -0.15709,0.425815 -0.24391,0.582911 -0.11575,0.214974 -0.26458,0.314193 -0.14883,0.09922 -0.35553,0.09922 -0.12816,0 -0.28112,-0.05374 z m 2.3151,-1.748729 0.42995,-0.06615 q 0.0331,0.256315 0.19844,0.396875 0.16536,0.136424 0.46302,0.136424 0.29765,0 0.44234,-0.119888 0.1447,-0.124023 0.1447,-0.289388 0,-0.144695 -0.12816,-0.231505 -0.0868,-0.05788 -0.44235,-0.144695 -0.47955,-0.124023 -0.66559,-0.210839 -0.1819,-0.08682 -0.27699,-0.239778 -0.0951,-0.157097 -0.0951,-0.347266 0,-0.1695 0.0786,-0.314192 0.0785,-0.148829 0.21498,-0.243915 0.0992,-0.07441 0.27285,-0.124023 0.17777,-0.05374 0.3762,-0.05374 0.3018,0 0.52917,0.08682 0.22738,0.08682 0.33486,0.235646 0.11162,0.148828 0.15297,0.396875 l -0.42582,0.05788 q -0.0289,-0.198437 -0.1695,-0.31006 -0.13642,-0.111619 -0.3886,-0.111619 -0.30179,0 -0.42995,0.09922 -0.12402,0.09922 -0.12402,0.231511 0,0.08268 0.0496,0.152961 0.0537,0.07028 0.1695,0.115755 0.062,0.02479 0.38033,0.111622 0.46302,0.119888 0.64493,0.198438 0.1819,0.07855 0.28525,0.227375 0.10335,0.148828 0.10335,0.372065 0,0.219109 -0.12816,0.409279 -0.12402,0.190169 -0.3638,0.297656 -0.23978,0.103351 -0.54157,0.103351 -0.49609,0 -0.76067,-0.206705 -0.26045,-0.206706 -0.33073,-0.615982 z m 3.58841,0.376203 0.062,0.384474 q -0.1819,0.03721 -0.32659,0.03721 -0.23565,0 -0.36794,-0.07441 -0.12816,-0.07441 -0.1819,-0.194302 -0.0537,-0.124024 -0.0537,-0.512631 V 48.343862 H 88.10837 V 48.009 h 0.31833 v -0.63252 l 0.42995,-0.260448 V 48.009 h 0.43821 v 0.334862 h -0.43821 v 1.50068 q 0,0.181901 0.0207,0.235643 0.0248,0.05374 0.0744,0.08682 0.0537,0.02894 0.15296,0.02894 0.0703,0 0.19017,-0.01654 z m 2.17757,-0.434081 0.44649,0.05374 q -0.10749,0.392743 -0.39274,0.611849 -0.28526,0.214974 -0.73174,0.214974 -0.56224,0 -0.89297,-0.34313 -0.32659,-0.347265 -0.32659,-0.971513 0,-0.649054 0.33072,-1.004588 0.33487,-0.355534 0.86403,-0.355534 0.51263,0 0.83509,0.351398 0.3266,0.347266 0.3266,0.979787 0,0.04134 0,0.115755 h -1.90996 q 0.0248,0.421674 0.23978,0.649049 0.21497,0.223242 0.5333,0.223242 0.23978,0 0.40928,-0.124023 0.16949,-0.128156 0.26871,-0.401008 z m -1.42627,-0.702794 h 1.43041 q -0.0289,-0.322461 -0.16537,-0.483693 -0.2067,-0.252179 -0.53743,-0.252179 -0.29766,0 -0.50436,0.20257 -0.20258,0.198437 -0.22325,0.533302 z m 2.41865,1.525482 V 48.00899 h 0.3886 v 0.359669 q 0.11989,-0.190169 0.31833,-0.301792 0.20257,-0.115755 0.45475,-0.115755 0.28526,0 0.46716,0.119891 0.1819,0.115755 0.25631,0.326594 0.30593,-0.446485 0.78962,-0.446485 0.38447,0 0.58704,0.210841 0.20671,0.210839 0.20671,0.649055 v 1.756995 h -0.43408 v -1.6123 q 0,-0.26045 -0.0413,-0.37207 -0.0413,-0.115755 -0.15297,-0.186036 -0.11162,-0.07028 -0.26044,-0.07028 -0.26872,0 -0.44649,0.181901 -0.17777,0.177766 -0.17777,0.570508 v 1.488276 h -0.43408 v -1.661909 q 0,-0.289388 -0.10748,-0.434083 -0.10749,-0.144693 -0.34727,-0.144693 -0.1819,0 -0.339,0.09508 -0.15709,0.09509 -0.22737,0.28112 -0.0662,0.186037 -0.0662,0.537435 v 1.327047 z"
     id="path69"
     style="fill:#000000;fill-rule:nonzero;stroke:none;stroke-width:0.26458332;stroke-linecap:square;stroke-miterlimit:10" />
  <path
     d="m 50.01215,43.628752 h 14.37917 v -1.668748 l 3.33749,3.337501 -3.33749,3.337497 V 46.966254 H 50.01215 Z"
     id="path71"
     style="fill:#cfe2f3;fill-rule:evenodd;stroke:none;stroke-width:0.26458332;stroke-linecap:square;stroke-miterlimit:10" />
  <path
     d="m 50.01215,43.628752 h 14.37917 v -1.668748 l 3.33749,3.337501 -3.33749,3.337497 V 46.966254 H 50.01215 Z"
     id="path73"
     style="fill:none;fill-rule:evenodd;stroke:#000000;stroke-width:0.26458332;stroke-linecap:butt;stroke-linejoin:round;stroke-miterlimit:10" />
  <path
     d="m 108.91042,29.962724 h 12.30417 v -1.668749 l 3.3375,3.337497 -3.3375,3.337499 v -1.668748 h -12.30417 z"
     id="path75"
     style="fill:#cfe2f3;fill-rule:evenodd;stroke:none;stroke-width:0.26458332;stroke-linecap:square;stroke-miterlimit:10" />
  <path
     d="m 108.91042,29.962724 h 12.30417 v -1.668749 l 3.3375,3.337497 -3.3375,3.337499 v -1.668748 h -12.30417 z"
     id="path77"
     style="fill:none;fill-rule:evenodd;stroke:#000000;stroke-width:0.26458332;stroke-linecap:butt;stroke-linejoin:round;stroke-miterlimit:10" />
  <path
     d="m 126.85659,45.595421 h 68.7805 l 2.07783,2.07782 v 10.388844 h -70.85834 z"
     id="path79"
     style="fill:#b6d7a8;fill-rule:evenodd;stroke:none;stroke-width:0.26458332;stroke-linecap:square;stroke-miterlimit:10" />
  <path
     d="m 126.85659,45.595421 h 68.7805 l 2.07783,2.07782 v 10.388844 h -70.85834 z"
     id="path81"
     style="fill:none;fill-rule:evenodd;stroke:#000000;stroke-width:0.26458332;stroke-linecap:butt;stroke-linejoin:round;stroke-miterlimit:10" />
  <path
     d="m 129.59751,54.179126 v -3.534669 h 1.32705 q 0.40514,0 0.64905,0.107487 0.24392,0.107487 0.38034,0.330729 0.14056,0.223242 0.14056,0.467156 0,0.227375 -0.12402,0.429948 -0.11989,0.198438 -0.36794,0.318326 0.31833,0.09509 0.49196,0.322461 0.17363,0.227377 0.17363,0.533302 0,0.248046 -0.10748,0.46302 -0.10336,0.210839 -0.26045,0.326594 -0.15297,0.115755 -0.38448,0.177768 -0.23151,0.05788 -0.5705,0.05788 z m 0.47128,-2.050521 h 0.76068 q 0.31419,0 0.44649,-0.03721 0.17776,-0.05374 0.26871,-0.177766 0.0909,-0.124023 0.0909,-0.31006 0,-0.173632 -0.0868,-0.305924 -0.0827,-0.136425 -0.23978,-0.186034 -0.1571,-0.04961 -0.53744,-0.04961 h -0.7028 z m 0,1.632974 h 0.87644 q 0.22737,0 0.31832,-0.01654 0.16123,-0.02894 0.26872,-0.09508 0.11162,-0.07028 0.1819,-0.198437 0.0703,-0.128159 0.0703,-0.297656 0,-0.198438 -0.10335,-0.343133 -0.0992,-0.144693 -0.28112,-0.202571 -0.17777,-0.06201 -0.51676,-0.06201 h -0.81443 z m 4.45819,0.103354 q -0.24391,0.202571 -0.46715,0.289388 -0.21911,0.08268 -0.47542,0.08268 -0.42168,0 -0.64906,-0.206706 -0.22738,-0.206706 -0.22738,-0.525034 0,-0.190169 0.0868,-0.34313 0.0868,-0.157097 0.22324,-0.248047 0.14056,-0.09509 0.3142,-0.144695 0.12402,-0.03307 0.38447,-0.06615 0.52503,-0.06201 0.77308,-0.148828 0.004,-0.09095 0.004,-0.11162 0,-0.264583 -0.12403,-0.376206 -0.16536,-0.144693 -0.49609,-0.144693 -0.30593,0 -0.45062,0.107487 -0.14469,0.107487 -0.21497,0.376204 l -0.42582,-0.05788 q 0.0579,-0.268716 0.19017,-0.434081 0.13229,-0.1695 0.38448,-0.26045 0.25217,-0.09095 0.57877,-0.09095 0.33073,0 0.5333,0.07855 0.20671,0.07441 0.30179,0.194302 0.0992,0.115755 0.13643,0.293523 0.0207,0.11162 0.0207,0.401008 v 0.578776 q 0,0.603581 0.0289,0.764813 0.0289,0.157096 0.10749,0.305924 h -0.45062 q -0.0703,-0.136427 -0.0868,-0.314193 z m -0.0372,-0.971518 q -0.23565,0.09922 -0.70694,0.165365 -0.26871,0.03721 -0.38034,0.08682 -0.11162,0.04961 -0.17363,0.14056 -0.0579,0.09095 -0.0579,0.206706 0,0.173633 0.1323,0.289388 0.13229,0.115755 0.38447,0.115755 0.24805,0 0.44235,-0.107487 0.19844,-0.111622 0.28939,-0.301791 0.0703,-0.148829 0.0703,-0.434081 z m 0.93862,0.520899 0.42995,-0.06615 q 0.0331,0.256315 0.19844,0.396875 0.16536,0.136427 0.46302,0.136427 0.29765,0 0.44235,-0.119891 0.14469,-0.124023 0.14469,-0.289388 0,-0.144693 -0.12816,-0.23151 -0.0868,-0.05788 -0.44235,-0.144693 -0.47955,-0.124023 -0.66559,-0.210841 -0.1819,-0.08682 -0.27698,-0.239779 -0.0951,-0.157096 -0.0951,-0.347265 0,-0.169498 0.0785,-0.314193 0.0786,-0.148828 0.21497,-0.243912 0.0992,-0.07441 0.27285,-0.124023 0.17777,-0.05374 0.37621,-0.05374 0.30179,0 0.52916,0.08682 0.22738,0.08682 0.33487,0.235643 0.11162,0.148828 0.15296,0.396875 l -0.42581,0.05788 q -0.0289,-0.198438 -0.1695,-0.310058 -0.13643,-0.111622 -0.38861,-0.111622 -0.30179,0 -0.42995,0.09922 -0.12402,0.09922 -0.12402,0.23151 0,0.08268 0.0496,0.152964 0.0537,0.07028 0.1695,0.115755 0.062,0.02479 0.38034,0.11162 0.46302,0.11989 0.64492,0.198437 0.1819,0.07855 0.28525,0.227378 0.10336,0.148828 0.10336,0.37207 0,0.219107 -0.12816,0.409276 -0.12403,0.190169 -0.36381,0.297656 -0.23977,0.103355 -0.54156,0.103355 -0.4961,0 -0.76068,-0.206706 -0.26045,-0.206706 -0.33073,-0.615984 z m 2.6417,0.764812 v -3.534669 h 0.43408 v 1.269174 q 0.30179,-0.351401 0.76481,-0.351401 0.28526,0 0.49196,0.111623 0.21084,0.111619 0.30179,0.310057 0.0909,0.198437 0.0909,0.574643 v 1.620573 h -0.43408 v -1.620573 q 0,-0.326596 -0.14056,-0.475424 -0.14056,-0.148829 -0.40101,-0.148829 -0.19017,0 -0.35967,0.103355 -0.1695,0.09922 -0.24391,0.268716 -0.0703,0.1695 -0.0703,0.471289 v 1.401466 z m 4.22001,0 v -2.224154 h -0.38447 v -0.334864 h 0.38447 v -0.272852 q 0,-0.256315 0.0455,-0.384471 0.062,-0.1695 0.21911,-0.272852 0.1571,-0.103354 0.44235,-0.103354 0.1819,0 0.40515,0.04134 l -0.0661,0.380339 q -0.13229,-0.02479 -0.25218,-0.02479 -0.19844,0 -0.28112,0.08682 -0.0827,0.08268 -0.0827,0.314193 v 0.235643 h 0.50022 v 0.334865 h -0.50022 v 2.224153 z m 1.26807,-3.03444 v -0.500229 h 0.43409 v 0.500229 z m 0,3.03444 v -2.559018 h 0.43409 v 2.559018 z m 0.80726,0 0.93431,-1.331185 -0.86404,-1.227833 h 0.54157 l 0.39274,0.599448 q 0.11163,0.169497 0.17777,0.285252 0.10749,-0.157096 0.1943,-0.281119 l 0.43409,-0.603581 h 0.51676 l -0.8847,1.203028 0.95085,1.35599 h -0.5333 l -0.52504,-0.79375 -0.13642,-0.214974 -0.67386,1.008724 z m 3.95524,-0.764812 0.42995,-0.06615 q 0.0331,0.256315 0.19844,0.396875 0.16536,0.136427 0.46302,0.136427 0.29766,0 0.44235,-0.119891 0.14469,-0.124023 0.14469,-0.289388 0,-0.144693 -0.12815,-0.23151 -0.0868,-0.05788 -0.44235,-0.144693 -0.47956,-0.124023 -0.66559,-0.210841 -0.18191,-0.08682 -0.27699,-0.239779 -0.0951,-0.157096 -0.0951,-0.347265 0,-0.169498 0.0785,-0.314193 0.0786,-0.148828 0.21498,-0.243912 0.0992,-0.07441 0.27285,-0.124023 0.17777,-0.05374 0.3762,-0.05374 0.30179,0 0.52917,0.08682 0.22737,0.08682 0.33486,0.235643 0.11162,0.148828 0.15297,0.396875 l -0.42582,0.05788 q -0.0289,-0.198438 -0.1695,-0.310058 -0.13642,-0.111622 -0.3886,-0.111622 -0.3018,0 -0.42995,0.09922 -0.12403,0.09922 -0.12403,0.23151 0,0.08268 0.0496,0.152964 0.0538,0.07028 0.1695,0.115755 0.062,0.02479 0.38034,0.11162 0.46302,0.11989 0.64492,0.198437 0.1819,0.07855 0.28526,0.227378 0.10335,0.148828 0.10335,0.37207 0,0.219107 -0.12816,0.409276 -0.12402,0.190169 -0.3638,0.297656 -0.23978,0.103355 -0.54157,0.103355 -0.49609,0 -0.76068,-0.206706 -0.26044,-0.206706 -0.33073,-0.615984 z m 4.31189,-0.173633 0.42581,0.05788 q -0.0703,0.438216 -0.35967,0.690399 -0.28525,0.248047 -0.70693,0.248047 -0.52503,0 -0.84336,-0.343133 -0.31833,-0.34313 -0.31833,-0.983919 0,-0.417545 0.13643,-0.727605 0.13642,-0.310057 0.41754,-0.46302 0.28112,-0.157097 0.61185,-0.157097 0.41755,0 0.68213,0.210841 0.26458,0.210839 0.339,0.599446 l -0.42168,0.06201 q -0.062,-0.256315 -0.21498,-0.384474 -0.15296,-0.132292 -0.36793,-0.132292 -0.3266,0 -0.5333,0.235646 -0.20671,0.235643 -0.20671,0.744141 0,0.516763 0.19844,0.752408 0.19844,0.231511 0.51676,0.231511 0.25632,0 0.42582,-0.157097 0.17363,-0.157096 0.21911,-0.483692 z m 0.79375,0.938445 v -2.559018 h 0.3886 v 0.388607 q 0.14883,-0.272852 0.27286,-0.359667 0.12815,-0.08682 0.28111,-0.08682 0.21911,0 0.44649,0.14056 l -0.14883,0.401011 q -0.16123,-0.09509 -0.31833,-0.09509 -0.14469,0 -0.25631,0.08682 -0.11162,0.08682 -0.16123,0.235643 -0.0744,0.231511 -0.0744,0.508498 v 1.339453 z m 1.64789,-3.03444 v -0.500229 h 0.43408 v 0.500229 z m 0,3.03444 v -2.559018 h 0.43408 v 2.559018 z m 1.09666,0.979784 v -3.538802 h 0.39274 v 0.330729 q 0.14056,-0.194302 0.31419,-0.289388 0.17777,-0.09922 0.42995,-0.09922 0.32659,0 0.57464,0.1695 0.25218,0.165365 0.38034,0.475422 0.12816,0.305925 0.12816,0.673862 0,0.39274 -0.14056,0.706932 -0.14056,0.314193 -0.40928,0.483693 -0.26872,0.165365 -0.56637,0.165365 -0.21498,0 -0.38861,-0.09095 -0.17363,-0.09095 -0.28112,-0.23151 v 1.244367 z m 0.39274,-2.244823 q 0,0.491958 0.19844,0.731737 0.20257,0.235646 0.48369,0.235646 0.28938,0 0.49609,-0.243914 0.20671,-0.248047 0.20671,-0.760677 0,-0.487826 -0.20257,-0.731737 -0.19844,-0.243914 -0.47956,-0.243914 -0.27699,0 -0.49196,0.26045 -0.21084,0.256315 -0.21084,0.752409 z m 3.29921,0.876432 0.062,0.384472 q -0.1819,0.03721 -0.3266,0.03721 -0.23564,0 -0.36793,-0.07441 -0.12816,-0.07441 -0.1819,-0.194305 -0.0537,-0.124023 -0.0537,-0.51263 v -1.475878 h -0.31832 v -0.334864 h 0.31832 V 50.98759 l 0.42995,-0.260451 v 0.892969 h 0.43821 v 0.334864 h -0.43821 v 1.500683 q 0,0.181901 0.0207,0.235646 0.0248,0.05374 0.0744,0.08681 0.0537,0.02894 0.15296,0.02894 0.0703,0 0.19017,-0.01654 z m 0.25107,-0.376205 0.42995,-0.06615 q 0.0331,0.256315 0.19844,0.396875 0.16536,0.136427 0.46302,0.136427 0.29765,0 0.44235,-0.119891 0.14469,-0.124023 0.14469,-0.289388 0,-0.144693 -0.12816,-0.23151 -0.0868,-0.05788 -0.44235,-0.144693 -0.47955,-0.124023 -0.66559,-0.210841 -0.1819,-0.08682 -0.27698,-0.239779 -0.0951,-0.157096 -0.0951,-0.347265 0,-0.169498 0.0786,-0.314193 0.0786,-0.148828 0.21497,-0.243912 0.0992,-0.07441 0.27285,-0.124023 0.17777,-0.05374 0.37621,-0.05374 0.30179,0 0.52917,0.08682 0.22737,0.08682 0.33486,0.235643 0.11162,0.148828 0.15296,0.396875 l -0.42581,0.05788 q -0.0289,-0.198438 -0.1695,-0.310058 -0.13643,-0.111622 -0.38861,-0.111622 -0.30179,0 -0.42994,0.09922 -0.12403,0.09922 -0.12403,0.23151 0,0.08268 0.0496,0.152964 0.0537,0.07028 0.1695,0.115755 0.062,0.02479 0.38034,0.11162 0.46302,0.11989 0.64492,0.198437 0.1819,0.07855 0.28525,0.227378 0.10336,0.148828 0.10336,0.37207 0,0.219107 -0.12816,0.409276 -0.12402,0.190169 -0.3638,0.297656 -0.23978,0.103355 -0.54157,0.103355 -0.4961,0 -0.76068,-0.206706 -0.26045,-0.206706 -0.33073,-0.615984 z"
     id="path83"
     style="fill:#000000;fill-rule:nonzero;stroke:none;stroke-width:0.26458332;stroke-linecap:square;stroke-miterlimit:10" />
  <path
     d="m 126.81006,61.884372 h 68.78051 l 2.07782,2.077821 v 10.388843 h -70.85833 z"
     id="path85"
     style="fill:#00ffff;fill-rule:evenodd;stroke:none;stroke-width:0.26458332;stroke-linecap:square;stroke-miterlimit:10" />
  <path
     d="m 126.81006,61.884372 h 68.78051 l 2.07782,2.077821 v 10.388843 h -70.85833 z"
     id="path87"
     style="fill:none;fill-rule:evenodd;stroke:#000000;stroke-width:0.26458332;stroke-linecap:butt;stroke-linejoin:round;stroke-miterlimit:10" />
  <path
     d="m 129.18304,70.468069 1.35599,-3.534666 h 0.50436 l 1.44694,3.534666 h -0.53329 l -0.40928,-1.070734 h -1.48002 l -0.3886,1.070734 z m 1.02113,-1.451073 h 1.19889 l -0.37207,-0.979786 q -0.16537,-0.446484 -0.24805,-0.731737 -0.0703,0.338997 -0.19017,0.673859 z m 2.60609,1.451073 v -2.559015 h 0.38861 v 0.363802 q 0.28112,-0.42168 0.81442,-0.42168 0.23151,0 0.42581,0.08268 0.1943,0.08268 0.28939,0.219107 0.0992,0.132292 0.13642,0.318328 0.0248,0.119888 0.0248,0.42168 v 1.575096 h -0.43408 v -1.55856 q 0,-0.264583 -0.0537,-0.392742 -0.0496,-0.132291 -0.17776,-0.210838 -0.12816,-0.07855 -0.3018,-0.07855 -0.27698,0 -0.47955,0.177768 -0.19844,0.173633 -0.19844,0.665592 v 1.39733 z m 2.57161,-0.76481 0.42995,-0.06615 q 0.0331,0.256315 0.19844,0.396875 0.16536,0.136424 0.46302,0.136424 0.29765,0 0.44235,-0.119888 0.14469,-0.124023 0.14469,-0.289388 0,-0.144695 -0.12816,-0.23151 -0.0868,-0.05788 -0.44235,-0.144696 -0.47955,-0.124023 -0.66559,-0.210838 -0.1819,-0.08682 -0.27698,-0.239779 -0.0951,-0.157096 -0.0951,-0.347266 0,-0.1695 0.0786,-0.314192 0.0786,-0.148828 0.21497,-0.243914 0.0992,-0.07441 0.27285,-0.124024 0.17777,-0.05374 0.37621,-0.05374 0.30179,0 0.52916,0.08682 0.22738,0.08682 0.33487,0.235646 0.11162,0.148828 0.15296,0.396875 l -0.42581,0.05788 q -0.0289,-0.198438 -0.1695,-0.31006 -0.13643,-0.11162 -0.38861,-0.11162 -0.30179,0 -0.42995,0.09922 -0.12402,0.09922 -0.12402,0.23151 0,0.08268 0.0496,0.152961 0.0537,0.07028 0.1695,0.115755 0.062,0.02479 0.38034,0.111623 0.46302,0.119888 0.64492,0.198437 0.1819,0.07855 0.28525,0.227375 0.10336,0.148828 0.10336,0.37207 0,0.21911 -0.12816,0.409279 -0.12403,0.190169 -0.36381,0.297656 -0.23977,0.103352 -0.54156,0.103352 -0.4961,0 -0.76068,-0.206706 -0.26045,-0.206706 -0.33073,-0.615982 z m 2.6417,-2.26963 v -0.500226 h 0.43408 v 0.500226 z m 0,3.03444 v -2.559015 h 0.43408 v 2.559015 z m 1.49353,0 h -0.40101 v -3.534666 h 0.43408 v 1.260903 q 0.27699,-0.34313 0.7028,-0.34313 0.23565,0 0.44649,0.09508 0.21084,0.09509 0.34726,0.268719 0.13643,0.169498 0.21084,0.413412 0.0786,0.243911 0.0786,0.520898 0,0.657323 -0.32659,1.016992 -0.32246,0.359667 -0.78135,0.359667 -0.45062,0 -0.71107,-0.380339 z m -0.004,-1.298112 q 0,0.458888 0.12816,0.665594 0.20257,0.334862 0.55397,0.334862 0.28525,0 0.49196,-0.248047 0.20671,-0.248047 0.20671,-0.735872 0,-0.500227 -0.19844,-0.740005 -0.19844,-0.239779 -0.48369,-0.239779 -0.28112,0 -0.49196,0.248047 -0.20671,0.248047 -0.20671,0.7152 z m 2.3401,1.298112 v -3.534666 h 0.43408 v 3.534666 z m 2.86191,-0.822687 0.44648,0.05374 q -0.10749,0.392742 -0.39274,0.611849 -0.28525,0.214974 -0.73174,0.214974 -0.56224,0 -0.89297,-0.34313 -0.32659,-0.347266 -0.32659,-0.971519 0,-0.649054 0.33073,-1.004588 0.33486,-0.355534 0.86403,-0.355534 0.51263,0 0.83509,0.351399 0.32659,0.347265 0.32659,0.979786 0,0.04134 0,0.115755 h -1.90996 q 0.0248,0.42168 0.23978,0.649055 0.21498,0.223242 0.5333,0.223242 0.23978,0 0.40928,-0.124023 0.1695,-0.128157 0.26872,-0.401008 z m -1.42627,-0.7028 h 1.4304 q -0.0289,-0.322461 -0.16536,-0.483692 -0.20671,-0.25218 -0.53744,-0.25218 -0.29765,0 -0.50436,0.20257 -0.20257,0.198438 -0.22324,0.533302 z m 3.79006,2.505274 v -3.538802 h 0.39274 v 0.330729 q 0.14056,-0.194305 0.31419,-0.289388 0.17777,-0.09922 0.42995,-0.09922 0.3266,0 0.57465,0.169497 0.25218,0.165365 0.38033,0.475425 0.12816,0.305924 0.12816,0.673859 0,0.392743 -0.14056,0.706935 -0.14056,0.314193 -0.40928,0.48369 -0.26871,0.165365 -0.56637,0.165365 -0.21497,0 -0.38861,-0.09095 -0.17363,-0.09095 -0.28112,-0.23151 v 1.24437 z m 0.39274,-2.244826 q 0,0.491961 0.19844,0.73174 0.20257,0.235643 0.48369,0.235643 0.28939,0 0.4961,-0.243911 0.2067,-0.248047 0.2067,-0.760677 0,-0.487826 -0.20257,-0.73174 -0.19844,-0.243912 -0.47956,-0.243912 -0.27698,0 -0.49196,0.260448 -0.21084,0.256315 -0.21084,0.752409 z m 2.3401,1.265039 v -3.534666 h 0.43408 v 3.534666 z m 2.77924,-0.314192 q -0.24391,0.202573 -0.46715,0.289388 -0.21911,0.08268 -0.47543,0.08268 -0.42168,0 -0.64905,-0.206706 -0.22738,-0.206706 -0.22738,-0.525031 0,-0.190169 0.0868,-0.343133 0.0868,-0.157096 0.22324,-0.248047 0.14056,-0.09508 0.31419,-0.144692 0.12403,-0.03307 0.38448,-0.06615 0.52503,-0.06201 0.77307,-0.148828 0.004,-0.09095 0.004,-0.111623 0,-0.264583 -0.12402,-0.376203 -0.16537,-0.144695 -0.4961,-0.144695 -0.30592,0 -0.45062,0.107487 -0.14469,0.107487 -0.21497,0.376205 l -0.42581,-0.05788 q 0.0579,-0.268719 0.19017,-0.434083 0.13229,-0.169498 0.38447,-0.260448 0.25218,-0.09095 0.57877,-0.09095 0.33073,0 0.53331,0.07855 0.2067,0.07441 0.30179,0.194305 0.0992,0.115755 0.13642,0.29352 0.0207,0.111623 0.0207,0.401011 v 0.578776 q 0,0.603581 0.0289,0.76481 0.0289,0.157096 0.10748,0.305924 h -0.45062 q -0.0703,-0.136424 -0.0868,-0.314192 z m -0.0372,-0.971516 q -0.23564,0.09922 -0.70693,0.165365 -0.26872,0.03721 -0.38034,0.08682 -0.11162,0.04961 -0.17363,0.14056 -0.0579,0.09095 -0.0579,0.206705 0,0.173633 0.13229,0.289388 0.1323,0.115756 0.38448,0.115756 0.24804,0 0.44235,-0.107487 0.19843,-0.11162 0.28939,-0.30179 0.0703,-0.148828 0.0703,-0.434083 z m 1.0916,2.269628 -0.0496,-0.405144 q 0.1447,0.03721 0.24805,0.03721 0.1447,0 0.23151,-0.04961 0.0868,-0.04548 0.1447,-0.132291 0.0413,-0.06615 0.13229,-0.322461 0.0124,-0.03721 0.0372,-0.107487 l -0.97151,-2.563151 h 0.46715 l 0.5333,1.480013 q 0.10336,0.285252 0.18604,0.595312 0.0744,-0.297656 0.17777,-0.582911 l 0.54983,-1.492414 h 0.43409 l -0.97566,2.600356 q -0.15709,0.425816 -0.24391,0.582912 -0.11575,0.214974 -0.26458,0.314193 -0.14883,0.09922 -0.35554,0.09922 -0.12815,0 -0.28112,-0.05374 z m 2.88562,-0.98392 h -0.40101 v -3.534666 h 0.43408 v 1.260903 q 0.27699,-0.34313 0.7028,-0.34313 0.23564,0 0.44648,0.09508 0.21084,0.09509 0.34727,0.268719 0.13642,0.169498 0.21084,0.413412 0.0786,0.243911 0.0786,0.520898 0,0.657323 -0.3266,1.016992 -0.32246,0.359667 -0.78135,0.359667 -0.45061,0 -0.71106,-0.380339 z m -0.004,-1.298112 q 0,0.458888 0.12815,0.665594 0.20258,0.334862 0.55398,0.334862 0.28525,0 0.49196,-0.248047 0.2067,-0.248047 0.2067,-0.735872 0,-0.500227 -0.19844,-0.740005 -0.19843,-0.239779 -0.48369,-0.239779 -0.28112,0 -0.49196,0.248047 -0.2067,0.248047 -0.2067,0.7152 z m 2.19126,0.01654 q 0,-0.711068 0.39274,-1.050065 0.33073,-0.285253 0.80615,-0.285253 0.52917,0 0.86403,0.347266 0.33486,0.34313 0.33486,0.954979 0,0.491961 -0.14883,0.777213 -0.14882,0.28112 -0.43408,0.438217 -0.28112,0.157096 -0.61598,0.157096 -0.53744,0 -0.86816,-0.34313 -0.33073,-0.347266 -0.33073,-0.996323 z m 0.44648,0 q 0,0.491961 0.21084,0.740008 0.21498,0.243911 0.54157,0.243911 0.32246,0 0.53743,-0.243911 0.21498,-0.248047 0.21498,-0.752409 0,-0.475425 -0.21498,-0.719336 -0.21497,-0.243914 -0.53743,-0.243914 -0.32659,0 -0.54157,0.243914 -0.21084,0.239778 -0.21084,0.731737 z m 2.29876,0 q 0,-0.711068 0.39274,-1.050065 0.33073,-0.285253 0.80615,-0.285253 0.52917,0 0.86404,0.347266 0.33486,0.34313 0.33486,0.954979 0,0.491961 -0.14883,0.777213 -0.14883,0.28112 -0.43408,0.438217 -0.28112,0.157096 -0.61599,0.157096 -0.53743,0 -0.86816,-0.34313 -0.33073,-0.347266 -0.33073,-0.996323 z m 0.44649,0 q 0,0.491961 0.21084,0.740008 0.21497,0.243911 0.54156,0.243911 0.32247,0 0.53744,-0.243911 0.21497,-0.248047 0.21497,-0.752409 0,-0.475425 -0.21497,-0.719336 -0.21497,-0.243914 -0.53744,-0.243914 -0.32659,0 -0.54156,0.243914 -0.21084,0.239778 -0.21084,0.731737 z m 2.45999,1.281575 v -3.534666 h 0.43408 v 2.017448 l 1.02939,-1.041797 h 0.55811 l -0.97565,0.950846 1.07487,1.608169 h -0.5333 l -0.8475,-1.310513 -0.30592,0.297657 v 1.012856 z m 2.29443,-0.76481 0.42995,-0.06615 q 0.0331,0.256315 0.19844,0.396875 0.16536,0.136424 0.46302,0.136424 0.29765,0 0.44235,-0.119888 0.14469,-0.124023 0.14469,-0.289388 0,-0.144695 -0.12816,-0.23151 -0.0868,-0.05788 -0.44235,-0.144696 -0.47955,-0.124023 -0.66559,-0.210838 -0.1819,-0.08682 -0.27698,-0.239779 -0.0951,-0.157096 -0.0951,-0.347266 0,-0.1695 0.0786,-0.314192 0.0785,-0.148828 0.21497,-0.243914 0.0992,-0.07441 0.27285,-0.124024 0.17777,-0.05374 0.37621,-0.05374 0.30179,0 0.52917,0.08682 0.22737,0.08682 0.33486,0.235646 0.11162,0.148828 0.15296,0.396875 l -0.42581,0.05788 q -0.0289,-0.198438 -0.1695,-0.31006 -0.13643,-0.11162 -0.38861,-0.11162 -0.30179,0 -0.42995,0.09922 -0.12402,0.09922 -0.12402,0.23151 0,0.08268 0.0496,0.152961 0.0537,0.07028 0.1695,0.115755 0.062,0.02479 0.38034,0.111623 0.46302,0.119888 0.64492,0.198437 0.1819,0.07855 0.28525,0.227375 0.10336,0.148828 0.10336,0.37207 0,0.21911 -0.12816,0.409279 -0.12402,0.190169 -0.3638,0.297656 -0.23978,0.103352 -0.54157,0.103352 -0.4961,0 -0.76068,-0.206706 -0.26045,-0.206706 -0.33073,-0.615982 z"
     id="path89"
     style="fill:#000000;fill-rule:nonzero;stroke:none;stroke-width:0.26458332;stroke-linecap:square;stroke-miterlimit:10" />
  <path
     d="m 108.91042,49.012724 h 12.30417 v -1.668749 l 3.3375,3.337497 -3.3375,3.337499 v -1.668746 h -12.30417 z"
     id="path91"
     style="fill:#cfe2f3;fill-rule:evenodd;stroke:none;stroke-width:0.26458332;stroke-linecap:square;stroke-miterlimit:10" />
  <path
     d="m 108.91042,49.012724 h 12.30417 v -1.668749 l 3.3375,3.337497 -3.3375,3.337499 v -1.668746 h -12.30417 z"
     id="path93"
     style="fill:none;fill-rule:evenodd;stroke:#000000;stroke-width:0.26458332;stroke-linecap:butt;stroke-linejoin:round;stroke-miterlimit:10" />
  <path
     d="m 108.91042,65.946052 h 12.30417 v -1.668746 l 3.3375,3.337499 -3.3375,3.337497 v -1.668743 h -12.30417 z"
     id="path95"
     style="fill:#cfe2f3;fill-rule:evenodd;stroke:none;stroke-width:0.26458332;stroke-linecap:square;stroke-miterlimit:10" />
  <path
     d="m 108.91042,65.946052 h 12.30417 v -1.668746 l 3.3375,3.337499 -3.3375,3.337497 v -1.668743 h -12.30417 z"
     id="path97"
     style="fill:none;fill-rule:evenodd;stroke:#000000;stroke-width:0.26458332;stroke-linecap:butt;stroke-linejoin:round;stroke-miterlimit:10" />
</svg>
