<?xml version="1.0" encoding="UTF-8" standalone="no"?>
<!-- Created with Inkscape (http://www.inkscape.org/) -->
<svg
   xmlns:svg="http://www.w3.org/2000/svg"
   xmlns="http://www.w3.org/2000/svg"
   version="1.0"
   width="111.52"
   height="100"
   id="svg3017">
  <defs
     id="defs3019" />
  <g
     transform="matrix(0.4523862,0,0,0.4523862,-28.009996,-24.300704)"
     id="g6039">
    <path
       d="M 192.86534,56.061481 C 192.36173,56.001958 177.04791,71.601258 169.88288,78.655471 C 176.27757,76.632509 187.258,72.858149 188.75784,73.035772 C 190.25845,73.213382 198.81453,79.323493 203.90158,82.70395 C 200.45634,74.408167 193.36963,56.121106 192.86534,56.061481 z M 256.56564,75.679414 C 256.19703,75.470177 226.37543,82.344843 212.67149,85.374045 C 220.32408,85.916589 233.75821,86.605813 234.85605,87.228257 C 235.95576,87.851868 236.78146,95.293021 237.53092,99.511345 C 243.45051,92.092902 256.93475,75.888665 256.56564,75.679414 z M 125.42293,59.592937 C 124.97638,59.705437 130.08281,78.06997 132.18928,86.449319 C 134.88117,82.633972 139.1244,75.81667 140.45346,75.481547 C 141.78428,75.14601 154.86419,77.615692 162.3432,78.86324 C 150.84856,72.862022 125.86977,59.480312 125.42293,59.592937 z M 290.22827,111.27313 C 290.13546,110.99458 257.1852,106.5389 242.18642,104.38604 C 248.17919,107.28669 258.97529,112.18749 259.25143,113.01669 C 259.52792,113.84738 252.26311,119.75777 248.38968,123.20613 C 261.40772,119.49699 290.32106,111.5521 290.22827,111.27313 z M 125.48113,90.005528 C 110.30347,88.587271 77.076206,85.20923 76.857612,85.45104 C 76.63901,85.692911 100.20589,99.814697 110.77468,106.3235 C 108.73772,102.17566 104.66761,94.929258 105.31915,94.208612 C 105.96936,93.48931 118.45677,91.365927 125.48113,90.005528 z M 247.14367,128.41486 C 249.1807,132.56293 253.25058,139.80912 252.59919,140.52974 C 251.94886,141.24904 239.46162,143.37243 232.43729,144.7328 C 247.61504,146.15105 280.8422,149.52911 281.06077,149.2873 C 281.27943,149.04544 257.71247,134.92365 247.14367,128.41486 z M 107.57689,111.87714 C 94.559095,115.58622 65.645568,123.53114 65.738468,123.81028 C 65.83118,124.08875 98.781509,128.54433 113.78023,130.6972 C 107.78763,127.79653 96.991334,122.89566 96.715376,122.06653 C 96.438807,121.23574 103.70368,115.32544 107.57689,111.87714 z M 225.72916,148.289 C 223.03722,152.10435 218.79412,158.92166 217.46494,159.2568 C 216.13407,159.59235 203.05422,157.12265 195.57518,155.87511 C 207.06981,161.87632 232.0487,175.2581 232.49567,175.14539 C 232.94189,175.03294 227.83555,156.66839 225.72916,148.289 z M 118.43579,135.57189 C 112.51623,142.99034 99.032017,159.19458 99.401191,159.40382 C 99.769581,159.61299 129.59124,152.73839 143.29535,149.70918 C 135.64251,149.16662 122.20862,148.4774 121.11055,147.85492 C 120.01096,147.23135 119.18522,139.79024 118.43579,135.57189 z M 186.08383,156.42778 C 179.68914,158.45076 168.70875,162.2251 167.2089,162.04747 C 165.70846,161.86983 157.15205,155.75978 152.06515,152.37921 C 155.51037,160.67499 162.59724,178.96218 163.10148,179.02172 C 163.6049,179.08114 178.91889,163.48205 186.08383,156.42778 z"
       id="path3766"
       style="opacity:1;fill:#fcc917;fill-opacity:1" />
    <g
       transform="matrix(1.2433595,-5.6480692e-2,-8.5186357e-3,1.1425318,-55.4332,-219.33549)"
       id="g3512"
       style="enable-background:new">
      <g
         transform="matrix(0.7599177,-1.1926916e-2,0,0.7500728,246.58115,378.18196)"
         id="g3514">
        <g
           transform="matrix(2.8294915,-0.5196682,1.922722,2.7658074,-1390.7458,-622.14861)"
           id="g3516">
          <path
             d="M 281.53626,237.15326 L 309.04792,236.5462 C 309.33518,236.5462 309.59444,236.6623 309.78189,236.8505 C 309.96933,237.03871 310.08496,237.29903 310.08496,237.58747 L 315.59103,256.77195 C 315.59103,257.06038 315.4754,257.32069 315.28796,257.5089 C 315.10051,257.69711 314.84125,257.81322 314.55399,257.81322 L 287.42625,257.85531 C 286.85174,257.85531 286.38922,257.3909 286.38922,256.81404 L 280.49923,238.19453 C 280.49923,237.61766 280.96175,237.15326 281.53626,237.15326 z"
             id="path3518"
             style="fill:#8d0000;fill-opacity:1" />
          <path
             d="M 293.04884,250.57475 L 317.14147,250.11423 C 315.07369,251.81667 313.3993,254.18879 313.41979,256.35148 L 288.81484,256.43251 C 286.0145,256.29145 290.73785,250.22017 293.04884,250.57475 z"
             id="path3520"
             style="fill:#e9e9e9;fill-opacity:1" />
          <g
             transform="matrix(0.4446532,4.8226295e-2,-0.1333755,0.1962764,116.26445,175.89592)"
             id="g3522">
            <path
               d="M 473.62579,276.25731 L 523.62044,263.93981"
               id="path3524"
               style="fill:none;fill-opacity:1;fill-rule:evenodd;stroke:#c5c5c5;stroke-width:1.61703646;stroke-linecap:butt;stroke-linejoin:miter;stroke-miterlimit:4;stroke-dasharray:none;stroke-opacity:1" />
            <path
               d="M 473.62579,279.2625 L 523.62044,266.945"
               id="path3526"
               style="fill:none;fill-opacity:1;fill-rule:evenodd;stroke:#c5c5c5;stroke-width:1.61703646;stroke-linecap:butt;stroke-linejoin:miter;stroke-miterlimit:4;stroke-dasharray:none;stroke-opacity:1" />
            <path
               d="M 473.62579,282.26769 L 523.62044,269.95019"
               id="path3528"
               style="fill:none;fill-opacity:1;fill-rule:evenodd;stroke:#c5c5c5;stroke-width:1.61703646;stroke-linecap:butt;stroke-linejoin:miter;stroke-miterlimit:4;stroke-dasharray:none;stroke-opacity:1" />
            <path
               d="M 473.62579,285.27287 L 523.62044,272.95537"
               id="path3530"
               style="fill:none;fill-opacity:1;fill-rule:evenodd;stroke:#c5c5c5;stroke-width:1.61703646;stroke-linecap:butt;stroke-linejoin:miter;stroke-miterlimit:4;stroke-dasharray:none;stroke-opacity:1" />
          </g>
          <path
             d="M 297.97117,252.53831 C 301.52552,259.77574 299.81365,262.75273 299.81365,262.75273 C 302.15674,261.43854 303.80178,259.85198 304.40731,257.85976 C 306.10363,259.91709 307.68732,262.00721 311.02425,263.58697 C 311.02425,263.58697 308.17102,256.67636 306.99795,252.72547 L 297.97117,252.53831 z"
             id="path3532"
             style="fill:#0093d9;fill-opacity:1;stroke-width:2" />
          <path
             d="M 284.57789,231.78049 L 311.35381,231.98057 C 312.03942,231.98057 312.59137,232.53252 312.59137,233.21812 L 319.65855,249.0056 C 319.65855,249.6912 319.1066,250.24315 318.42099,250.24315 L 291.3756,249.90132 L 283.34033,233.01804 C 283.34033,232.33244 283.89228,231.78049 284.57789,231.78049 z"
             id="path3534"
             style="fill:#dd0000;fill-opacity:1" />
          <path
             d="M 561.28654,723.79839 L 568.34651,724.74078 L 583.86424,755.94328 C 577.11681,751.41241 569.71648,751.11691 576.70523,757.59052 C 574.88729,756.03795 574.18932,755.15392 573.89566,754.38642 L 559.19631,724.60166 C 558.59129,723.42343 559.45336,723.55616 561.28654,723.79839 z"
             transform="matrix(0.499065,-0.866565,0,1,0,0)"
             id="path3536"
             style="fill:#bc0000;fill-opacity:1" />
          <path
             d="M 284.81403,231.70142 L 310.76827,231.67318 C 311.23825,231.67318 311.61659,232.05154 311.61659,232.52151 C 311.84112,239.11592 297.48249,247.99953 290.73174,248.61015 L 283.9657,232.54975 C 283.9657,232.07978 284.34405,231.70142 284.81403,231.70142 z"
             id="path3538"
             style="opacity:1;fill:#eb2f1a;fill-opacity:1" />
          <path
             d="M 319.47279,249.25686 C 319.47279,249.94246 319.11267,250.24441 318.42706,250.24441 L 291.96418,250.69265 L 291.35826,249.84959 C 298.49858,249.63625 310.11914,249.64123 319.47279,249.25686 z"
             id="path3542"
             style="fill:#a70000;fill-opacity:1" />
        </g>
      </g>
    </g>
    <text
       x="292.86414"
       y="248.91431"
       id="text2432"
       xml:space="preserve"
       style="font-size:16.76550293px;font-style:normal;font-variant:normal;font-weight:normal;font-stretch:normal;text-align:end;line-height:125%;writing-mode:lr-tb;text-anchor:end;fill:#888a85;fill-opacity:1;stroke:none;stroke-width:1px;stroke-linecap:butt;stroke-linejoin:miter;stroke-opacity:1;font-family:Liberation Sans;-inkscape-font-specification:Liberation Sans"><tspan
         x="292.86414"
         y="248.91431"
         id="tspan2434"
         style="font-size:16.76550293px;font-style:normal;font-variant:normal;font-weight:normal;font-stretch:normal;text-align:end;line-height:125%;letter-spacing:0.55818075;writing-mode:lr-tb;text-anchor:end;fill:#888a85;font-family:Liberation Sans;-inkscape-font-specification:Liberation Sans">BOOK PUBLISHING TOOL</tspan></text>
    <path
       d="M 94.901514,193.09946 C 94.901487,191.45943 94.757983,190.07564 94.470999,188.94807 C 94.183964,187.82056 93.712448,186.91853 93.056451,186.24198 C 92.420905,185.54499 91.570127,185.04272 90.504114,184.73517 C 89.458557,184.4277 88.167015,184.27395 86.629482,184.27391 L 84.20015,184.27391 L 84.20015,202.57078 L 86.752487,202.57078 C 88.310519,202.5708 89.602062,202.37605 90.627119,201.98651 C 91.672631,201.57652 92.513158,200.982 93.148704,200.20295 C 93.7842,199.40345 94.235215,198.41941 94.501751,197.25085 C 94.768233,196.06184 94.901487,194.67804 94.901514,193.09946 M 84.20015,205.9534 L 84.20015,219.05334 L 91.057633,219.88362 L 91.057633,222.12845 L 69.593402,222.12845 L 69.593402,219.88362 L 74.482819,219.05334 L 74.482819,183.93565 L 69.193638,183.13612 L 69.193638,180.89129 L 87.367507,180.89129 C 90.811602,180.89133 93.650946,181.2091 95.885548,181.84458 C 98.140594,182.45964 99.924153,183.32067 101.23623,184.42766 C 102.56874,185.51424 103.49127,186.79553 104.00382,188.27155 C 104.53681,189.74763 104.80331,191.33643 104.80335,193.03796 C 104.80331,194.71904 104.57781,196.3386 104.12683,197.89662 C 103.69628,199.4547 102.907,200.82824 101.759,202.01726 C 100.63143,203.20632 99.093876,204.1596 97.146341,204.87711 C 95.198747,205.59465 92.728416,205.95341 89.735338,205.9534 L 84.20015,205.9534 M 126.8165,219.60686 C 126.18095,219.93488 125.48393,220.29364 124.72543,220.68315 C 123.96688,221.07266 123.16736,221.43143 122.32684,221.75944 C 121.4863,222.08745 120.61502,222.35396 119.71301,222.55896 C 118.81096,222.78447 117.89868,222.89722 116.97616,222.89722 C 115.80761,222.89722 114.73133,222.74347 113.7473,222.43596 C 112.76326,222.12845 111.91248,221.63643 111.19497,220.95991 C 110.49794,220.28339 109.95467,219.40186 109.56516,218.31532 C 109.17564,217.22879 108.98089,215.91674 108.98089,214.37918 L 108.98089,195.99006 L 106.09029,195.25203 L 106.09029,193.22246 L 117.86794,193.22246 L 117.86794,213.17989 C 117.86793,214.90196 118.22669,216.24475 118.94423,217.20828 C 119.68224,218.17182 120.72777,218.65358 122.08084,218.65358 C 123.63887,218.65358 125.19692,218.30507 126.755,217.60804 L 126.755,195.99006 L 124.11041,195.25203 L 124.11041,193.22246 L 135.64205,193.22246 L 135.64205,219.36085 L 138.47114,220.09888 L 138.47114,222.12845 L 127.24701,222.12845 L 126.8165,219.60686 M 161.28124,206.84518 C 161.28122,204.75412 161.14797,203.01157 160.88148,201.6175 C 160.61495,200.20297 160.22544,199.07544 159.71294,198.23488 C 159.2004,197.37388 158.56488,196.76911 157.80638,196.42057 C 157.06833,196.05159 156.2278,195.86708 155.28479,195.86705 C 154.50575,195.86708 153.65497,195.95933 152.73245,196.14381 C 151.80991,196.30784 151.05138,196.5641 150.45688,196.91259 L 150.45688,219.02259 C 151.11289,219.1866 151.87141,219.30961 152.73245,219.39161 C 153.61397,219.47361 154.46475,219.51461 155.28479,219.51461 C 156.39181,219.51461 157.32459,219.23785 158.08314,218.68433 C 158.84164,218.13082 159.45666,217.32104 159.9282,216.255 C 160.42019,215.16847 160.7687,213.83592 160.97373,212.25736 C 161.17872,210.67882 161.28122,208.87476 161.28124,206.84518 M 141.56982,181.1373 L 138.61772,180.43003 L 138.61772,178.43121 L 150.45688,178.43121 L 150.45688,189.04032 C 150.45686,189.79888 150.42611,190.71116 150.36462,191.77716 C 150.32361,192.84323 150.25186,193.86826 150.14937,194.85227 C 150.60037,194.48328 151.13339,194.15527 151.74842,193.86824 C 152.38393,193.58125 153.06045,193.33525 153.77799,193.13021 C 154.516,192.90473 155.26427,192.74073 156.02282,192.63819 C 156.78132,192.51522 157.51935,192.45372 158.23689,192.45369 C 160.38944,192.45372 162.22425,192.75098 163.74133,193.34547 C 165.25835,193.91952 166.49864,194.80104 167.46221,195.99006 C 168.44621,197.17912 169.16373,198.67567 169.61478,200.47971 C 170.06576,202.28379 170.29127,204.41586 170.2913,206.87593 C 170.29127,209.21302 169.99401,211.35534 169.39952,213.3029 C 168.82547,215.22997 167.95419,216.90078 166.78568,218.31532 C 165.61711,219.70937 164.14107,220.7959 162.35753,221.57493 C 160.59445,222.35396 158.52388,222.74347 156.14582,222.74347 C 154.17774,222.74347 151.93291,222.53846 149.41134,222.12845 C 146.91025,221.73894 144.29641,221.24692 141.56982,220.6524 L 141.56982,181.1373 M 183.63008,219.36085 L 186.79744,220.09888 L 186.79744,222.12845 L 171.60642,222.12845 L 171.60642,220.09888 L 174.74303,219.36085 L 174.74303,181.1988 L 171.79093,180.46078 L 171.79093,178.43121 L 183.63008,178.43121 L 183.63008,219.36085 M 200.78714,219.36085 L 203.9545,220.09888 L 203.9545,222.12845 L 188.76348,222.12845 L 188.76348,220.09888 L 191.90008,219.36085 L 191.90008,195.99006 L 188.94798,195.25203 L 188.94798,193.22246 L 200.78714,193.22246 L 200.78714,219.36085 M 191.59257,183.13612 C 191.59257,182.48014 191.71557,181.86512 191.96159,181.29106 C 192.20759,180.71708 192.54585,180.22506 192.97637,179.81501 C 193.40688,179.38453 193.90915,179.04627 194.48317,178.80022 C 195.05718,178.55426 195.6722,178.43125 196.32824,178.43121 C 196.98425,178.43125 197.59927,178.55426 198.1733,178.80022 C 198.74731,179.04627 199.23932,179.38453 199.64935,179.81501 C 200.07985,180.22506 200.41811,180.71708 200.66413,181.29106 C 200.91013,181.86512 201.03313,182.48014 201.03315,183.13612 C 201.03313,183.79218 200.91013,184.4072 200.66413,184.98118 C 200.41811,185.55524 200.07985,186.05751 199.64935,186.48798 C 199.23932,186.91853 198.74731,187.2568 198.1733,187.50277 C 197.59927,187.74881 196.98425,187.87182 196.32824,187.87178 C 195.6722,187.87182 195.05718,187.74881 194.48317,187.50277 C 193.90915,187.2568 193.40688,186.91853 192.97637,186.48798 C 192.54585,186.05751 192.20759,185.55524 191.96159,184.98118 C 191.71557,184.4072 191.59257,183.79218 191.59257,183.13612 M 228.53149,220.37564 C 228.03945,220.76515 227.45518,221.10341 226.77868,221.39042 C 226.12263,221.67743 225.39486,221.92344 224.59536,222.12845 C 223.81631,222.31295 223.00653,222.45646 222.16602,222.55896 C 221.32548,222.66147 220.4952,222.71272 219.67519,222.71272 C 216.92808,222.71272 214.58075,222.37446 212.6332,221.69793 C 210.68562,221.00091 209.09682,220.00663 207.86679,218.71508 C 206.63674,217.42354 205.73471,215.84499 205.16069,213.97942 C 204.58667,212.11387 204.29966,209.99205 204.29966,207.61395 C 204.29966,204.96938 204.67892,202.69381 205.43745,200.78722 C 206.19597,198.86018 207.22101,197.28163 208.51256,196.05156 C 209.82459,194.82155 211.34165,193.91952 213.06371,193.34547 C 214.78576,192.75098 216.60007,192.45372 218.50665,192.45369 C 220.26969,192.45372 221.93025,192.56647 223.48832,192.79195 C 225.06685,192.99699 226.53265,193.24299 227.88572,193.52997 L 227.88572,202.07877 L 225.67164,202.07877 L 224.3801,197.00484 C 224.05207,196.75886 223.72405,196.55385 223.39606,196.38982 C 223.08853,196.20534 222.75027,196.06184 222.38128,195.95931 C 222.01225,195.83633 221.60223,195.75433 221.15124,195.7133 C 220.72071,195.65182 220.21844,195.62107 219.64444,195.62105 C 218.84489,195.62107 218.06587,195.85683 217.30736,196.32832 C 216.54882,196.77936 215.86204,197.48663 215.24704,198.45014 C 214.6525,199.3932 214.17074,200.61299 213.80174,202.10952 C 213.43271,203.60609 213.24821,205.37939 213.24822,207.42945 C 213.24821,209.15152 213.36096,210.71982 213.58648,212.13436 C 213.83248,213.54891 214.25274,214.75845 214.84727,215.76298 C 215.44178,216.76752 216.26181,217.54655 217.30736,218.10006 C 218.35288,218.63308 219.67517,218.89959 221.27424,218.89959 C 222.60677,218.89959 223.91881,218.81759 225.21038,218.65358 C 226.5224,218.48958 227.62943,218.27432 228.53149,218.00781 L 228.53149,220.37564 M 244.03693,192.57669 C 245.61546,192.57672 247.07101,192.70998 248.40357,192.97646 C 249.7361,193.24299 250.88413,193.69401 251.84769,194.3295 C 252.8112,194.94455 253.55947,195.76458 254.09252,196.78959 C 254.62551,197.81464 254.89202,199.07544 254.89204,200.57196 L 254.89204,219.36085 L 257.78264,220.09888 L 257.78264,222.12845 L 247.14278,222.12845 L 246.46626,219.91437 C 246.07673,220.18088 245.61546,220.47814 245.08246,220.80615 C 244.56993,221.13417 243.97541,221.44168 243.2989,221.72868 C 242.62236,222.01569 241.86384,222.25145 241.02332,222.43596 C 240.18278,222.64097 239.25,222.74347 238.22498,222.74347 C 236.54391,222.74347 235.12936,222.52821 233.98133,222.0977 C 232.85379,221.66718 231.94151,221.07266 231.24449,220.31414 C 230.54746,219.53511 230.0452,218.62283 229.73769,217.57729 C 229.43018,216.51126 229.27642,215.36322 229.27642,214.13318 C 229.27642,212.14462 229.62493,210.55582 230.32196,209.36676 C 231.01898,208.17774 231.95176,207.26546 233.1203,206.62992 C 234.30934,205.97391 235.68288,205.5434 237.24094,205.33838 C 238.81949,205.13339 240.49029,205.01038 242.25336,204.96936 L 246.00499,204.87711 L 246.00499,200.66422 C 246.00497,198.96268 245.65646,197.67114 244.95946,196.78959 C 244.26242,195.88758 243.18613,195.43657 241.7306,195.43654 C 240.60304,195.43657 239.56776,195.60057 238.62474,195.92856 C 237.7022,196.23609 236.81042,196.6051 235.9494,197.03559 L 234.78086,200.63347 L 232.75129,200.63347 L 232.75129,193.65298 C 233.69432,193.5095 234.5861,193.37625 235.42663,193.25321 C 236.28765,193.13024 237.15893,193.01749 238.04047,192.91495 C 238.92199,192.81248 239.84452,192.73048 240.80807,192.66894 C 241.79208,192.60747 242.86837,192.57672 244.03693,192.57669 M 246.00499,207.61395 L 243.4219,207.70621 C 242.51986,207.74722 241.74083,207.87023 241.08482,208.07522 C 240.42879,208.28024 239.87527,208.62875 239.42427,209.12076 C 238.99374,209.59228 238.66573,210.21755 238.44023,210.99657 C 238.23522,211.77561 238.13271,212.75964 238.13272,213.94867 C 238.13271,215.69124 238.44022,216.97253 239.05526,217.79255 C 239.67026,218.61258 240.46979,219.0226 241.45384,219.02259 C 242.43786,219.0226 243.27838,218.92009 243.97542,218.71508 C 244.67243,218.48958 245.34895,218.23332 246.00499,217.94631 L 246.00499,207.61395 M 271.49558,195.74405 C 272.13109,195.41607 272.82811,195.0573 273.58665,194.66776 C 274.34516,194.27828 275.14469,193.91952 275.98523,193.59148 C 276.82574,193.26349 277.69702,192.99699 278.59907,192.79195 C 279.50108,192.56647 280.41336,192.45372 281.33591,192.45369 C 282.50443,192.45372 283.58071,192.60747 284.56477,192.91495 C 285.54878,193.22249 286.38931,193.71451 287.08636,194.391 C 287.80385,195.06755 288.35737,195.94908 288.74692,197.03559 C 289.1364,198.12215 289.33116,199.4342 289.33119,200.97173 L 289.33119,219.36085 L 292.22178,220.09888 L 292.22178,222.12845 L 277.86105,222.12845 L 277.86105,220.09888 L 280.44413,219.36085 L 280.44413,202.17102 C 280.44411,200.44898 280.0751,199.10619 279.3371,198.14263 C 278.61955,197.17912 277.58427,196.69736 276.23124,196.69733 C 274.67317,196.69736 273.11512,197.04587 271.55708,197.74287 L 271.55708,219.36085 L 274.20167,220.09888 L 274.20167,222.12845 L 259.84093,222.12845 L 259.84093,220.09888 L 262.67003,219.36085 L 262.67003,195.99006 L 259.84093,195.25203 L 259.84093,193.22246 L 271.06506,193.22246 L 271.49558,195.74405"
       id="text5541"
       style="font-size:62.9781456px;font-style:normal;font-variant:normal;font-weight:normal;font-stretch:normal;text-align:end;line-height:125%;writing-mode:lr-tb;text-anchor:end;fill:#000000;fill-opacity:1;stroke:none;stroke-width:1px;stroke-linecap:butt;stroke-linejoin:miter;stroke-opacity:1;font-family:Liberation Serif;-inkscape-font-specification:Liberation Serif" />
  </g>
</svg>
