<?xml version="1.0" encoding="UTF-8" standalone="no"?>
<svg
   xmlns:dc="http://purl.org/dc/elements/1.1/"
   xmlns:cc="http://creativecommons.org/ns#"
   xmlns:rdf="http://www.w3.org/1999/02/22-rdf-syntax-ns#"
   xmlns:svg="http://www.w3.org/2000/svg"
   xmlns="http://www.w3.org/2000/svg"
   xmlns:sodipodi="http://sodipodi.sourceforge.net/DTD/sodipodi-0.dtd"
   xmlns:inkscape="http://www.inkscape.org/namespaces/inkscape"
   version="1.1"
   id="Layer_1"
   x="0px"
   y="0px"
   width="323.14499"
   height="83.370529"
   viewBox="0 0 323.14499 83.370529"
   enable-background="new 0 0 360 360"
   xml:space="preserve"
   sodipodi:docname="ssg-horizontal-minimalistic.svg"
   inkscape:version="0.92+devel unknown"><metadata
     id="metadata73"><rdf:RDF><cc:Work
         rdf:about=""><dc:format>image/svg+xml</dc:format><dc:type
           rdf:resource="http://purl.org/dc/dcmitype/StillImage" /><dc:title></dc:title></cc:Work></rdf:RDF></metadata><defs
     id="defs71" /><sodipodi:namedview
     pagecolor="#ffffff"
     bordercolor="#666666"
     inkscape:document-rotation="0"
     borderopacity="1"
     objecttolerance="10"
     gridtolerance="10"
     guidetolerance="10"
     inkscape:pageopacity="0"
     inkscape:pageshadow="2"
     inkscape:window-width="1916"
     inkscape:window-height="1029"
     id="namedview69"
     showgrid="false"
     fit-margin-top="5"
     fit-margin-left="5"
     fit-margin-right="5"
     fit-margin-bottom="5"
     inkscape:zoom="2.4527778"
     inkscape:cx="110.23419"
     inkscape:cy="31.181002"
     inkscape:window-x="1920"
     inkscape:window-y="24"
     inkscape:window-maximized="0"
     inkscape:current-layer="Layer_1" /><g
     id="g66"
     transform="translate(-15.807,-127.81047)"><g
       id="g12"><path
         fill="#6D0B2B"
         d="m 82.673,186.524 h -2.144 c -1.178,0 -2.143,0.948 -2.143,2.109 v 14.766 c 0,1.16 0.965,2.11 2.143,2.11 h 21.431 c 1.179,0 2.144,-0.95 2.144,-2.11 v -14.766 c 0,-1.161 -0.965,-2.109 -2.144,-2.109 h -2.143 v -6.329 c 0,-4.661 -3.838,-8.438 -8.571,-8.438 -4.735,0 -8.573,3.777 -8.574,8.438 v 6.329 z m 4.286,-6.329 c 0,-2.327 1.922,-4.22 4.287,-4.22 2.363,0 4.285,1.893 4.285,4.22 v 6.329 h -8.572 z"
         id="path2"
         inkscape:connector-curvature="0" /><g
         id="g8"><path
           fill="#AD1D3F"
           d="m 75.249,194.094 c -12.612,8.793 -28.804,5.972 -38.442,-2.629 l 9.143,-9.003 c 1.754,-1.449 2.624,-4.171 0.952,-6.777 -0.054,-0.082 -5.125,-8.457 1.732,-15.211 5.621,-5.53 13.69,-4.439 17.94,-0.257 2.423,2.388 3.773,5.493 3.796,8.751 0,0.024 0,0.055 0,0.08 0,3.306 -1.399,6.5 -3.945,9.008 -3.081,3.028 -7.386,4.164 -11.814,3.113 -1.629,-0.39 -3.27,0.597 -3.665,2.198 -0.393,1.607 0.606,3.223 2.237,3.612 6.438,1.533 12.993,-0.221 17.539,-4.694 3.728,-3.67 5.784,-8.403 5.722,-13.36 -0.032,-4.838 -2.012,-9.432 -5.572,-12.937 -6.316,-6.218 -18.253,-7.887 -26.528,0.256 -8.227,8.102 -5.084,18.276 -2.86,22.159 l -9.803,9.652 c -2.263,2.229 -1.78,5.106 -0.176,6.687 11.856,11.669 29.775,13.787 43.745,6.337 v -6.985 z"
           id="path4"
           inkscape:connector-curvature="0" /><path
           fill="#AD1D3F"
           d="m 27.227,173.856 c -0.847,-5.733 -0.864,-16.743 8.606,-26.06 6.18,-6.086 14.245,-9.277 22.707,-8.989 7.825,0.267 15.41,3.466 20.81,8.78 5.813,5.721 9.054,13.305 9.127,21.352 0,0.021 0,0.038 0,0.058 0.888,-0.211 1.814,-0.328 2.769,-0.328 1.147,0 2.256,0.166 3.306,0.473 0,-0.085 0.002,-0.17 10e-4,-0.254 -0.091,-9.624 -3.959,-18.69 -10.904,-25.527 -6.477,-6.376 -15.547,-10.214 -24.899,-10.529 -10.163,-0.345 -19.827,3.466 -27.211,10.737 -6.965,6.854 -10.732,15.969 -10.732,25.616 0,1.831 0.137,3.677 0.411,5.536 0.46,3.104 1.41,6.251 2.83,9.354 0.688,1.506 2.487,2.176 4.014,1.498 1.531,-0.682 2.213,-2.449 1.524,-3.955 -1.17,-2.558 -1.987,-5.243 -2.359,-7.762 z"
           id="path6"
           inkscape:connector-curvature="0" /></g><circle
         fill="#FFFFFF"
         cx="91.297997"
         cy="196.97701"
         r="2.4849999"
         id="circle10" /></g><g
       id="g64"><g
         id="g40"><path
           fill="#676767"
           d="m 158.941,195.074 c 0,0 -2.756,-0.312 -3.89,-0.312 -1.447,0 -2.131,0.527 -2.131,1.405 0,0.842 0.526,1.135 2.755,1.84 2.875,0.919 3.753,1.722 3.753,3.932 0,2.895 -1.974,4.242 -4.593,4.242 -1.818,0 -4.438,-0.606 -4.438,-0.606 l 0.274,-2.092 c 0,0 2.619,0.353 4.008,0.353 1.447,0 2.072,-0.685 2.072,-1.723 0,-0.819 -0.47,-1.191 -2.386,-1.738 -2.991,-0.86 -4.125,-1.877 -4.125,-4.007 0,-2.758 1.839,-3.949 4.535,-3.949 1.781,0 4.378,0.527 4.378,0.527 z"
           id="path14"
           inkscape:connector-curvature="0" /><path
           fill="#676767"
           d="m 162.581,192.648 h 8.602 v 2.346 h -5.904 v 3.109 h 4.731 v 2.308 h -4.731 v 3.186 h 5.904 v 2.346 h -8.602 z"
           id="path16"
           inkscape:connector-curvature="0" /><path
           fill="#676767"
           d="m 182.719,205.727 c -0.899,0.196 -2.659,0.451 -3.872,0.451 -4.105,0 -5.082,-2.227 -5.082,-6.884 0,-5.043 1.133,-6.881 5.082,-6.881 1.389,0 3.071,0.333 3.89,0.529 l -0.077,2.149 c -0.898,-0.136 -2.541,-0.293 -3.421,-0.293 -2.053,0 -2.696,0.723 -2.696,4.494 0,3.58 0.468,4.497 2.776,4.497 0.896,0 2.561,-0.157 3.341,-0.274 z"
           id="path18"
           inkscape:connector-curvature="0" /><path
           fill="#676767"
           d="m 190.834,203.832 c 1.583,0 2.366,-0.762 2.366,-2.326 v -8.858 h 2.697 v 8.8 c 0,3.321 -1.74,4.73 -5.063,4.73 -3.324,0 -5.062,-1.408 -5.062,-4.73 v -8.8 h 2.698 v 8.858 c 0,1.584 0.781,2.326 2.364,2.326 z"
           id="path20"
           inkscape:connector-curvature="0" /><path
           fill="#676767"
           d="m 202.351,201.485 v 4.457 h -2.697 v -13.294 h 5.161 c 3.031,0 4.692,1.35 4.692,4.379 0,1.84 -0.742,3.069 -1.956,3.832 l 1.897,5.083 h -2.951 l -1.545,-4.457 z m 2.463,-6.527 h -2.464 v 4.222 h 2.503 c 1.348,0 1.896,-0.938 1.896,-2.109 0,-1.275 -0.644,-2.113 -1.935,-2.113 z"
           id="path22"
           inkscape:connector-curvature="0" /><path
           fill="#676767"
           d="m 212.754,192.648 h 2.696 v 13.294 h -2.696 z"
           id="path24"
           inkscape:connector-curvature="0" /><path
           fill="#676767"
           d="m 218.132,192.648 h 9.775 v 2.385 h -3.519 v 10.909 h -2.697 v -10.909 h -3.558 z"
           id="path26"
           inkscape:connector-curvature="0" /><path
           fill="#676767"
           d="m 235.944,205.942 h -2.697 v -5.376 l -4.106,-7.918 h 2.992 l 2.444,5.299 2.443,-5.299 h 2.99 l -4.065,7.918 z"
           id="path28"
           inkscape:connector-curvature="0" /><path
           fill="#676767"
           d="m 253.268,198.828 h 3.871 v 6.901 c 0,0 -2.796,0.448 -4.536,0.448 -4.341,0 -5.435,-2.424 -5.435,-6.884 0,-4.849 1.407,-6.881 5.337,-6.881 2.052,0 4.634,0.548 4.634,0.548 l -0.078,2.091 c 0,0 -2.346,-0.253 -4.126,-0.253 -2.307,0 -2.991,0.762 -2.991,4.494 0,3.54 0.489,4.538 2.914,4.538 0.8,0 1.622,-0.078 1.622,-0.078 v -2.581 h -1.212 z"
           id="path30"
           inkscape:connector-curvature="0" /><path
           fill="#676767"
           d="m 265.606,203.832 c 1.582,0 2.365,-0.762 2.365,-2.326 v -8.858 h 2.697 v 8.8 c 0,3.321 -1.739,4.73 -5.062,4.73 -3.324,0 -5.063,-1.408 -5.063,-4.73 v -8.8 h 2.696 v 8.858 c 0.002,1.584 0.782,2.326 2.367,2.326 z"
           id="path32"
           inkscape:connector-curvature="0" /><path
           fill="#676767"
           d="m 274.426,192.648 h 2.696 v 13.294 h -2.696 z"
           id="path34"
           inkscape:connector-curvature="0" /><path
           fill="#676767"
           d="m 280.995,205.942 v -13.294 h 4.478 c 4.633,0 5.65,1.974 5.65,6.394 0,4.536 -0.881,6.9 -5.65,6.9 z m 4.478,-10.948 h -1.779 v 8.603 h 1.779 c 2.618,0 2.874,-1.604 2.874,-4.555 0,-2.913 -0.256,-4.048 -2.874,-4.048 z"
           id="path36"
           inkscape:connector-curvature="0" /><path
           fill="#676767"
           d="m 294.448,192.648 h 8.602 v 2.346 h -5.904 v 3.109 h 4.732 v 2.308 h -4.732 v 3.186 h 5.904 v 2.346 h -8.602 z"
           id="path38"
           inkscape:connector-curvature="0" /></g><g
         id="g62"><g
           id="g50"><path
             fill="#38393F"
             d="m 119.34,160.8 c 0,-11.103 2.873,-17.484 13.296,-17.484 10.421,0 13.342,6.284 13.342,17.484 0,11.592 -2.871,17.193 -13.342,17.193 -10.471,0 -13.296,-5.895 -13.296,-17.193 z m 22.743,0 c 0,-9.105 -1.752,-14.171 -9.447,-14.171 -7.743,0 -9.45,5.016 -9.45,14.171 0,9.207 1.657,13.88 9.45,13.88 7.839,0 9.447,-4.383 9.447,-13.88 z"
             id="path42"
             inkscape:connector-curvature="0" /><path
             fill="#38393F"
             d="m 152.208,153.153 h 3.606 v 1.755 c 0,0 3.701,-2.24 7.306,-2.24 6.135,0 8.815,3.748 8.815,12.373 0,9.542 -3.116,12.952 -10.616,12.952 -2.289,0 -4.776,-0.391 -5.456,-0.536 v 8.932 h -3.655 z m 3.655,4.725 v 16.413 c 0.634,0.096 3.167,0.536 5.259,0.536 5.356,0 7.112,-2.777 7.112,-9.788 0,-6.673 -2.096,-9.111 -5.65,-9.111 -3.313,0 -6.721,1.95 -6.721,1.95 z"
             id="path44"
             inkscape:connector-curvature="0" /><path
             fill="#38393F"
             d="m 195.846,174.341 0.096,2.871 c 0,0 -5.551,0.781 -9.498,0.781 -7.254,0 -9.642,-4.236 -9.642,-12.517 0,-9.254 3.994,-12.807 10.179,-12.807 6.479,0 9.79,3.41 9.79,11.395 l -0.197,2.776 h -16.068 c 0,5.21 1.606,7.938 6.378,7.938 3.652,-0.001 8.962,-0.437 8.962,-0.437 z m -2.729,-10.422 c 0,-6.041 -1.85,-8.183 -6.135,-8.183 -4.14,0 -6.478,2.288 -6.527,8.183 z"
             id="path46"
             inkscape:connector-curvature="0" /><path
             fill="#38393F"
             d="m 202.466,177.508 v -24.354 h 3.604 v 1.707 c 0,0 3.945,-2.192 7.548,-2.192 6.72,0 8.23,3.312 8.23,11.98 v 12.86 h -3.604 v -12.763 c 0,-6.428 -0.73,-8.816 -5.26,-8.816 -3.507,0 -6.867,1.804 -6.867,1.804 v 19.775 z"
             id="path48"
             inkscape:connector-curvature="0" /></g><g
           id="g60"><path
             fill="#38393F"
             d="m 247.851,147.407 c 0,0 -6.768,-0.827 -9.592,-0.827 -4.773,0 -7.306,1.705 -7.306,5.502 0,4.383 2.339,5.113 8.233,6.43 6.719,1.508 9.689,3.164 9.689,9.06 0,7.45 -4.089,10.373 -10.764,10.373 -3.994,0 -10.665,-1.074 -10.665,-1.074 l 0.387,-3.116 c 0,0 6.627,0.878 10.083,0.878 4.774,0 7.209,-2.095 7.209,-6.77 0,-3.799 -1.997,-4.868 -7.501,-5.942 -6.963,-1.506 -10.471,-3.166 -10.471,-9.592 0,-6.529 4.284,-9.062 10.86,-9.062 3.994,0 10.179,0.974 10.179,0.974 z"
             id="path52"
             inkscape:connector-curvature="0" /><path
             fill="#38393F"
             d="m 275.707,176.971 c -2.388,0.484 -6.087,1.022 -9.302,1.022 -10.08,0 -12.32,-6.138 -12.32,-17.241 0,-11.396 2.191,-17.437 12.32,-17.437 3.457,0 7.162,0.633 9.302,1.073 l -0.146,3.164 c -2.19,-0.391 -6.136,-0.875 -8.764,-0.875 -7.502,0 -8.818,4.479 -8.818,14.074 0,9.399 1.219,13.879 8.914,13.879 2.727,0 6.331,-0.438 8.668,-0.877 z"
             id="path54"
             inkscape:connector-curvature="0" /><path
             fill="#38393F"
             d="m 288.126,143.803 h 8.179 l 9.258,33.705 h -3.702 l -2.438,-8.672 h -14.416 l -2.434,8.672 h -3.701 z m -2.291,21.673 h 12.76 l -5.112,-18.455 h -2.533 z"
             id="path56"
             inkscape:connector-curvature="0" /><path
             fill="#38393F"
             d="m 314.616,166.158 v 11.35 h -3.75 v -33.705 h 12.324 c 7.352,0 10.762,3.555 10.762,10.86 0,7.354 -3.41,11.495 -10.762,11.495 z m 8.524,-3.311 c 4.919,0 6.966,-2.973 6.966,-8.184 0,-5.159 -2.047,-7.548 -6.966,-7.548 h -8.523 v 15.731 h 8.523 z"
             id="path58"
             inkscape:connector-curvature="0" /></g></g></g></g></svg>