<?xml version="1.0" encoding="UTF-8" standalone="no"?>
<!-- Created with Inkscape (http://www.inkscape.org/) -->

<svg
   xmlns:dc="http://purl.org/dc/elements/1.1/"
   xmlns:cc="http://creativecommons.org/ns#"
   xmlns:rdf="http://www.w3.org/1999/02/22-rdf-syntax-ns#"
   xmlns:svg="http://www.w3.org/2000/svg"
   xmlns="http://www.w3.org/2000/svg"
   xmlns:xlink="http://www.w3.org/1999/xlink"
   xmlns:sodipodi="http://sodipodi.sourceforge.net/DTD/sodipodi-0.dtd"
   xmlns:inkscape="http://www.inkscape.org/namespaces/inkscape"
   version="1.1"
   width="428.79999"
   height="428.79999"
   viewBox="0 0 402 402"
   id="Layer_1"
   xml:space="preserve"
   inkscape:version="0.92+devel unknown"
   sodipodi:docname="ssg-icon.svg"
   inkscape:export-xdpi="50"
   inkscape:export-ydpi="50"><sodipodi:namedview
     pagecolor="#ffffff"
     bordercolor="#666666"
     borderopacity="1"
     objecttolerance="10"
     gridtolerance="10"
     guidetolerance="10"
     inkscape:pageopacity="0"
     inkscape:pageshadow="2"
     inkscape:window-width="1916"
     inkscape:window-height="1029"
     id="namedview4324"
     showgrid="false"
     inkscape:zoom="0.80078125"
     inkscape:cx="18.089858"
     inkscape:cy="47.139598"
     inkscape:window-x="1920"
     inkscape:window-y="24"
     inkscape:window-maximized="0"
     inkscape:current-layer="g5301"
     inkscape:document-rotation="0" /><metadata
     id="metadata36"><rdf:RDF><cc:Work
         rdf:about=""><dc:format>image/svg+xml</dc:format><dc:type
           rdf:resource="http://purl.org/dc/dcmitype/StillImage" /><dc:title></dc:title></cc:Work></rdf:RDF></metadata><defs
     id="defs34"><linearGradient
       gradientTransform="matrix(0.71111,0,0,-0.71111,-115.7502,-176.64894)"
       gradientUnits="userSpaceOnUse"
       id="SVGID_1_"
       y2="-594.35107"
       x2="348.1738"
       y1="-266.7012"
       x1="348.1738"><stop
         offset="0"
         style="stop-color:#84c560;stop-opacity:1"
         id="stop8" /><stop
         offset="1"
         style="stop-color:#3b6b33;stop-opacity:1"
         id="stop10" /></linearGradient><linearGradient
       gradientTransform="matrix(0.71111,0,0,-0.71111,238.93229,-154.6667)"
       gradientUnits="userSpaceOnUse"
       id="SVGID_1_-0"
       y2="-594.35107"
       x2="348.1738"
       y1="-266.7012"
       x1="348.1738"
       spreadMethod="pad"><stop
         offset="0"
         style="stop-color:#84c560;stop-opacity:1"
         id="stop8-2" /><stop
         offset="1"
         style="stop-color:#3b6b33;stop-opacity:1"
         id="stop10-9" /></linearGradient><linearGradient
       gradientTransform="translate(-629.07341,-31.069401)"
       gradientUnits="userSpaceOnUse"
       y2="280.28308"
       x2="756.74915"
       y1="47.165493"
       x1="756.74915"
       id="linearGradient4446"
       xlink:href="#SVGID_1_-0"
       inkscape:collect="always" /><linearGradient
       x1="348.1738"
       y1="-266.7012"
       x2="348.1738"
       y2="-594.35107"
       id="SVGID_1_-8"
       gradientUnits="userSpaceOnUse"
       gradientTransform="matrix(0.71111,0,0,-0.71111,-363.70836,-187.72291)"><stop
         id="stop8-1"
         style="stop-color:#84c560;stop-opacity:1"
         offset="0" /><stop
         id="stop10-6"
         style="stop-color:#3b6b33;stop-opacity:1"
         offset="1" /></linearGradient><linearGradient
       gradientTransform="matrix(1,0,0,-1,-168,-249)"
       gradientUnits="userSpaceOnUse"
       id="linearGradient5108"
       y2="-594.35107"
       x2="348.1738"
       y1="-266.7012"
       x1="348.1738"><stop
         offset="0"
         style="stop-color:#ffcccb;stop-opacity:1"
         id="stop5110" /><stop
         offset="1"
         style="stop-color:#ff4e4f;stop-opacity:1"
         id="stop5112" /></linearGradient><linearGradient
       x1="348.1738"
       y1="-266.7012"
       x2="348.1738"
       y2="-594.35107"
       id="SVGID_1_-9"
       gradientUnits="userSpaceOnUse"
       gradientTransform="matrix(0.7677643,0,0,-0.7677643,219.46191,141.85818)"
       xlink:href="#linearGradient5108"><stop
         id="stop8-7"
         style="stop-color:#ffa758;stop-opacity:1"
         offset="0" /><stop
         id="stop10-8"
         style="stop-color:#ff4c65;stop-opacity:1"
         offset="1" /></linearGradient></defs><g
     id="g4536"
     transform="matrix(1.3345114,0,0,1.3345114,-18.347737,-443.55625)"><g
       id="g5301"
       transform="translate(0.74933748,5.0449936e-6)"><g
         id="g5481"
         transform="matrix(0.70362228,0,0,0.70362228,511.33186,-0.46292102)"><g
           id="g5565"
           transform="translate(-459.28391,16.681082)"><path
             inkscape:connector-curvature="0"
             d="m 482.94248,344.32684 c -69.23774,0 -125.38128,56.89517 -125.38128,127.06884 0,2.40078 0.22342,4.74093 0.36087,7.10719 3.653,-66.84388 58.14892,-119.95781 125.01887,-119.95781 66.87535,0 121.36128,53.1124 125.02889,119.95781 0.12054,-2.36626 0.34703,-4.70641 0.34703,-7.10719 -0.007,-70.17137 -56.13508,-127.06884 -125.37438,-127.06884 z"
             id="path5"
             style="fill:#f4d7d7;fill-opacity:1"
             transform="matrix(1.4212171,0,0,1.4212171,-726.71357,0.65791474)" /><path
             inkscape:connector-curvature="0"
             d="m 602.14172,513.30638 c 4.41005,-12.8232 6.80854,-26.58308 6.80854,-40.90572 0,-69.46653 -56.31397,-125.77821 -125.78129,-125.77821 -69.46578,0 -125.77898,56.31168 -125.77898,125.77821 0,69.4681 56.31244,125.77899 125.77898,125.77899 19.62867,0 38.20396,-4.49756 54.76003,-12.51685 8.21738,6.39777 18.53536,10.22353 29.73167,10.22353 26.74814,0 48.50658,-21.75612 48.50658,-48.50426 -7.8e-4,-13.27082 -5.36053,-25.31013 -14.02553,-34.07569 z"
             id="path12"
             style="fill:url(#SVGID_1_-9);fill-opacity:1"
             transform="matrix(1.4212171,0,0,1.4212171,-726.71357,0.65791474)" /><path
             inkscape:connector-curvature="0"
             d="m 518.48537,547.78053 c 0,-26.89478 21.79835,-48.69314 48.69083,-48.69314 13.37292,0 25.48364,5.39046 34.28299,14.1184 4.57818,-13.19785 7.07955,-27.39306 7.07955,-42.17942 0,-11.52415 -1.52555,-22.69895 -4.36397,-33.31023 -23.79608,35.5214 -60.18965,61.89793 -104.36066,71.28231 -51.712,10.97751 -103.14608,-3.64842 -142.13313,-35.53826 1.27985,69.08803 56.93432,124.70488 125.41506,124.70488 19.25706,0 37.49914,-4.40083 53.80338,-12.26274 -11.21627,-8.92141 -18.41405,-22.67667 -18.41405,-38.1218 z"
             id="path28"
             style="opacity:0.15;fill:#22421f"
             transform="matrix(1.4212171,0,0,1.4212171,-726.71357,0.65791474)" /><g
             id="g14"
             style="opacity:0.4;fill:#ff0058;fill-opacity:1"
             transform="matrix(1.0911597,0,0,1.0911597,-231.49572,473.96795)"><path
               inkscape:connector-curvature="0"
               d="m 174.905,41.522 c 77.312,0 140.242,61.345 142.851,138.025 0.03,-1.201 0.128,-2.381 0.128,-3.585 0,-78.967 -63.992,-142.977 -142.979,-142.977 -78.952,0 -142.981,64.015 -142.981,142.977 0,1.433 0.073,2.851 0.107,4.26 2.266,-76.977 65.351,-138.7 142.874,-138.7 z"
               id="path16"
               style="fill:#ff0058;fill-opacity:1" /></g><path
             inkscape:connector-curvature="0"
             d="m 567.29444,586.44976 c -21.41371,0 -38.83351,-17.42288 -38.83351,-38.83506 0,-21.41679 17.4221,-38.8389 38.83351,-38.8389 21.41602,0 38.83582,17.42519 38.83582,38.8389 -0.002,21.41218 -17.42056,38.83506 -38.83582,38.83506 z"
             id="path18"
             style="fill:#ffd5d5"
             transform="matrix(1.4212171,0,0,1.4212171,-726.71357,0.65791474)" /><path
             inkscape:connector-curvature="0"
             d="m 526.05091,572.86032 c -0.49444,-0.62956 -0.99962,-1.36509 -1.45568,-2.21115 -12.92147,5.36052 -26.5631,8.36786 -41.42702,8.36786 -30.11173,0 -57.37502,-12.1422 -77.17949,-31.78852 -4.06149,-4.58969 4.10216,-22.17764 4.10216,-22.17764 0,0 -7.18245,6.11755 -9.06423,9.1817 -3.57778,5.85189 -1.66529,11.81051 2.03073,16.46239 20.03404,21.80682 48.15955,34.86341 80.11313,34.86341 15.67851,0 30.58543,-3.28986 44.0735,-9.21623 0.28639,-0.12669 0.56739,-0.24646 0.84915,-0.37237 -0.71708,-1.01268 -1.40193,-2.0438 -2.04225,-3.10945 z"
             id="path20"
             style="opacity:0.6;fill:#ff8080"
             transform="matrix(1.4212171,0,0,1.4212171,-726.71357,0.65791474)" /><g
             id="g22"
             transform="matrix(1.0911597,0,0,1.0911597,-231.49572,473.96795)"
             style="fill:#ad1d3f;fill-opacity:1"><path
               inkscape:connector-curvature="0"
               d="m 56.885,200.044 c -3.29,-22.62 -3.349,-66.079 33.432,-102.844 24.014,-24.018 55.344,-36.613 88.218,-35.478 30.403,1.04 59.871,13.677 80.846,34.646 22.587,22.581 35.177,52.511 35.455,84.274 0.007,0.369 0.007,0.726 0.007,1.095 0,12.013 -1.796,23.771 -5.25,34.978 8.116,0.583 15.811,2.692 22.792,6.069 4.089,-13.585 6.154,-27.827 6.062,-42.36 C 318.09,142.446 303.064,106.66 276.084,79.679 250.92,54.532 215.683,39.374 179.353,38.136 139.87,36.768 102.326,51.811 73.636,80.506 c -27.053,27.05 -41.688,63.022 -41.688,101.099 0,7.221 0.526,14.507 1.592,21.842 1.788,12.252 5.482,24.681 10.996,36.922 2.673,5.938 9.661,8.583 15.597,5.919 5.949,-2.687 8.598,-9.668 5.919,-15.609 C 61.5,220.58 58.333,209.992 56.885,200.044 Z"
               id="path24"
               style="fill:#ad1d3f;fill-opacity:1" /><path
               inkscape:connector-curvature="0"
               d="m 223.241,291.399 c -45.081,19.856 -96.675,7.573 -129.133,-21.853 l 35.517,-35.528 c 6.813,-5.72 10.189,-16.459 3.696,-26.75 -0.211,-0.321 -19.908,-33.38 6.731,-60.028 21.831,-21.83 53.184,-17.527 69.691,-1.007 9.421,9.417 14.658,21.673 14.749,34.521 0,0.103 0,0.228 0,0.324 0,13.052 -5.435,25.655 -15.325,35.552 -11.968,11.95 -28.694,16.438 -45.897,12.282 -6.329,-1.539 -12.707,2.361 -14.241,8.682 -1.525,6.336 2.362,12.714 8.687,14.25 25.017,6.05 50.478,-0.862 68.133,-18.526 14.485,-14.479 22.477,-33.162 22.225,-52.728 -0.118,-19.08 -7.812,-37.223 -21.643,-51.05 -24.533,-24.537 -70.911,-31.127 -103.054,1.005 -31.961,31.969 -19.75,72.128 -11.114,87.45 l -38.087,38.103 c -8.786,8.78 -6.917,20.154 -0.679,26.379 42.837,42.833 106.057,53.07 158.359,30.628 -4.132,-6.526 -7.108,-13.857 -8.615,-21.706 z"
               id="path26"
               style="fill:#ad1d3f;fill-opacity:1" /></g><g
             id="g5473"
             transform="translate(34.389128)"><rect
               transform="rotate(90)"
               ry="20.235781"
               y="-65.869675"
               x="733.96747"
               height="40.471561"
               width="63.397648"
               id="rect5456"
               style="fill:#ad1d3f;fill-opacity:1;fill-rule:evenodd;stroke:none;stroke-width:0.74933791px;stroke-linecap:butt;stroke-linejoin:miter;stroke-opacity:1" /><rect
               transform="rotate(90)"
               ry="11.101999"
               y="-56.735893"
               x="744.38123"
               height="22.203999"
               width="36.155224"
               id="rect5456-5"
               style="fill:#ffd5d5;fill-opacity:1;fill-rule:evenodd;stroke:none;stroke-width:0.74933791px;stroke-linecap:butt;stroke-linejoin:miter;stroke-opacity:1" /></g><g
             id="g5477"
             transform="translate(3.1159437)"><rect
               ry="6.8173552"
               y="771.17212"
               x="44.121502"
               height="48.175144"
               width="65.571152"
               id="rect5452"
               style="fill:#ad1d3f;fill-opacity:1;fill-rule:evenodd;stroke:none;stroke-width:0.76576042px;stroke-linecap:butt;stroke-linejoin:miter;stroke-opacity:1" /><circle
               r="6.5503101"
               cy="798.62988"
               cx="76.907074"
               id="path5454"
               style="opacity:1;fill:#ffffff;fill-opacity:1;stroke:none;stroke-width:3;stroke-linejoin:round;stroke-miterlimit:4;stroke-dasharray:none;stroke-opacity:1" /></g></g></g></g></g></svg>
