<?xml version="1.0" encoding="UTF-8" standalone="no"?>
<svg
   xmlns:dc="http://purl.org/dc/elements/1.1/"
   xmlns:cc="http://creativecommons.org/ns#"
   xmlns:rdf="http://www.w3.org/1999/02/22-rdf-syntax-ns#"
   xmlns:svg="http://www.w3.org/2000/svg"
   xmlns="http://www.w3.org/2000/svg"
   xmlns:sodipodi="http://sodipodi.sourceforge.net/DTD/sodipodi-0.dtd"
   xmlns:inkscape="http://www.inkscape.org/namespaces/inkscape"
   version="1.1"
   id="Layer_1"
   x="0px"
   y="0px"
   width="93.296997"
   height="82.698532"
   viewBox="0 0 93.296997 82.698532"
   enable-background="new 0 0 360 360"
   xml:space="preserve"
   sodipodi:docname="ssg-icon-minimalistic.svg"
   inkscape:version="0.92+devel unknown"><metadata
     id="metadata73"><rdf:RDF><cc:Work
         rdf:about=""><dc:format>image/svg+xml</dc:format><dc:type
           rdf:resource="http://purl.org/dc/dcmitype/StillImage" /><dc:title></dc:title></cc:Work></rdf:RDF></metadata><defs
     id="defs71" /><sodipodi:namedview
     pagecolor="#ffffff"
     bordercolor="#666666"
     inkscape:document-rotation="0"
     borderopacity="1"
     objecttolerance="10"
     gridtolerance="10"
     guidetolerance="10"
     inkscape:pageopacity="0"
     inkscape:pageshadow="2"
     inkscape:window-width="1916"
     inkscape:window-height="1029"
     id="namedview69"
     showgrid="false"
     fit-margin-top="5"
     fit-margin-left="5"
     fit-margin-right="5"
     fit-margin-bottom="5"
     inkscape:zoom="2.4527778"
     inkscape:cx="144.28951"
     inkscape:cy="30.509003"
     inkscape:window-x="1920"
     inkscape:window-y="24"
     inkscape:window-maximized="0"
     inkscape:current-layer="Layer_1" /><g
     id="g12"
     transform="translate(-15.807,-127.81047)"><path
       inkscape:connector-curvature="0"
       id="path2"
       d="m 82.673,186.524 h -2.144 c -1.178,0 -2.143,0.948 -2.143,2.109 v 14.766 c 0,1.16 0.965,2.11 2.143,2.11 h 21.431 c 1.179,0 2.144,-0.95 2.144,-2.11 v -14.766 c 0,-1.161 -0.965,-2.109 -2.144,-2.109 h -2.143 v -6.329 c 0,-4.661 -3.838,-8.438 -8.571,-8.438 -4.735,0 -8.573,3.777 -8.574,8.438 v 6.329 z m 4.286,-6.329 c 0,-2.327 1.922,-4.22 4.287,-4.22 2.363,0 4.285,1.893 4.285,4.22 v 6.329 h -8.572 z"
       fill="#6D0B2B" /><g
       id="g8"><path
         inkscape:connector-curvature="0"
         id="path4"
         d="m 75.249,194.094 c -12.612,8.793 -28.804,5.972 -38.442,-2.629 l 9.143,-9.003 c 1.754,-1.449 2.624,-4.171 0.952,-6.777 -0.054,-0.082 -5.125,-8.457 1.732,-15.211 5.621,-5.53 13.69,-4.439 17.94,-0.257 2.423,2.388 3.773,5.493 3.796,8.751 0,0.024 0,0.055 0,0.08 0,3.306 -1.399,6.5 -3.945,9.008 -3.081,3.028 -7.386,4.164 -11.814,3.113 -1.629,-0.39 -3.27,0.597 -3.665,2.198 -0.393,1.607 0.606,3.223 2.237,3.612 6.438,1.533 12.993,-0.221 17.539,-4.694 3.728,-3.67 5.784,-8.403 5.722,-13.36 -0.032,-4.838 -2.012,-9.432 -5.572,-12.937 -6.316,-6.218 -18.253,-7.887 -26.528,0.256 -8.227,8.102 -5.084,18.276 -2.86,22.159 l -9.803,9.652 c -2.263,2.229 -1.78,5.106 -0.176,6.687 11.856,11.669 29.775,13.787 43.745,6.337 v -6.985 z"
         fill="#AD1D3F" /><path
         inkscape:connector-curvature="0"
         id="path6"
         d="m 27.227,173.856 c -0.847,-5.733 -0.864,-16.743 8.606,-26.06 6.18,-6.086 14.245,-9.277 22.707,-8.989 7.825,0.267 15.41,3.466 20.81,8.78 5.813,5.721 9.054,13.305 9.127,21.352 0,0.021 0,0.038 0,0.058 0.888,-0.211 1.814,-0.328 2.769,-0.328 1.147,0 2.256,0.166 3.306,0.473 0,-0.085 0.002,-0.17 10e-4,-0.254 -0.091,-9.624 -3.959,-18.69 -10.904,-25.527 -6.477,-6.376 -15.547,-10.214 -24.899,-10.529 -10.163,-0.345 -19.827,3.466 -27.211,10.737 -6.965,6.854 -10.732,15.969 -10.732,25.616 0,1.831 0.137,3.677 0.411,5.536 0.46,3.104 1.41,6.251 2.83,9.354 0.688,1.506 2.487,2.176 4.014,1.498 1.531,-0.682 2.213,-2.449 1.524,-3.955 -1.17,-2.558 -1.987,-5.243 -2.359,-7.762 z"
         fill="#AD1D3F" /></g><circle
       id="circle10"
       r="2.4849999"
       cy="196.97701"
       cx="91.297997"
       fill="#FFFFFF" /></g></svg>