<?xml version="1.0" encoding="UTF-8" standalone="no"?>
<!-- Created with Inkscape (http://www.inkscape.org/) -->

<svg
   xmlns:dc="http://purl.org/dc/elements/1.1/"
   xmlns:cc="http://creativecommons.org/ns#"
   xmlns:rdf="http://www.w3.org/1999/02/22-rdf-syntax-ns#"
   xmlns:svg="http://www.w3.org/2000/svg"
   xmlns="http://www.w3.org/2000/svg"
   xmlns:xlink="http://www.w3.org/1999/xlink"
   xmlns:sodipodi="http://sodipodi.sourceforge.net/DTD/sodipodi-0.dtd"
   xmlns:inkscape="http://www.inkscape.org/namespaces/inkscape"
   version="1.1"
   width="658.85486"
   height="229.024"
   viewBox="0 0 617.67643 214.71"
   id="Layer_1"
   xml:space="preserve"
   inkscape:version="0.92+devel unknown"
   sodipodi:docname="ssg-horizontal.svg"
   inkscape:export-xdpi="50"
   inkscape:export-ydpi="50"><sodipodi:namedview
     pagecolor="#ffffff"
     bordercolor="#666666"
     borderopacity="1"
     objecttolerance="10"
     gridtolerance="10"
     guidetolerance="10"
     inkscape:pageopacity="0"
     inkscape:pageshadow="2"
     inkscape:window-width="1916"
     inkscape:window-height="1029"
     id="namedview4160"
     showgrid="false"
     inkscape:zoom="1.1508333"
     inkscape:cx="308.73688"
     inkscape:cy="-60.367603"
     inkscape:window-x="1920"
     inkscape:window-y="24"
     inkscape:window-maximized="0"
     inkscape:current-layer="Layer_1"
     inkscape:document-rotation="0"
     fit-margin-top="5"
     fit-margin-left="10"
     fit-margin-bottom="5"
     fit-margin-right="10" /><metadata
     id="metadata49"><rdf:RDF><cc:Work
         rdf:about=""><dc:format>image/svg+xml</dc:format><dc:type
           rdf:resource="http://purl.org/dc/dcmitype/StillImage" /><dc:title></dc:title></cc:Work></rdf:RDF></metadata><defs
     id="defs47"><linearGradient
       gradientTransform="matrix(1,0,0,-1,-168,-249)"
       gradientUnits="userSpaceOnUse"
       id="linearGradient5108"
       y2="-594.35107"
       x2="348.1738"
       y1="-266.7012"
       x1="348.1738"><stop
         offset="0"
         style="stop-color:#0075b9;stop-opacity:1"
         id="stop5110" /><stop
         offset="1"
         style="stop-color:#00ff73;stop-opacity:1"
         id="stop5112" /></linearGradient><linearGradient
       x1="348.1738"
       y1="-266.7012"
       x2="348.1738"
       y2="-594.35107"
       id="SVGID_1_-9"
       gradientUnits="userSpaceOnUse"
       gradientTransform="matrix(0.7677643,0,0,-0.7677643,219.46191,141.85818)"
       xlink:href="#linearGradient5108-2"><stop
         id="stop8-7"
         style="stop-color:#ffa758;stop-opacity:1"
         offset="0" /><stop
         id="stop10-8"
         style="stop-color:#ff4c65;stop-opacity:1"
         offset="1" /></linearGradient><linearGradient
       gradientTransform="matrix(1,0,0,-1,-168,-249)"
       gradientUnits="userSpaceOnUse"
       id="linearGradient5108-2"
       y2="-594.35107"
       x2="348.1738"
       y1="-266.7012"
       x1="348.1738"><stop
         offset="0"
         style="stop-color:#ffcccb;stop-opacity:1"
         id="stop5110-4" /><stop
         offset="1"
         style="stop-color:#ff4e4f;stop-opacity:1"
         id="stop5112-1" /></linearGradient></defs><g
     style="font-style:normal;font-weight:normal;font-size:25.36211014px;line-height:125%;font-family:sans-serif;letter-spacing:0px;word-spacing:0px;fill:#676767;fill-opacity:1;stroke:#676767;stroke-width:0.967381px;stroke-linecap:butt;stroke-linejoin:miter;stroke-opacity:1"
     id="text4365"
     transform="translate(-6.625006,-0.70211447)"><path
       d="m 314.00395,163.2849 c 0,0 -5.27532,-0.97391 -8.80573,-0.97391 -5.55937,0 -9.2521,2.31303 -9.2521,7.91298 0,4.82895 2.59708,6.65502 8.60283,8.19704 4.26084,1.01448 5.5188,1.82607 5.5188,4.17967 0,2.92172 -1.5826,4.46373 -5.03185,4.46373 -2.88113,0 -8.35935,-0.73043 -8.35935,-0.73043 l -0.44637,3.61157 c 0,0 5.47822,1.09564 9.08978,1.09564 5.47822,0 9.29268,-2.63766 9.29268,-8.72456 0,-4.74779 -2.11013,-6.28981 -7.95356,-7.91298 -4.74779,-1.29854 -6.20864,-1.90723 -6.20864,-4.50431 0,-2.39419 1.74491,-3.61157 5.15358,-3.61157 2.3536,0 8.03471,0.64927 8.03471,0.64927 z"
       style="font-style:normal;font-variant:normal;font-weight:600;font-stretch:normal;font-size:40.57937622px;line-height:125%;font-family:Titillium;-inkscape-font-specification:'Titillium Semi-Bold';fill:#676767;fill-opacity:1;stroke:#676767;stroke-width:0.967381px;stroke-opacity:1"
       id="path9421"
       inkscape:connector-curvature="0" /><path
       d="m 319.48089,190.59482 h 17.53029 v -3.97678 h -13.02597 v -8.11588 h 10.59121 v -3.89562 h -10.59121 v -7.8724 h 13.02597 v -3.93619 h -17.53029 z"
       style="font-style:normal;font-variant:normal;font-weight:600;font-stretch:normal;font-size:40.57937622px;line-height:125%;font-family:Titillium;-inkscape-font-specification:'Titillium Semi-Bold';fill:#676767;fill-opacity:1;stroke:#676767;stroke-width:0.967381px;stroke-opacity:1"
       id="path9423"
       inkscape:connector-curvature="0" /><path
       d="m 358.79724,186.41514 c -1.74491,0.28406 -4.99126,0.60869 -7.06081,0.60869 -5.47822,0 -6.4927,-2.67824 -6.4927,-10.30716 0,-7.8724 1.25796,-10.34774 6.37096,-10.34774 1.98839,0 5.35648,0.32464 7.18255,0.64927 l 0.16232,-3.65214 c -1.74492,-0.4058 -5.07242,-1.01449 -7.95356,-1.01449 -8.31877,0 -10.4289,4.342 -10.4289,14.3651 0,9.49558 1.94781,14.32452 10.4289,14.32452 2.59708,0 6.00575,-0.48695 7.91298,-0.89275 z"
       style="font-style:normal;font-variant:normal;font-weight:600;font-stretch:normal;font-size:40.57937622px;line-height:125%;font-family:Titillium;-inkscape-font-specification:'Titillium Semi-Bold';fill:#676767;fill-opacity:1;stroke:#676767;stroke-width:0.967381px;stroke-opacity:1"
       id="path9425"
       inkscape:connector-curvature="0" /><path
       d="m 368.08674,181.70793 v -18.90998 h -4.54489 v 18.82883 c 0,6.69559 3.57099,9.41441 10.18543,9.41441 6.65501,0 10.26658,-2.71882 10.26658,-9.41441 v -18.82883 h -4.54489 v 18.90998 c 0,3.73331 -1.98839,5.39706 -5.72169,5.39706 -3.69273,0 -5.64054,-1.62317 -5.64054,-5.39706 z"
       style="font-style:normal;font-variant:normal;font-weight:600;font-stretch:normal;font-size:40.57937622px;line-height:125%;font-family:Titillium;-inkscape-font-specification:'Titillium Semi-Bold';fill:#676767;fill-opacity:1;stroke:#676767;stroke-width:0.967381px;stroke-opacity:1"
       id="path9427"
       inkscape:connector-curvature="0" /><path
       d="m 401.21537,180.69345 4.01736,9.90137 h 4.95068 l -4.58547,-10.91585 c 2.9623,-1.3797 4.54489,-4.09852 4.54489,-8.03472 0,-6.16807 -3.28693,-8.8463 -9.41441,-8.8463 h -10.55064 v 27.79687 h 4.50431 v -9.90137 z m 4.30141,-9.00862 c 0,2.88113 -1.29854,5.113 -4.7072,5.113 h -6.12749 v -10.10426 h 6.04633 c 3.24635,0 4.78836,1.82607 4.78836,4.99126 z"
       style="font-style:normal;font-variant:normal;font-weight:600;font-stretch:normal;font-size:40.57937622px;line-height:125%;font-family:Titillium;-inkscape-font-specification:'Titillium Semi-Bold';fill:#676767;fill-opacity:1;stroke:#676767;stroke-width:0.967381px;stroke-opacity:1"
       id="path9429"
       inkscape:connector-curvature="0" /><path
       d="m 415.22286,190.59482 h 4.50431 v -27.79687 h -4.50431 z"
       style="font-style:normal;font-variant:normal;font-weight:600;font-stretch:normal;font-size:40.57937622px;line-height:125%;font-family:Titillium;-inkscape-font-specification:'Titillium Semi-Bold';fill:#676767;fill-opacity:1;stroke:#676767;stroke-width:0.967381px;stroke-opacity:1"
       id="path9431"
       inkscape:connector-curvature="0" /><path
       d="m 423.48203,166.8153 h 7.91298 v 23.77952 h 4.54489 V 166.8153 h 7.83182 v -4.01735 h -20.28969 z"
       style="font-style:normal;font-variant:normal;font-weight:600;font-stretch:normal;font-size:40.57937622px;line-height:125%;font-family:Titillium;-inkscape-font-specification:'Titillium Semi-Bold';fill:#676767;fill-opacity:1;stroke:#676767;stroke-width:0.967381px;stroke-opacity:1"
       id="path9433"
       inkscape:connector-curvature="0" /><path
       d="m 457.70629,179.15143 8.64341,-16.35348 h -5.03184 l -5.92459,11.93033 -5.88401,-11.93033 h -5.07242 l 8.72456,16.35348 v 11.44339 h 4.54489 z"
       style="font-style:normal;font-variant:normal;font-weight:600;font-stretch:normal;font-size:40.57937622px;line-height:125%;font-family:Titillium;-inkscape-font-specification:'Titillium Semi-Bold';fill:#676767;fill-opacity:1;stroke:#676767;stroke-width:0.967381px;stroke-opacity:1"
       id="path9435"
       inkscape:connector-curvature="0" /><path
       d="m 490.02903,179.96302 h 3.44925 v 6.77676 c -0.48695,0.12174 -2.59708,0.36521 -4.42315,0.36521 -5.68111,0 -6.85792,-2.84055 -6.85792,-10.38832 0,-7.83182 1.42028,-10.34774 6.97966,-10.34774 3.69272,0 8.60282,0.64927 8.60282,0.64927 l 0.16232,-3.57098 c 0,0 -5.19416,-1.09565 -9.45499,-1.09565 -8.27819,0 -10.95643,4.62605 -10.95643,14.3651 0,9.21152 2.27244,14.32452 11.11875,14.32452 3.36808,0 8.92746,-0.85217 9.29267,-0.93332 v -14.12163 h -7.91298 z"
       style="font-style:normal;font-variant:normal;font-weight:600;font-stretch:normal;font-size:40.57937622px;line-height:125%;font-family:Titillium;-inkscape-font-specification:'Titillium Semi-Bold';fill:#676767;fill-opacity:1;stroke:#676767;stroke-width:0.967381px;stroke-opacity:1"
       id="path9437"
       inkscape:connector-curvature="0" /><path
       d="m 507.89538,181.70793 v -18.90998 h -4.54489 v 18.82883 c 0,6.69559 3.57099,9.41441 10.18543,9.41441 6.65501,0 10.26658,-2.71882 10.26658,-9.41441 v -18.82883 h -4.54489 v 18.90998 c 0,3.73331 -1.98839,5.39706 -5.72169,5.39706 -3.69273,0 -5.64054,-1.62317 -5.64054,-5.39706 z"
       style="font-style:normal;font-variant:normal;font-weight:600;font-stretch:normal;font-size:40.57937622px;line-height:125%;font-family:Titillium;-inkscape-font-specification:'Titillium Semi-Bold';fill:#676767;fill-opacity:1;stroke:#676767;stroke-width:0.967381px;stroke-opacity:1"
       id="path9439"
       inkscape:connector-curvature="0" /><path
       d="m 529.98641,190.59482 h 4.50431 v -27.79687 h -4.50431 z"
       style="font-style:normal;font-variant:normal;font-weight:600;font-stretch:normal;font-size:40.57937622px;line-height:125%;font-family:Titillium;-inkscape-font-specification:'Titillium Semi-Bold';fill:#676767;fill-opacity:1;stroke:#676767;stroke-width:0.967381px;stroke-opacity:1"
       id="path9441"
       inkscape:connector-curvature="0" /><path
       d="m 550.54113,190.59482 c 9.17094,0 11.11875,-5.55938 11.11875,-14.3651 0,-8.64341 -2.15071,-13.43177 -11.11875,-13.43177 h -9.61731 v 27.79687 z m 6.45212,-14.3651 c 0,6.08691 -0.85217,10.38832 -6.45212,10.38832 h -5.113 v -19.8839 h 5.113 c 5.59995,0 6.45212,3.40867 6.45212,9.49558 z"
       style="font-style:normal;font-variant:normal;font-weight:600;font-stretch:normal;font-size:40.57937622px;line-height:125%;font-family:Titillium;-inkscape-font-specification:'Titillium Semi-Bold';fill:#676767;fill-opacity:1;stroke:#676767;stroke-width:0.967381px;stroke-opacity:1"
       id="path9443"
       inkscape:connector-curvature="0" /><path
       d="m 566.91997,190.59482 h 17.53029 v -3.97678 h -13.02598 v -8.11588 h 10.59122 v -3.89562 h -10.59122 v -7.8724 h 13.02598 v -3.93619 h -17.53029 z"
       style="font-style:normal;font-variant:normal;font-weight:600;font-stretch:normal;font-size:40.57937622px;line-height:125%;font-family:Titillium;-inkscape-font-specification:'Titillium Semi-Bold';fill:#676767;fill-opacity:1;stroke:#676767;stroke-width:0.967381px;stroke-opacity:1"
       id="path9445"
       inkscape:connector-curvature="0" /></g><path
     inkscape:connector-curvature="0"
     id="path9448"
     style="font-style:normal;font-variant:normal;font-weight:normal;font-stretch:normal;font-size:153.7671814px;line-height:1000%;font-family:Titillium;-inkscape-font-specification:Titillium;letter-spacing:0px;word-spacing:0px;fill:#3a3b3b;fill-opacity:1;stroke:none;stroke-width:1px;stroke-linecap:butt;stroke-linejoin:miter;stroke-opacity:1"
     d="m 337.27236,30.219435 c 0,0 -19.52843,-3.075343 -32.13734,-3.075343 -20.75857,0 -34.29008,7.995893 -34.29008,28.600696 0,20.297267 11.07123,25.525352 33.05994,30.292134 17.37569,3.382878 23.68015,6.765756 23.68015,18.759598 0,14.76165 -7.68836,21.37364 -22.75755,21.37364 -10.91747,0 -31.8298,-2.76781 -31.8298,-2.76781 l -1.23014,9.8411 c 0,0 21.0661,3.38288 33.67501,3.38288 21.06611,0 33.98255,-9.22603 33.98255,-32.75241 0,-18.605834 -9.3798,-23.833918 -30.59967,-28.6007 -18.60583,-4.151714 -25.98665,-6.458222 -25.98665,-20.297268 0,-11.993841 7.99589,-17.375692 23.06507,-17.375692 8.9185,0 30.29214,2.614042 30.29214,2.614042 z" /><path
     inkscape:connector-curvature="0"
     id="path9450"
     style="font-style:normal;font-variant:normal;font-weight:normal;font-stretch:normal;font-size:153.7671814px;line-height:1000%;font-family:Titillium;-inkscape-font-specification:Titillium;letter-spacing:0px;word-spacing:0px;fill:#3a3b3b;fill-opacity:1;stroke:none;stroke-width:1px;stroke-linecap:butt;stroke-linejoin:miter;stroke-opacity:1"
     d="m 423.83848,123.40235 c -7.38083,1.38391 -18.7596,2.76781 -27.37056,2.76781 -24.29521,0 -28.13939,-14.14658 -28.13939,-43.82365 0,-30.292135 4.15171,-44.438716 27.83186,-44.438716 8.30342,0 20.75856,1.537672 27.67809,2.76781 l 0.4613,-9.994867 c -6.76576,-1.383905 -18.45206,-3.382878 -29.36953,-3.382878 -31.98358,0 -38.9031,19.06713 -38.9031,55.048651 0,35.05892 7.07329,54.43359 38.9031,54.43359 10.14863,0 21.83494,-1.69144 29.36953,-3.22911 z" /><path
     inkscape:connector-curvature="0"
     id="path9452"
     style="font-style:normal;font-variant:normal;font-weight:normal;font-stretch:normal;font-size:153.7671814px;line-height:1000%;font-family:Titillium;-inkscape-font-specification:Titillium;letter-spacing:0px;word-spacing:0px;fill:#3a3b3b;fill-opacity:1;stroke:none;stroke-width:1px;stroke-linecap:butt;stroke-linejoin:miter;stroke-opacity:1"
     d="m 434.4364,135.24242 h 11.68631 l 7.68835,-27.37055 h 45.51509 l 7.68836,27.37055 h 11.6863 L 489.48505,28.835531 h -25.83289 z m 38.13426,-96.258255 h 7.99589 l 16.14556,58.277761 h -40.287 z" /><path
     inkscape:connector-curvature="0"
     id="path9454"
     style="font-style:normal;font-variant:normal;font-weight:normal;font-stretch:normal;font-size:153.7671814px;line-height:1000%;font-family:Titillium;-inkscape-font-specification:Titillium;letter-spacing:0px;word-spacing:0px;fill:#3a3b3b;fill-opacity:1;stroke:none;stroke-width:1px;stroke-linecap:butt;stroke-linejoin:miter;stroke-opacity:1"
     d="m 574.31889,99.414666 c 23.21884,0 33.98255,-13.070209 33.98255,-36.289054 0,-23.065077 -10.76371,-34.290081 -33.98255,-34.290081 h -38.9031 V 135.24242 h 11.84007 V 99.414666 Z M 547.25586,88.958499 v -49.6668 h 26.90926 c 15.53049,0 21.98871,7.534592 21.98871,23.833913 0,16.453089 -6.45822,25.832887 -21.98871,25.832887 z" /><g
     id="g5481"
     transform="matrix(0.56914193,0,0,0.56914193,395.29234,-283.69796)"><g
       id="g5565"
       transform="translate(-459.28391,16.681082)"><path
         inkscape:connector-curvature="0"
         d="m 482.94248,344.32684 c -69.23774,0 -125.38128,56.89517 -125.38128,127.06884 0,2.40078 0.22342,4.74093 0.36087,7.10719 3.653,-66.84388 58.14892,-119.95781 125.01887,-119.95781 66.87535,0 121.36128,53.1124 125.02889,119.95781 0.12054,-2.36626 0.34703,-4.70641 0.34703,-7.10719 -0.007,-70.17137 -56.13508,-127.06884 -125.37438,-127.06884 z"
         id="path5"
         style="fill:#f4d7d7;fill-opacity:1"
         transform="matrix(1.4212171,0,0,1.4212171,-726.71357,0.65791474)" /><path
         inkscape:connector-curvature="0"
         d="m 602.14172,513.30638 c 4.41005,-12.8232 6.80854,-26.58308 6.80854,-40.90572 0,-69.46653 -56.31397,-125.77821 -125.78129,-125.77821 -69.46578,0 -125.77898,56.31168 -125.77898,125.77821 0,69.4681 56.31244,125.77899 125.77898,125.77899 19.62867,0 38.20396,-4.49756 54.76003,-12.51685 8.21738,6.39777 18.53536,10.22353 29.73167,10.22353 26.74814,0 48.50658,-21.75612 48.50658,-48.50426 -7.8e-4,-13.27082 -5.36053,-25.31013 -14.02553,-34.07569 z"
         id="path12"
         style="fill:url(#SVGID_1_-9);fill-opacity:1"
         transform="matrix(1.4212171,0,0,1.4212171,-726.71357,0.65791474)" /><path
         inkscape:connector-curvature="0"
         d="m 518.48537,547.78053 c 0,-26.89478 21.79835,-48.69314 48.69083,-48.69314 13.37292,0 25.48364,5.39046 34.28299,14.1184 4.57818,-13.19785 7.07955,-27.39306 7.07955,-42.17942 0,-11.52415 -1.52555,-22.69895 -4.36397,-33.31023 -23.79608,35.5214 -60.18965,61.89793 -104.36066,71.28231 -51.712,10.97751 -103.14608,-3.64842 -142.13313,-35.53826 1.27985,69.08803 56.93432,124.70488 125.41506,124.70488 19.25706,0 37.49914,-4.40083 53.80338,-12.26274 -11.21627,-8.92141 -18.41405,-22.67667 -18.41405,-38.1218 z"
         id="path28"
         style="opacity:0.15;fill:#22421f"
         transform="matrix(1.4212171,0,0,1.4212171,-726.71357,0.65791474)" /><g
         id="g14"
         style="opacity:0.4;fill:#ff0058;fill-opacity:1"
         transform="matrix(1.0911597,0,0,1.0911597,-231.49572,473.96795)"><path
           inkscape:connector-curvature="0"
           d="m 174.905,41.522 c 77.312,0 140.242,61.345 142.851,138.025 0.03,-1.201 0.128,-2.381 0.128,-3.585 0,-78.967 -63.992,-142.977 -142.979,-142.977 -78.952,0 -142.981,64.015 -142.981,142.977 0,1.433 0.073,2.851 0.107,4.26 2.266,-76.977 65.351,-138.7 142.874,-138.7 z"
           id="path16"
           style="fill:#ff0058;fill-opacity:1" /></g><path
         inkscape:connector-curvature="0"
         d="m 567.29444,586.44976 c -21.41371,0 -38.83351,-17.42288 -38.83351,-38.83506 0,-21.41679 17.4221,-38.8389 38.83351,-38.8389 21.41602,0 38.83582,17.42519 38.83582,38.8389 -0.002,21.41218 -17.42056,38.83506 -38.83582,38.83506 z"
         id="path18"
         style="fill:#ffd5d5"
         transform="matrix(1.4212171,0,0,1.4212171,-726.71357,0.65791474)" /><path
         inkscape:connector-curvature="0"
         d="m 526.05091,572.86032 c -0.49444,-0.62956 -0.99962,-1.36509 -1.45568,-2.21115 -12.92147,5.36052 -26.5631,8.36786 -41.42702,8.36786 -30.11173,0 -57.37502,-12.1422 -77.17949,-31.78852 -4.06149,-4.58969 4.10216,-22.17764 4.10216,-22.17764 0,0 -7.18245,6.11755 -9.06423,9.1817 -3.57778,5.85189 -1.66529,11.81051 2.03073,16.46239 20.03404,21.80682 48.15955,34.86341 80.11313,34.86341 15.67851,0 30.58543,-3.28986 44.0735,-9.21623 0.28639,-0.12669 0.56739,-0.24646 0.84915,-0.37237 -0.71708,-1.01268 -1.40193,-2.0438 -2.04225,-3.10945 z"
         id="path20"
         style="opacity:0.6;fill:#ff8080"
         transform="matrix(1.4212171,0,0,1.4212171,-726.71357,0.65791474)" /><g
         id="g22"
         transform="matrix(1.0911597,0,0,1.0911597,-231.49572,473.96795)"
         style="fill:#ad1d3f;fill-opacity:1"><path
           inkscape:connector-curvature="0"
           d="m 56.885,200.044 c -3.29,-22.62 -3.349,-66.079 33.432,-102.844 24.014,-24.018 55.344,-36.613 88.218,-35.478 30.403,1.04 59.871,13.677 80.846,34.646 22.587,22.581 35.177,52.511 35.455,84.274 0.007,0.369 0.007,0.726 0.007,1.095 0,12.013 -1.796,23.771 -5.25,34.978 8.116,0.583 15.811,2.692 22.792,6.069 4.089,-13.585 6.154,-27.827 6.062,-42.36 C 318.09,142.446 303.064,106.66 276.084,79.679 250.92,54.532 215.683,39.374 179.353,38.136 139.87,36.768 102.326,51.811 73.636,80.506 c -27.053,27.05 -41.688,63.022 -41.688,101.099 0,7.221 0.526,14.507 1.592,21.842 1.788,12.252 5.482,24.681 10.996,36.922 2.673,5.938 9.661,8.583 15.597,5.919 5.949,-2.687 8.598,-9.668 5.919,-15.609 C 61.5,220.58 58.333,209.992 56.885,200.044 Z"
           id="path24"
           style="fill:#ad1d3f;fill-opacity:1" /><path
           inkscape:connector-curvature="0"
           d="m 223.241,291.399 c -45.081,19.856 -96.675,7.573 -129.133,-21.853 l 35.517,-35.528 c 6.813,-5.72 10.189,-16.459 3.696,-26.75 -0.211,-0.321 -19.908,-33.38 6.731,-60.028 21.831,-21.83 53.184,-17.527 69.691,-1.007 9.421,9.417 14.658,21.673 14.749,34.521 0,0.103 0,0.228 0,0.324 0,13.052 -5.435,25.655 -15.325,35.552 -11.968,11.95 -28.694,16.438 -45.897,12.282 -6.329,-1.539 -12.707,2.361 -14.241,8.682 -1.525,6.336 2.362,12.714 8.687,14.25 25.017,6.05 50.478,-0.862 68.133,-18.526 14.485,-14.479 22.477,-33.162 22.225,-52.728 -0.118,-19.08 -7.812,-37.223 -21.643,-51.05 -24.533,-24.537 -70.911,-31.127 -103.054,1.005 -31.961,31.969 -19.75,72.128 -11.114,87.45 l -38.087,38.103 c -8.786,8.78 -6.917,20.154 -0.679,26.379 42.837,42.833 106.057,53.07 158.359,30.628 -4.132,-6.526 -7.108,-13.857 -8.615,-21.706 z"
           id="path26"
           style="fill:#ad1d3f;fill-opacity:1" /></g><g
         id="g5473"
         transform="translate(34.389128)"><path
           transform="rotate(90)"
           style="fill:#ad1d3f;fill-opacity:1;fill-rule:evenodd;stroke:none;stroke-width:0.74933791px;stroke-linecap:butt;stroke-linejoin:miter;stroke-opacity:1"
           d="m 754.20325,-65.869675 h 22.92609 c 11.21062,0 20.23578,9.025159 20.23578,20.235781 0,11.210623 -9.02516,20.235781 -20.23578,20.235781 h -22.92609 c -11.21062,0 -20.23578,-9.025158 -20.23578,-20.235781 0,-11.210622 9.02516,-20.235781 20.23578,-20.235781 z"
           id="rect5456"
           inkscape:connector-curvature="0" /><path
           transform="rotate(90)"
           style="fill:#ffd5d5;fill-opacity:1;fill-rule:evenodd;stroke:none;stroke-width:0.74933791px;stroke-linecap:butt;stroke-linejoin:miter;stroke-opacity:1"
           d="m 755.48322,-56.735893 h 13.95123 c 6.15051,0 11.102,4.951491 11.102,11.101999 0,6.150508 -4.95149,11.101999 -11.102,11.101999 h -13.95123 c -6.1505,0 -11.10199,-4.951491 -11.10199,-11.101999 0,-6.150508 4.95149,-11.101999 11.10199,-11.101999 z"
           id="rect5456-5"
           inkscape:connector-curvature="0" /></g><g
         id="g5477"
         transform="translate(3.1159437)"><path
           style="fill:#ad1d3f;fill-opacity:1;fill-rule:evenodd;stroke:none;stroke-width:0.76576042px;stroke-linecap:butt;stroke-linejoin:miter;stroke-opacity:1"
           d="M 50.938857,771.17212 H 102.8753 c 3.77681,0 6.81735,3.04054 6.81735,6.81735 v 34.54044 c 0,3.77681 -3.04054,6.81735 -6.81735,6.81735 H 50.938857 c -3.776815,0 -6.817355,-3.04054 -6.817355,-6.81735 v -34.54044 c 0,-3.77681 3.04054,-6.81735 6.817355,-6.81735 z"
           id="rect5452"
           inkscape:connector-curvature="0" /><path
           style="opacity:1;fill:#ffffff;fill-opacity:1;stroke:none;stroke-width:3;stroke-linejoin:round;stroke-miterlimit:4;stroke-dasharray:none;stroke-opacity:1"
           d="m 83.457384,798.62988 a 6.5503101,6.5503101 0 0 1 -6.55031,6.55031 6.5503101,6.5503101 0 0 1 -6.55031,-6.55031 6.5503101,6.5503101 0 0 1 6.55031,-6.55031 6.5503101,6.5503101 0 0 1 6.55031,6.55031 z"
           id="path5454"
           inkscape:connector-curvature="0" /></g></g></g></svg>
