<?xml version="1.0" encoding="UTF-8" standalone="no"?>
<!-- Created with Inkscape (http://www.inkscape.org/) -->
<svg
   xmlns:dc="http://purl.org/dc/elements/1.1/"
   xmlns:cc="http://web.resource.org/cc/"
   xmlns:rdf="http://www.w3.org/1999/02/22-rdf-syntax-ns#"
   xmlns:svg="http://www.w3.org/2000/svg"
   xmlns="http://www.w3.org/2000/svg"
   xmlns:xlink="http://www.w3.org/1999/xlink"
   xmlns:sodipodi="http://sodipodi.sourceforge.net/DTD/sodipodi-0.dtd"
   xmlns:inkscape="http://www.inkscape.org/namespaces/inkscape"
   width="300"
   height="140"
   id="svg2812"
   sodipodi:version="0.32"
   inkscape:version="0.45+devel"
   version="1.0"
   sodipodi:docname="redhat-logo.svg"
   inkscape:output_extension="org.inkscape.output.svg.inkscape">
  <defs
     id="defs3" />
  <sodipodi:namedview
     inkscape:document-units="mm"
     id="base"
     pagecolor="#ffffff"
     bordercolor="#666666"
     borderopacity="1.0"
     inkscape:pageopacity="0.0"
     inkscape:pageshadow="2"
     inkscape:zoom="1"
     inkscape:cx="174.26394"
     inkscape:cy="40.358463"
     inkscape:current-layer="layer1"
     inkscape:window-width="722"
     inkscape:window-height="523"
     inkscape:window-x="71"
     inkscape:window-y="636"
     width="300px"
     height="140px" />
  <metadata
     id="metadata4">
    <rdf:RDF>
      <cc:Work
         rdf:about="">
        <dc:format>image/svg+xml</dc:format>
        <dc:type
           rdf:resource="http://purl.org/dc/dcmitype/StillImage" />
      </cc:Work>
    </rdf:RDF>
  </metadata>
  <g
     inkscape:label="Layer 1"
     inkscape:groupmode="layer"
     id="layer1"
     transform="translate(-13.714282,-252.57246)">
    <g
       transform="matrix(2.1166666,0,0,2.1166666,-32.193429,187.76029)"
       id="shadowman">
      <path
         d="M 55.68466,68.503937 C 55.68466,79.688581 46.617715,88.755526 35.433071,88.755526 C 24.248427,88.755526 15.181482,79.688581 15.181482,68.503937 C 15.181482,57.319293 24.248427,48.252348 35.433071,48.252348 C 46.617715,48.252348 55.68466,57.319293 55.68466,68.503937 z"
         transform="matrix(1.10693,0,0,1.10693,5.005761,-12.00975)"
         style="fill:#ffffff"
         id="path4548" />
      <path
         d="M 147.81332,72.126073 C 147.81332,73.329962 147.86057,74.57586 148.03519,75.740362 L 146.64882,75.740362 L 146.42826,73.559712 L 146.35605,73.559712 C 145.61822,74.733404 143.92333,76.086957 141.50635,76.086957 C 138.4461,76.086957 137.02164,73.933874 137.02164,71.904202 C 137.02164,68.394942 140.11998,66.27862 146.30878,66.34295 L 146.30878,65.937278 C 146.30878,64.432747 146.01471,61.431561 142.41879,61.45388 C 141.08756,61.45388 139.70118,61.810976 138.5997,62.588186 L 138.1205,61.494579 C 139.51083,60.551948 141.20703,60.180411 142.58291,60.180411 C 146.97178,60.180411 147.81201,63.475677 147.81201,66.194597 L 147.81201,72.126073 L 147.81332,72.126073 z M 146.30878,67.609855 C 142.99645,67.514016 138.62333,68.015527 138.62333,71.667888 C 138.62333,73.853791 140.06616,74.835806 141.65077,74.835806 C 144.1859,74.835806 145.62742,73.266945 146.15124,71.786044 C 146.26152,71.460456 146.3101,71.134869 146.3101,70.874924 L 146.3101,67.609855 L 146.30878,67.609855 z M 153.80387,57.175286 L 153.80387,60.527004 L 158.13891,60.527004 L 158.13891,61.747959 L 153.80387,61.747959 L 153.80387,71.635066 C 153.80387,73.568902 154.40385,74.780665 156.03835,74.780665 C 156.82343,74.780665 157.37877,74.676951 157.76606,74.541727 L 157.94856,75.707542 C 157.45754,75.912347 156.76567,76.072514 155.84798,76.072514 C 154.73862,76.072514 153.81831,75.723296 153.22358,74.994662 C 152.53566,74.195133 152.29934,72.917726 152.29934,71.365932 L 152.29934,61.746646 L 149.7314,61.746646 L 149.7314,60.525692 L 152.29934,60.525692 L 152.29934,57.729312 L 153.80387,57.175286 z M 129.02767,60.179099 C 127.87105,60.179099 126.8339,60.512563 125.96348,61.052146 C 125.05891,61.581226 124.3224,62.399135 123.88522,63.247239 L 123.8222,63.247239 L 123.8222,55.719331 L 122.31767,55.309721 L 122.31767,75.740362 L 123.8222,75.740362 L 123.8222,66.437475 C 123.8222,65.819121 123.86947,65.39113 124.02832,64.938196 C 124.67818,63.046372 126.45974,61.493265 128.61545,61.493265 C 131.72953,61.493265 132.80739,63.990315 132.80739,66.730242 L 132.80739,75.73905 L 134.31191,75.73905 L 134.31191,66.564822 C 134.31191,60.899855 130.4692,60.179099 129.02767,60.179099 z"
         id="path620" />
      <path
         d="M 78.208384,65.270348 C 78.208384,63.205228 78.16506,61.686255 78.08235,60.311696 L 81.460325,60.311696 L 81.604739,63.240675 L 81.713705,63.240675 C 82.473849,61.069213 84.273772,59.961164 85.938472,59.961164 C 86.319199,59.961164 86.541071,59.976918 86.853532,60.045187 L 86.853532,63.719867 C 86.488557,63.648972 86.147215,63.609587 85.677213,63.609587 C 83.819525,63.609587 82.528988,64.792469 82.181081,66.560884 C 82.115438,66.904852 82.079992,67.318401 82.079992,67.738514 L 82.079992,75.73905 L 78.176875,75.73905 L 78.208384,65.270348 z M 91.56274,69.076313 C 91.666455,71.871381 93.83004,73.093647 96.328402,73.093647 C 98.123074,73.093647 99.405732,72.814009 100.58599,72.379455 L 101.16365,75.064243 C 99.842914,75.623519 98.010169,76.042319 95.771752,76.042319 C 90.763211,76.042319 87.82767,72.949234 87.82767,68.220332 C 87.82767,63.961432 90.411366,59.933594 95.372644,59.933594 C 100.38906,59.933594 102.02225,64.059896 102.02225,67.436558 C 102.02225,68.162566 101.95792,68.744161 101.88309,69.103883 L 91.56274,69.076313 z M 98.348885,66.358704 C 98.365952,64.929006 97.743659,62.59869 95.129766,62.59869 C 92.728556,62.59869 91.730785,64.778027 91.554863,66.358704 L 98.348885,66.358704 z M 118.82942,54.363153 L 114.93024,53.307617 L 114.93024,61.97377 L 114.8659,61.97377 C 114.17665,60.834212 112.65375,59.962477 110.54268,59.962477 C 106.83386,59.962477 103.60162,63.033244 103.62656,68.201952 C 103.62656,72.945296 106.54372,76.086957 110.22759,76.086957 C 112.45288,76.086957 114.31582,75.024857 115.23745,73.297141 L 115.30703,73.297141 L 115.48164,75.73905 L 118.95675,75.73905 C 118.88586,74.690078 118.82809,72.991246 118.82809,71.411881 L 118.82809,54.363153 L 118.82942,54.363153 z M 114.92893,69.050056 C 114.92893,69.459667 114.90136,69.840395 114.81077,70.189614 C 114.41823,71.877945 113.0371,72.966301 111.44198,72.966301 C 108.98563,72.966301 107.57957,70.894617 107.57957,68.060164 C 107.57957,65.198141 108.97382,62.983355 111.48662,62.983355 C 113.2406,62.983355 114.49568,64.220064 114.84228,65.72197 C 114.90922,66.038368 114.92893,66.428286 114.92893,66.738119 L 114.92893,69.050056 L 114.92893,69.050056 z"
         id="path616" />
      <path
         d="M 161.80517,73.528501 C 160.90479,73.528501 160.18937,74.243893 160.18939,75.144292 C 160.18939,76.044668 160.90478,76.760094 161.80517,76.760081 C 162.70554,76.760081 163.42095,76.041202 163.42097,75.144292 C 163.42097,74.24046 162.70554,73.528501 161.80517,73.528501 z M 161.80517,73.803529 C 162.54687,73.803529 163.14594,74.402585 163.14593,75.144292 C 163.14593,75.882533 162.54342,76.485053 161.80517,76.485053 C 161.06348,76.485053 160.46441,75.882523 160.46441,75.144292 C 160.46441,74.402596 161.06346,73.80354 161.80517,73.803529 z M 161.25512,74.319207 L 161.25512,75.969376 L 161.49577,75.969376 L 161.49577,75.247426 L 161.80517,75.247426 L 162.2521,75.969376 L 162.52712,75.969376 L 162.04582,75.247426 C 162.29078,75.216382 162.49274,75.06625 162.49274,74.766128 C 162.49273,74.438393 162.30159,74.319207 161.90832,74.319207 L 161.25512,74.319207 z M 161.49577,74.525479 L 161.83955,74.525479 C 162.0155,74.525467 162.21771,74.562596 162.21771,74.766128 C 162.21773,75.02142 162.01906,75.041156 161.80517,75.041156 L 161.49577,75.041156 L 161.49577,74.525479 z"
         id="path650" />
      <path
         d="M 63.115808,76.090895 C 60.810796,75.504093 58.522203,75.797079 56.285026,76.486064 C 56.010655,76.526189 56.159301,76.830359 56.114355,76.953441 C 56.240389,77.319727 56.032958,77.717522 54.998429,77.944646 C 53.465014,78.282048 52.496128,79.864039 51.942103,80.389181 C 51.290927,81.007536 49.45293,81.388262 49.729943,81.01935 C 49.946565,80.730522 50.773662,79.83253 51.276485,78.861018 C 51.726795,77.99322 52.127215,77.746405 52.678614,76.919305 C 52.841408,76.676428 53.46764,75.824385 53.650127,75.149578 C 53.854932,74.490525 53.786663,73.663427 53.865435,73.323398 C 53.97834,72.83239 54.440465,71.767665 54.477226,71.166377 C 54.496918,70.825035 53.056716,71.650821 52.372719,71.650821 C 51.688722,71.650821 51.024417,71.242523 50.412627,71.21364 C 49.657736,71.17688 49.17198,71.795235 48.489295,71.68758 C 48.098065,71.625877 47.769852,71.281909 47.087167,71.255652 C 46.115654,71.220205 44.928834,71.795235 42.698294,71.724341 C 40.507139,71.653447 38.480092,68.952905 38.204394,68.523601 C 37.880118,68.019465 37.484949,68.019465 37.054333,68.414634 C 36.622404,68.809804 36.090697,68.498657 35.939718,68.234773 C 35.652203,67.73195 34.882871,66.258927 33.692111,65.951719 C 32.044479,65.523729 31.210817,66.864153 31.31847,67.928878 C 31.427438,69.010669 32.127189,69.31394 32.451465,69.887656 C 32.77574,70.462687 32.94116,70.834225 33.54901,71.088919 C 33.980939,71.267467 34.142421,71.53529 34.013762,71.888448 C 33.900856,72.198281 33.451859,72.269175 33.156467,72.282304 C 31.933813,72.291845 31.468231,71.67907 30.76576,70.807968 C 30.388969,70.188301 29.79556,69.919166 29.103685,69.919166 C 28.774159,69.919166 28.465638,70.005814 28.191252,70.147603 C 27.106833,70.710817 25.817611,71.045595 24.429922,71.045595 L 22.863688,71.045595 C 22.102232,68.784859 21.688683,66.365268 21.688683,63.847213 C 21.688683,51.409229 31.770093,41.32782 44.208077,41.32782 C 56.646061,41.32782 66.72747,51.410542 66.72747,63.847213 C 66.730097,68.36212 65.401488,72.565881 63.115808,76.090895 z M 49.170707,74.025807 C 49.286239,74.138712 49.485793,74.518127 49.241602,75.001258 C 49.105065,75.257265 48.956712,75.437126 48.694141,75.647183 C 48.37643,75.900564 47.758075,76.194643 46.908658,75.65506 C 46.451785,75.364919 46.424215,75.267768 45.794044,75.349165 C 45.343735,75.408243 45.163874,74.953995 45.326668,74.575893 C 45.488149,74.199104 46.152454,73.893208 46.980865,74.378965 C 47.353716,74.598211 47.932685,75.059024 48.44076,74.649413 C 48.65213,74.481367 48.778164,74.368462 49.069618,74.031058 C 49.082746,74.015304 49.101126,74.007427 49.122132,74.007427 C 49.140512,74.007427 49.157579,74.013991 49.170707,74.025807 z"
         id="path632" />
      <path
         d="M 63.115853,76.089615 C 65.401534,72.564599 66.72883,68.36215 66.72883,63.849868 C 66.72883,51.411879 56.647417,41.330466 44.209428,41.330466 C 31.77144,41.330466 21.690027,51.413192 21.690027,63.849868 C 21.690027,66.367923 22.103576,68.787515 22.865032,71.046939 C 25.868844,79.95466 34.290809,86.367957 44.209428,86.367957 C 52.133821,86.367957 59.101143,82.275788 63.115853,76.089615 z"
         style="fill:none"
         id="path646" />
      <path
         d="M 56.917822,57.857972 C 56.694636,58.606299 56.378238,59.562056 54.970858,60.285439 C 54.766053,60.390468 54.687282,60.218483 54.781807,60.057003 C 55.313513,59.151133 55.409352,58.925322 55.562956,58.568226 C 55.779577,58.047022 55.892482,57.303946 55.463179,55.754779 C 54.615075,52.707643 52.849285,48.633855 51.564001,47.31181 C 50.32598,46.037029 48.079686,45.677306 46.050011,46.19851 C 45.302998,46.390186 43.839164,47.151642 41.126807,46.539852 C 36.433353,45.483004 35.738853,47.833013 35.468405,48.857041 C 35.197956,49.881066 34.552032,52.791666 34.552032,52.791666 C 34.33541,53.977174 34.05446,56.038354 41.342116,57.426043 C 44.737158,58.071966 44.910455,58.950266 45.060119,59.58175 C 45.329254,60.712117 45.761183,61.360667 46.245627,61.682316 C 46.731383,62.006591 46.245627,62.274414 45.707356,62.329554 C 44.260592,62.480532 38.917273,60.947118 35.754607,59.151133 C 33.168283,57.570457 33.124958,56.147322 33.717056,54.939495 C 29.808689,54.516756 26.877084,55.304469 26.345378,57.155594 C 25.431631,60.330077 33.324513,65.752165 42.311003,68.473712 C 51.741236,71.329172 61.440606,69.336258 62.519772,63.40872 C 63.012093,60.71343 60.74348,58.721829 56.917822,57.857972 z M 42.458041,52.053841 C 39.857276,52.241579 39.586829,52.52253 39.099759,53.041108 C 38.411824,53.772368 37.507268,52.090601 37.507268,52.090601 C 36.965059,51.976382 36.306006,51.100708 36.661789,50.2828 C 37.012321,49.474082 37.658246,49.71696 37.860425,49.969029 C 38.107242,50.274923 38.633697,50.777747 39.315068,50.759366 C 39.997753,50.7423 40.785465,50.597886 41.884324,50.597886 C 42.998938,50.597886 43.745953,51.014061 43.789276,51.371156 C 43.823411,51.675739 43.698689,51.964567 42.458041,52.053841 z M 45.191406,47.754243 C 45.187466,47.754243 45.183528,47.755556 45.179589,47.755556 C 45.138891,47.755556 45.107383,47.72536 45.107383,47.687287 C 45.107383,47.659717 45.123137,47.636085 45.14808,47.625583 C 45.652218,47.359073 46.404482,47.147704 47.265715,47.059743 C 47.524347,47.032172 47.776416,47.019045 48.019294,47.016418 C 48.062617,47.016418 48.103316,47.016418 48.147954,47.017731 C 49.592094,47.04924 50.746092,47.622957 50.729025,48.299078 C 50.711958,48.973884 49.527763,49.495088 48.084936,49.46358 C 47.617561,49.453076 47.179067,49.384807 46.800965,49.275842 C 46.756328,49.264025 46.723506,49.225952 46.723506,49.181315 C 46.723506,49.135365 46.756328,49.097292 46.802278,49.08679 C 47.702895,48.878046 48.310747,48.538016 48.268737,48.215055 C 48.212283,47.788376 47.03334,47.557315 45.637776,47.696476 C 45.484171,47.713544 45.334507,47.733237 45.191406,47.754243 z"
         style="fill:#cc0000"
         id="path648" />
      <use
         transform="translate(-94.61853,1.913321)"
         id="use4312"
         x="0"
         y="0"
         width="744.09448"
         height="1052.3622"
         xlink:href="#path650" />
    </g>
  </g>
</svg>
